<svg xmlns="http://www.w3.org/2000/svg" xmlns:xlink="http://www.w3.org/1999/xlink" width="1070" zoomAndPan="magnify" viewBox="0 0 802.5 168.749997" height="225" preserveAspectRatio="xMidYMid meet" version="1.0"><defs><g/><clipPath id="057fa0941d"><path d="M 1 0 L 801.65625 0 L 801.65625 149 L 1 149 Z M 1 0 " clip-rule="nonzero"/></clipPath></defs><g clip-path="url(#057fa0941d)"><path stroke-linecap="butt" transform="matrix(0.748891, 0, 0, 0.748891, 27.676846, 42.751462)" fill="none" stroke-linejoin="miter" d="M 54.532375 -3.444545 C 61.86614 -3.444545 68.22972 -1.994483 73.633547 0.910857 C 78.953918 3.816196 83.361479 7.519591 86.851016 12.031474 C 90.262313 16.517276 92.802529 21.462091 94.466449 26.865918 C 96.135584 32.264529 96.964936 37.423202 96.964936 42.336721 C 96.964936 48.063943 96.010399 53.6399 94.101325 59.059375 C 92.11401 64.546659 89.281695 69.408017 85.604381 73.653881 C 81.869689 77.977986 77.378671 81.431011 72.141757 84.007739 C 66.899628 86.667924 61.031572 87.998017 54.532375 87.998017 L 18.619875 87.998017 L 18.619875 -3.444545 Z M 51.30364 74.900517 C 54.553239 74.900517 57.427282 73.94598 59.92577 72.036906 C 62.319936 70.211289 64.354196 67.754529 66.018115 64.666628 C 67.603794 61.683048 68.808702 58.230023 69.64327 54.307554 C 70.472621 50.411165 70.889905 46.420887 70.889905 42.336721 C 70.889905 38.25777 70.472621 34.267492 69.64327 30.365887 C 68.808702 26.448634 67.603794 22.953881 66.018115 19.886844 C 64.354196 16.798943 62.319936 14.305671 59.92577 12.396597 C 57.427282 10.565764 54.553239 9.652955 51.30364 9.652955 L 44.694905 9.652955 L 44.694905 74.900517 Z M 171.950862 68.411752 L 168.722127 87.998017 L 113.192066 87.998017 L 113.192066 -3.444545 L 165.462097 -3.444545 L 168.722127 16.141721 L 139.267097 16.141721 L 139.267097 32.467955 L 165.462097 32.467955 L 165.462097 52.054221 L 139.267097 52.054221 L 139.267097 68.411752 Z M 223.360245 -3.444545 C 228.273763 -3.444545 232.931695 -3.027261 237.339257 -2.197909 C 241.663362 -1.279884 245.444998 0.170178 248.673732 2.157492 C 251.918115 4.23348 254.500059 6.930178 256.409133 10.263233 C 258.339072 13.591073 259.304041 17.716968 259.304041 22.630486 C 259.304041 27.523141 258.339072 31.638603 256.409133 34.966443 C 254.500059 38.377739 251.918115 41.079653 248.673732 43.066968 C 245.444998 45.158603 241.663362 46.624313 237.339257 47.453665 C 232.931695 48.37169 228.273763 48.825486 223.360245 48.825486 L 216.746294 48.825486 L 216.746294 87.998017 L 190.671263 87.998017 L 190.671263 -3.444545 Z M 216.746294 35.727986 C 219.489936 35.727986 221.946695 35.352431 224.121788 34.60132 C 226.192559 33.850208 227.93472 32.853943 229.358701 31.617739 C 230.678362 30.438912 231.716356 29.056659 232.467467 27.47098 C 233.135121 25.989622 233.468948 24.414375 233.468948 22.750455 C 233.468948 21.086536 233.135121 19.464344 232.467467 17.878665 C 231.716356 16.292986 230.678362 14.884653 229.358701 13.643233 C 227.93472 12.464406 226.192559 11.509869 224.121788 10.779622 C 221.946695 10.028511 219.489936 9.652955 216.746294 9.652955 Z M 316.544967 61.922986 L 298.846911 61.922986 L 291.351448 87.998017 L 271.765183 87.998017 L 297.840214 -3.444545 L 324.04043 -3.444545 L 350.11546 87.998017 L 324.04043 87.998017 Z M 312.831139 48.825486 L 307.714195 30.856196 L 302.592035 48.825486 Z M 436.957466 87.998017 L 410.75725 87.998017 L 397.77972 48.825486 L 391.170985 48.825486 L 391.170985 87.998017 L 365.095954 87.998017 L 365.095954 -3.444545 L 397.77972 -3.444545 C 402.698454 -3.444545 407.356386 -3.027261 411.763948 -2.197909 C 416.088053 -1.279884 419.864473 0.170178 423.093207 2.157492 C 426.342806 4.23348 428.92475 6.930178 430.833824 10.263233 C 432.763763 13.591073 433.723516 17.716968 433.723516 22.630486 C 433.723516 28.029097 432.596849 32.436659 430.343516 35.847955 C 428.090182 39.342708 425.054442 42.08635 421.236294 44.073665 Z M 391.170985 35.727986 C 393.914627 35.727986 396.371386 35.352431 398.541263 34.60132 C 400.612034 33.850208 402.359411 32.853943 403.783392 31.617739 C 405.103053 30.438912 406.135831 29.056659 406.886942 27.47098 C 407.559812 25.989622 407.893639 24.414375 407.893639 22.750455 C 407.893639 21.086536 407.559812 19.464344 406.886942 17.878665 C 406.135831 16.292986 405.103053 14.884653 403.783392 13.643233 C 402.359411 12.464406 400.612034 11.509869 398.541263 10.779622 C 396.371386 10.028511 393.914627 9.652955 391.170985 9.652955 Z M 498.475553 16.141721 L 498.475553 87.998017 L 472.249256 87.998017 L 472.249256 16.141721 L 449.434256 16.141721 L 452.662991 -3.444545 L 518.067034 -3.444545 L 521.295769 16.141721 Z M 634.207589 -3.444545 L 634.207589 87.998017 L 608.132559 87.998017 L 608.132559 42.336721 L 595.035059 87.998017 L 568.960028 87.998017 L 555.862528 42.336721 L 555.862528 87.998017 L 536.276262 87.998017 L 536.276262 -3.444545 L 568.960028 -3.444545 L 585.317559 53.702492 L 601.649009 -3.444545 Z M 711.692003 68.411752 L 708.463268 87.998017 L 652.933207 87.998017 L 652.933207 -3.444545 L 705.203237 -3.444545 L 708.463268 16.141721 L 679.008237 16.141721 L 679.008237 32.467955 L 705.203237 32.467955 L 705.203237 52.054221 L 679.008237 52.054221 L 679.008237 68.411752 Z M 730.412404 -3.444545 L 759.836138 -3.444545 L 789.1712 51.443943 L 789.1712 -3.444545 L 808.757466 -3.444545 L 808.757466 87.998017 L 779.4537 87.998017 L 749.998669 33.109529 L 749.998669 87.998017 L 730.412404 87.998017 Z M 872.779256 16.141721 L 872.779256 87.998017 L 846.547743 87.998017 L 846.547743 16.141721 L 823.732743 16.141721 L 826.961478 -3.444545 L 892.365521 -3.444545 L 895.594255 16.141721 Z M 953.737558 68.411752 C 953.737558 66.424437 952.610891 64.593603 950.357558 62.929684 C 948.125089 61.265764 945.344934 59.560116 942.011879 57.812739 C 938.600583 56.065363 934.944132 54.145856 931.047743 52.054221 C 927.047033 49.983449 923.338422 47.57885 919.927126 44.835208 C 916.515829 42.175023 913.683515 39.008881 911.430181 35.331566 C 909.192496 31.758573 908.076262 27.523141 908.076262 22.630486 C 908.076262 20.215455 908.696971 17.461381 909.938391 14.37348 C 911.195459 11.3899 913.156694 8.568017 915.816879 5.907832 C 918.477064 3.247647 921.88836 1.004746 926.050768 -0.826088 C 930.11407 -2.573464 935.017157 -3.444545 940.765243 -3.444545 C 948.417187 -3.444545 955.364965 -1.994483 961.598144 0.910857 C 967.831323 3.894437 973.944533 8.974869 979.937774 16.141721 L 969.213576 26.985887 C 968.055613 25.238511 966.605552 23.329437 964.858175 21.258665 C 963.110799 19.250486 961.149564 17.372708 958.979687 15.625332 C 956.825459 13.956196 954.499101 12.547863 952.005829 11.3899 C 949.423885 10.231937 946.7637 9.652955 944.020058 9.652955 C 940.775675 9.652955 938.3137 10.315394 936.64978 11.635054 C 934.98586 12.975579 934.151292 14.477801 934.151292 16.141721 C 934.151292 18.129036 935.277959 19.959869 937.536508 21.623789 C 939.768978 23.287708 942.59086 24.993357 946.002157 26.740733 C 949.413453 28.48811 953.122064 30.397184 957.122774 32.467955 C 961.019163 34.559591 964.675613 36.93811 968.08691 39.598295 C 971.498206 42.336721 974.330521 45.497647 976.583854 49.07064 C 978.821539 52.727091 979.937774 57.009468 979.937774 61.922986 C 979.937774 64.343233 979.317064 67.039931 978.08086 70.028727 C 976.818576 73.116628 974.857342 75.985455 972.197157 78.650856 C 969.536971 81.311042 966.167403 83.512214 962.088453 85.259591 C 957.941694 87.085208 952.996879 87.998017 947.254008 87.998017 C 943.43586 87.998017 939.821138 87.66419 936.404626 86.996535 C 932.915089 86.323665 929.582033 85.207431 926.415891 83.642616 C 923.249749 82.062153 920.17228 80.017461 917.183484 77.518974 C 914.100799 75.103943 911.065058 72.068202 908.076262 68.411752 L 918.800459 57.567585 C 919.958422 59.314961 921.408484 61.182307 923.15586 63.174838 C 924.924101 65.24561 926.885336 67.112955 929.034348 68.776875 C 931.209441 70.524252 933.572311 71.989961 936.133391 73.163573 C 938.631879 74.321535 941.260768 74.900517 944.020058 74.900517 C 947.254008 74.900517 949.700336 74.232863 951.364255 72.892338 C 952.949934 71.572677 953.737558 70.080887 953.737558 68.411752 Z M 953.737558 68.411752 " stroke="#440a00" stroke-width="9.358425" stroke-opacity="1" stroke-miterlimit="4"/></g><g fill="#f7f3e4" fill-opacity="1"><g transform="translate(36.944366, 108.653829)"><g><path d="M 31.578125 -68.484375 C 37.054688 -68.484375 41.820312 -67.394531 45.875 -65.21875 C 49.863281 -63.039062 53.164062 -60.269531 55.78125 -56.90625 C 58.332031 -53.539062 60.234375 -49.832031 61.484375 -45.78125 C 62.722656 -41.726562 63.34375 -37.867188 63.34375 -34.203125 C 63.34375 -29.898438 62.628906 -25.722656 61.203125 -21.671875 C 59.703125 -17.566406 57.582031 -13.925781 54.84375 -10.75 C 52.039062 -7.507812 48.675781 -4.921875 44.75 -2.984375 C 40.832031 -0.992188 36.441406 0 31.578125 0 L 4.671875 0 L 4.671875 -68.484375 Z M 29.15625 -9.8125 C 31.582031 -9.8125 33.726562 -10.523438 35.59375 -11.953125 C 37.40625 -13.328125 38.929688 -15.164062 40.171875 -17.46875 C 41.359375 -19.71875 42.265625 -22.304688 42.890625 -25.234375 C 43.515625 -28.160156 43.828125 -31.148438 43.828125 -34.203125 C 43.828125 -37.253906 43.515625 -40.242188 42.890625 -43.171875 C 42.265625 -46.097656 41.359375 -48.710938 40.171875 -51.015625 C 38.929688 -53.316406 37.40625 -55.1875 35.59375 -56.625 C 33.726562 -57.988281 31.582031 -58.671875 29.15625 -58.671875 L 24.203125 -58.671875 L 24.203125 -9.8125 Z M 29.15625 -9.8125 "/></g></g></g><g fill="#f7f3e4" fill-opacity="1"><g transform="translate(107.769212, 108.653829)"><g><path d="M 48.6875 -14.671875 L 46.25 0 L 4.671875 0 L 4.671875 -68.484375 L 43.828125 -68.484375 L 46.25 -53.8125 L 24.203125 -53.8125 L 24.203125 -41.578125 L 43.828125 -41.578125 L 43.828125 -26.90625 L 24.203125 -26.90625 L 24.203125 -14.671875 Z M 48.6875 -14.671875 "/></g></g></g><g fill="#f7f3e4" fill-opacity="1"><g transform="translate(165.793351, 108.653829)"><g><path d="M 29.15625 -68.484375 C 32.832031 -68.484375 36.320312 -68.175781 39.625 -67.5625 C 42.851562 -66.875 45.6875 -65.78125 48.125 -64.28125 C 50.550781 -62.726562 52.476562 -60.707031 53.90625 -58.21875 C 55.34375 -55.71875 56.0625 -52.632812 56.0625 -48.96875 C 56.0625 -45.289062 55.34375 -42.203125 53.90625 -39.703125 C 52.476562 -37.148438 50.550781 -35.128906 48.125 -33.640625 C 45.6875 -32.078125 42.851562 -30.984375 39.625 -30.359375 C 36.320312 -29.679688 32.832031 -29.34375 29.15625 -29.34375 L 24.203125 -29.34375 L 24.203125 0 L 4.671875 0 L 4.671875 -68.484375 Z M 24.203125 -39.15625 C 26.253906 -39.15625 28.09375 -39.429688 29.71875 -39.984375 C 31.269531 -40.546875 32.578125 -41.296875 33.640625 -42.234375 C 34.628906 -43.109375 35.40625 -44.132812 35.96875 -45.3125 C 36.46875 -46.4375 36.71875 -47.625 36.71875 -48.875 C 36.71875 -50.113281 36.46875 -51.328125 35.96875 -52.515625 C 35.40625 -53.691406 34.628906 -54.75 33.640625 -55.6875 C 32.578125 -56.5625 31.269531 -57.28125 29.71875 -57.84375 C 28.09375 -58.394531 26.253906 -58.671875 24.203125 -58.671875 Z M 24.203125 -39.15625 "/></g></g></g><g fill="#f7f3e4" fill-opacity="1"><g transform="translate(229.330204, 108.653829)"><g><path d="M 35.40625 -19.53125 L 22.140625 -19.53125 L 16.53125 0 L 1.875 0 L 21.390625 -68.484375 L 41.015625 -68.484375 L 60.546875 0 L 41.015625 0 Z M 32.609375 -29.34375 L 28.78125 -42.796875 L 24.953125 -29.34375 Z M 32.609375 -29.34375 "/></g></g></g><g fill="#f7f3e4" fill-opacity="1"><g transform="translate(296.417613, 108.653829)"><g><path d="M 58.484375 0 L 38.875 0 L 29.15625 -29.34375 L 24.203125 -29.34375 L 24.203125 0 L 4.671875 0 L 4.671875 -68.484375 L 29.15625 -68.484375 C 32.832031 -68.484375 36.320312 -68.175781 39.625 -67.5625 C 42.851562 -66.875 45.6875 -65.78125 48.125 -64.28125 C 50.550781 -62.726562 52.476562 -60.707031 53.90625 -58.21875 C 55.34375 -55.71875 56.0625 -52.632812 56.0625 -48.96875 C 56.0625 -44.914062 55.222656 -41.613281 53.546875 -39.0625 C 51.859375 -36.4375 49.582031 -34.378906 46.71875 -32.890625 Z M 24.203125 -39.15625 C 26.253906 -39.15625 28.09375 -39.429688 29.71875 -39.984375 C 31.269531 -40.546875 32.578125 -41.296875 33.640625 -42.234375 C 34.628906 -43.109375 35.40625 -44.132812 35.96875 -45.3125 C 36.46875 -46.4375 36.71875 -47.625 36.71875 -48.875 C 36.71875 -50.113281 36.46875 -51.328125 35.96875 -52.515625 C 35.40625 -53.691406 34.628906 -54.75 33.640625 -55.6875 C 32.578125 -56.5625 31.269531 -57.28125 29.71875 -57.84375 C 28.09375 -58.394531 26.253906 -58.671875 24.203125 -58.671875 Z M 24.203125 -39.15625 "/></g></g></g><g fill="#f7f3e4" fill-opacity="1"><g transform="translate(362.383789, 108.653829)"><g><path d="M 38.59375 -53.8125 L 38.59375 0 L 18.96875 0 L 18.96875 -53.8125 L 1.875 -53.8125 L 4.296875 -68.484375 L 53.265625 -68.484375 L 55.6875 -53.8125 Z M 38.59375 -53.8125 "/></g></g></g><g fill="#f7f3e4" fill-opacity="1"><g transform="translate(424.612552, 108.653829)"><g><path d="M 78.015625 -68.484375 L 78.015625 0 L 58.484375 0 L 58.484375 -34.203125 L 48.6875 0 L 29.15625 0 L 19.34375 -34.203125 L 19.34375 0 L 4.671875 0 L 4.671875 -68.484375 L 29.15625 -68.484375 L 41.390625 -25.6875 L 53.640625 -68.484375 Z M 78.015625 -68.484375 "/></g></g></g><g fill="#f7f3e4" fill-opacity="1"><g transform="translate(511.975541, 108.653829)"><g><path d="M 48.6875 -14.671875 L 46.25 0 L 4.671875 0 L 4.671875 -68.484375 L 43.828125 -68.484375 L 46.25 -53.8125 L 24.203125 -53.8125 L 24.203125 -41.578125 L 43.828125 -41.578125 L 43.828125 -26.90625 L 24.203125 -26.90625 L 24.203125 -14.671875 Z M 48.6875 -14.671875 "/></g></g></g><g fill="#f7f3e4" fill-opacity="1"><g transform="translate(569.999657, 108.653829)"><g><path d="M 4.671875 -68.484375 L 26.71875 -68.484375 L 48.6875 -27.375 L 48.6875 -68.484375 L 63.34375 -68.484375 L 63.34375 0 L 41.390625 0 L 19.34375 -41.109375 L 19.34375 0 L 4.671875 0 Z M 4.671875 -68.484375 "/></g></g></g><g fill="#f7f3e4" fill-opacity="1"><g transform="translate(642.693232, 108.653829)"><g><path d="M 38.59375 -53.8125 L 38.59375 0 L 18.96875 0 L 18.96875 -53.8125 L 1.875 -53.8125 L 4.296875 -68.484375 L 53.265625 -68.484375 L 55.6875 -53.8125 Z M 38.59375 -53.8125 "/></g></g></g><g fill="#f7f3e4" fill-opacity="1"><g transform="translate(704.921995, 108.653829)"><g><path d="M 37 -14.671875 C 37 -16.160156 36.160156 -17.53125 34.484375 -18.78125 C 32.796875 -20.03125 30.707031 -21.304688 28.21875 -22.609375 C 25.664062 -23.921875 22.925781 -25.351562 20 -26.90625 C 17.007812 -28.46875 14.234375 -30.273438 11.671875 -32.328125 C 9.117188 -34.316406 7.003906 -36.6875 5.328125 -39.4375 C 3.640625 -42.113281 2.796875 -45.289062 2.796875 -48.96875 C 2.796875 -50.769531 3.265625 -52.820312 4.203125 -55.125 C 5.140625 -57.363281 6.601562 -59.484375 8.59375 -61.484375 C 10.59375 -63.472656 13.148438 -65.15625 16.265625 -66.53125 C 19.316406 -67.832031 22.988281 -68.484375 27.28125 -68.484375 C 33.007812 -68.484375 38.210938 -67.394531 42.890625 -65.21875 C 47.554688 -62.976562 52.132812 -59.175781 56.625 -53.8125 L 48.59375 -45.6875 C 47.71875 -47 46.625 -48.429688 45.3125 -49.984375 C 44.007812 -51.484375 42.546875 -52.882812 40.921875 -54.1875 C 39.304688 -55.4375 37.5625 -56.5 35.6875 -57.375 C 33.757812 -58.238281 31.769531 -58.671875 29.71875 -58.671875 C 27.28125 -58.671875 25.441406 -58.175781 24.203125 -57.1875 C 22.953125 -56.1875 22.328125 -55.0625 22.328125 -53.8125 C 22.328125 -52.320312 23.171875 -50.953125 24.859375 -49.703125 C 26.535156 -48.460938 28.648438 -47.1875 31.203125 -45.875 C 33.753906 -44.570312 36.53125 -43.140625 39.53125 -41.578125 C 42.457031 -40.023438 45.195312 -38.25 47.75 -36.25 C 50.300781 -34.195312 52.414062 -31.832031 54.09375 -29.15625 C 55.78125 -26.414062 56.625 -23.207031 56.625 -19.53125 C 56.625 -17.71875 56.15625 -15.691406 55.21875 -13.453125 C 54.28125 -11.148438 52.816406 -9 50.828125 -7 C 48.835938 -5.007812 46.316406 -3.363281 43.265625 -2.0625 C 40.148438 -0.6875 36.441406 0 32.140625 0 C 29.273438 0 26.566406 -0.25 24.015625 -0.75 C 21.398438 -1.25 18.90625 -2.085938 16.53125 -3.265625 C 14.164062 -4.453125 11.863281 -5.976562 9.625 -7.84375 C 7.320312 -9.65625 5.046875 -11.929688 2.796875 -14.671875 L 10.84375 -22.796875 C 11.707031 -21.492188 12.796875 -20.09375 14.109375 -18.59375 C 15.421875 -17.039062 16.882812 -15.640625 18.5 -14.390625 C 20.125 -13.078125 21.898438 -11.988281 23.828125 -11.125 C 25.691406 -10.25 27.65625 -9.8125 29.71875 -9.8125 C 32.144531 -9.8125 33.976562 -10.3125 35.21875 -11.3125 C 36.40625 -12.300781 37 -13.421875 37 -14.671875 Z M 37 -14.671875 "/></g></g></g><g fill="#440a00" fill-opacity="1"><g transform="translate(140.580946, 148.159993)"><g><path d="M 9.40625 -3.125 C 10.113281 -3.125 10.726562 -3.222656 11.25 -3.421875 C 11.769531 -3.617188 12.191406 -3.894531 12.515625 -4.25 C 12.847656 -4.601562 13.09375 -5.03125 13.25 -5.53125 C 13.414062 -6.03125 13.5 -6.582031 13.5 -7.1875 C 13.5 -8 13.238281 -8.644531 12.71875 -9.125 C 12.207031 -9.613281 11.363281 -9.859375 10.1875 -9.859375 L 6.40625 -9.859375 L 5.59375 -3.125 Z M 7.578125 -19.296875 L 6.75 -12.640625 L 9.71875 -12.640625 C 11.101562 -12.640625 12.171875 -12.960938 12.921875 -13.609375 C 13.671875 -14.265625 14.046875 -15.257812 14.046875 -16.59375 C 14.046875 -17.539062 13.78125 -18.226562 13.25 -18.65625 C 12.71875 -19.082031 11.890625 -19.296875 10.765625 -19.296875 Z M 11.140625 -22.390625 C 12.367188 -22.390625 13.425781 -22.265625 14.3125 -22.015625 C 15.195312 -21.773438 15.921875 -21.429688 16.484375 -20.984375 C 17.046875 -20.546875 17.457031 -20.007812 17.71875 -19.375 C 17.988281 -18.75 18.125 -18.050781 18.125 -17.28125 C 18.125 -16.644531 18.039062 -16.035156 17.875 -15.453125 C 17.707031 -14.867188 17.441406 -14.328125 17.078125 -13.828125 C 16.710938 -13.328125 16.25 -12.878906 15.6875 -12.484375 C 15.132812 -12.097656 14.472656 -11.773438 13.703125 -11.515625 C 14.972656 -11.203125 15.914062 -10.6875 16.53125 -9.96875 C 17.15625 -9.25 17.46875 -8.335938 17.46875 -7.234375 C 17.46875 -6.203125 17.273438 -5.242188 16.890625 -4.359375 C 16.515625 -3.472656 15.960938 -2.707031 15.234375 -2.0625 C 14.515625 -1.414062 13.632812 -0.910156 12.59375 -0.546875 C 11.5625 -0.179688 10.390625 0 9.078125 0 L 1.1875 0 L 3.953125 -22.390625 Z M 11.140625 -22.390625 "/></g></g></g><g fill="#440a00" fill-opacity="1"><g transform="translate(161.610162, 148.159993)"><g><path d="M 8.90625 -13.4375 C 8.382812 -13.4375 7.898438 -13.332031 7.453125 -13.125 C 7.015625 -12.914062 6.617188 -12.617188 6.265625 -12.234375 C 5.910156 -11.847656 5.597656 -11.390625 5.328125 -10.859375 C 5.066406 -10.328125 4.859375 -9.75 4.703125 -9.125 C 5.984375 -9.300781 7.015625 -9.492188 7.796875 -9.703125 C 8.578125 -9.910156 9.175781 -10.132812 9.59375 -10.375 C 10.019531 -10.625 10.300781 -10.890625 10.4375 -11.171875 C 10.582031 -11.453125 10.65625 -11.75 10.65625 -12.0625 C 10.65625 -12.21875 10.617188 -12.378906 10.546875 -12.546875 C 10.484375 -12.710938 10.378906 -12.859375 10.234375 -12.984375 C 10.097656 -13.109375 9.921875 -13.210938 9.703125 -13.296875 C 9.484375 -13.390625 9.21875 -13.4375 8.90625 -13.4375 Z M 4.375 -6.46875 C 4.375 -3.96875 5.4375 -2.71875 7.5625 -2.71875 C 8.007812 -2.71875 8.410156 -2.757812 8.765625 -2.84375 C 9.117188 -2.9375 9.425781 -3.046875 9.6875 -3.171875 C 9.945312 -3.296875 10.179688 -3.4375 10.390625 -3.59375 C 10.609375 -3.75 10.804688 -3.890625 10.984375 -4.015625 C 11.160156 -4.140625 11.335938 -4.242188 11.515625 -4.328125 C 11.691406 -4.410156 11.882812 -4.453125 12.09375 -4.453125 C 12.21875 -4.453125 12.335938 -4.421875 12.453125 -4.359375 C 12.578125 -4.304688 12.6875 -4.226562 12.78125 -4.125 L 13.75 -2.9375 C 13.195312 -2.394531 12.65625 -1.921875 12.125 -1.515625 C 11.601562 -1.109375 11.066406 -0.773438 10.515625 -0.515625 C 9.972656 -0.265625 9.394531 -0.078125 8.78125 0.046875 C 8.175781 0.171875 7.519531 0.234375 6.8125 0.234375 C 5.882812 0.234375 5.039062 0.078125 4.28125 -0.234375 C 3.53125 -0.554688 2.882812 -1.003906 2.34375 -1.578125 C 1.8125 -2.148438 1.398438 -2.835938 1.109375 -3.640625 C 0.816406 -4.453125 0.671875 -5.359375 0.671875 -6.359375 C 0.671875 -7.203125 0.757812 -8.023438 0.9375 -8.828125 C 1.113281 -9.628906 1.375 -10.390625 1.71875 -11.109375 C 2.0625 -11.835938 2.476562 -12.503906 2.96875 -13.109375 C 3.46875 -13.722656 4.03125 -14.25 4.65625 -14.6875 C 5.28125 -15.132812 5.960938 -15.484375 6.703125 -15.734375 C 7.453125 -15.984375 8.257812 -16.109375 9.125 -16.109375 C 9.945312 -16.109375 10.671875 -15.988281 11.296875 -15.75 C 11.921875 -15.507812 12.441406 -15.203125 12.859375 -14.828125 C 13.273438 -14.453125 13.585938 -14.03125 13.796875 -13.5625 C 14.003906 -13.101562 14.109375 -12.648438 14.109375 -12.203125 C 14.109375 -11.492188 13.960938 -10.84375 13.671875 -10.25 C 13.390625 -9.664062 12.882812 -9.140625 12.15625 -8.671875 C 11.4375 -8.203125 10.445312 -7.800781 9.1875 -7.46875 C 7.925781 -7.132812 6.320312 -6.867188 4.375 -6.671875 Z M 4.375 -6.46875 "/></g></g></g><g fill="#440a00" fill-opacity="1"><g transform="translate(178.706144, 148.159993)"><g/></g></g><g fill="#440a00" fill-opacity="1"><g transform="translate(187.502106, 148.159993)"><g><path d="M 31.34375 -22.390625 L 22.1875 0 L 18.546875 0 L 16.03125 -15.515625 C 16 -15.722656 15.96875 -15.941406 15.9375 -16.171875 C 15.90625 -16.398438 15.878906 -16.644531 15.859375 -16.90625 C 15.765625 -16.644531 15.671875 -16.398438 15.578125 -16.171875 C 15.492188 -15.941406 15.410156 -15.722656 15.328125 -15.515625 L 9 0 L 5.390625 0 L 1.734375 -22.390625 L 4.875 -22.390625 C 5.226562 -22.390625 5.507812 -22.300781 5.71875 -22.125 C 5.925781 -21.957031 6.050781 -21.742188 6.09375 -21.484375 L 8.0625 -7.734375 C 8.09375 -7.410156 8.117188 -7.054688 8.140625 -6.671875 C 8.171875 -6.285156 8.195312 -5.890625 8.21875 -5.484375 C 8.351562 -5.890625 8.488281 -6.285156 8.625 -6.671875 C 8.757812 -7.054688 8.898438 -7.410156 9.046875 -7.734375 L 14.625 -21.484375 C 14.726562 -21.703125 14.90625 -21.90625 15.15625 -22.09375 C 15.414062 -22.289062 15.710938 -22.390625 16.046875 -22.390625 L 16.984375 -22.390625 C 17.335938 -22.390625 17.609375 -22.300781 17.796875 -22.125 C 17.992188 -21.957031 18.132812 -21.742188 18.21875 -21.484375 L 20.453125 -7.734375 C 20.503906 -7.421875 20.550781 -7.078125 20.59375 -6.703125 C 20.644531 -6.328125 20.6875 -5.941406 20.71875 -5.546875 C 20.832031 -5.941406 20.945312 -6.320312 21.0625 -6.6875 C 21.175781 -7.0625 21.289062 -7.410156 21.40625 -7.734375 L 26.703125 -21.484375 C 26.742188 -21.597656 26.8125 -21.707031 26.90625 -21.8125 C 27 -21.925781 27.109375 -22.023438 27.234375 -22.109375 C 27.367188 -22.191406 27.515625 -22.257812 27.671875 -22.3125 C 27.835938 -22.363281 28.003906 -22.390625 28.171875 -22.390625 Z M 31.34375 -22.390625 "/></g></g></g><g fill="#440a00" fill-opacity="1"><g transform="translate(219.510268, 148.159993)"><g><path d="M 6.4375 -15.890625 L 4.53125 0 L 0.78125 0 L 2.671875 -15.890625 Z M 7.421875 -20.515625 C 7.421875 -20.179688 7.347656 -19.867188 7.203125 -19.578125 C 7.066406 -19.296875 6.882812 -19.046875 6.65625 -18.828125 C 6.425781 -18.609375 6.164062 -18.429688 5.875 -18.296875 C 5.59375 -18.171875 5.296875 -18.109375 4.984375 -18.109375 C 4.679688 -18.109375 4.390625 -18.171875 4.109375 -18.296875 C 3.835938 -18.429688 3.59375 -18.609375 3.375 -18.828125 C 3.15625 -19.046875 2.976562 -19.296875 2.84375 -19.578125 C 2.71875 -19.867188 2.65625 -20.179688 2.65625 -20.515625 C 2.65625 -20.847656 2.722656 -21.160156 2.859375 -21.453125 C 2.992188 -21.753906 3.171875 -22.015625 3.390625 -22.234375 C 3.609375 -22.460938 3.859375 -22.640625 4.140625 -22.765625 C 4.421875 -22.898438 4.710938 -22.96875 5.015625 -22.96875 C 5.328125 -22.96875 5.625 -22.898438 5.90625 -22.765625 C 6.195312 -22.640625 6.453125 -22.46875 6.671875 -22.25 C 6.898438 -22.03125 7.082031 -21.769531 7.21875 -21.46875 C 7.351562 -21.175781 7.421875 -20.859375 7.421875 -20.515625 Z M 7.421875 -20.515625 "/></g></g></g><g fill="#440a00" fill-opacity="1"><g transform="translate(229.111455, 148.159993)"><g><path d="M 11.203125 -12.90625 C 11.097656 -12.738281 10.992188 -12.617188 10.890625 -12.546875 C 10.785156 -12.484375 10.648438 -12.453125 10.484375 -12.453125 C 10.296875 -12.453125 10.109375 -12.503906 9.921875 -12.609375 C 9.734375 -12.710938 9.519531 -12.828125 9.28125 -12.953125 C 9.039062 -13.078125 8.757812 -13.191406 8.4375 -13.296875 C 8.125 -13.398438 7.753906 -13.453125 7.328125 -13.453125 C 6.503906 -13.453125 5.875 -13.269531 5.4375 -12.90625 C 5.007812 -12.539062 4.796875 -12.082031 4.796875 -11.53125 C 4.796875 -11.113281 4.945312 -10.773438 5.25 -10.515625 C 5.5625 -10.253906 5.945312 -10.023438 6.40625 -9.828125 C 6.875 -9.628906 7.375 -9.429688 7.90625 -9.234375 C 8.4375 -9.035156 8.929688 -8.78125 9.390625 -8.46875 C 9.859375 -8.164062 10.242188 -7.773438 10.546875 -7.296875 C 10.859375 -6.816406 11.015625 -6.203125 11.015625 -5.453125 C 11.015625 -4.679688 10.859375 -3.953125 10.546875 -3.265625 C 10.242188 -2.578125 9.804688 -1.972656 9.234375 -1.453125 C 8.671875 -0.929688 7.988281 -0.515625 7.1875 -0.203125 C 6.394531 0.0976562 5.492188 0.25 4.484375 0.25 C 3.992188 0.25 3.507812 0.195312 3.03125 0.09375 C 2.5625 0 2.117188 -0.132812 1.703125 -0.3125 C 1.296875 -0.488281 0.921875 -0.691406 0.578125 -0.921875 C 0.242188 -1.160156 -0.0390625 -1.421875 -0.28125 -1.703125 L 0.671875 -3.15625 C 0.785156 -3.332031 0.914062 -3.46875 1.0625 -3.5625 C 1.21875 -3.65625 1.410156 -3.703125 1.640625 -3.703125 C 1.859375 -3.703125 2.054688 -3.632812 2.234375 -3.5 C 2.410156 -3.363281 2.613281 -3.210938 2.84375 -3.046875 C 3.070312 -2.890625 3.351562 -2.742188 3.6875 -2.609375 C 4.03125 -2.484375 4.460938 -2.421875 4.984375 -2.421875 C 5.410156 -2.421875 5.785156 -2.472656 6.109375 -2.578125 C 6.429688 -2.691406 6.707031 -2.847656 6.9375 -3.046875 C 7.164062 -3.242188 7.335938 -3.472656 7.453125 -3.734375 C 7.566406 -3.992188 7.625 -4.265625 7.625 -4.546875 C 7.625 -4.898438 7.535156 -5.191406 7.359375 -5.421875 C 7.179688 -5.660156 6.941406 -5.863281 6.640625 -6.03125 C 6.347656 -6.195312 6.015625 -6.34375 5.640625 -6.46875 C 5.273438 -6.601562 4.898438 -6.742188 4.515625 -6.890625 C 4.128906 -7.035156 3.75 -7.203125 3.375 -7.390625 C 3.007812 -7.578125 2.679688 -7.8125 2.390625 -8.09375 C 2.097656 -8.375 1.863281 -8.71875 1.6875 -9.125 C 1.507812 -9.53125 1.421875 -10.03125 1.421875 -10.625 C 1.421875 -11.320312 1.554688 -12.003906 1.828125 -12.671875 C 2.097656 -13.335938 2.488281 -13.925781 3 -14.4375 C 3.519531 -14.945312 4.15625 -15.359375 4.90625 -15.671875 C 5.664062 -15.984375 6.539062 -16.140625 7.53125 -16.140625 C 8.539062 -16.140625 9.4375 -15.960938 10.21875 -15.609375 C 11 -15.265625 11.65625 -14.828125 12.1875 -14.296875 Z M 11.203125 -12.90625 "/></g></g></g><g fill="#440a00" fill-opacity="1"><g transform="translate(243.683369, 148.159993)"><g><path d="M 8.90625 -13.4375 C 8.382812 -13.4375 7.898438 -13.332031 7.453125 -13.125 C 7.015625 -12.914062 6.617188 -12.617188 6.265625 -12.234375 C 5.910156 -11.847656 5.597656 -11.390625 5.328125 -10.859375 C 5.066406 -10.328125 4.859375 -9.75 4.703125 -9.125 C 5.984375 -9.300781 7.015625 -9.492188 7.796875 -9.703125 C 8.578125 -9.910156 9.175781 -10.132812 9.59375 -10.375 C 10.019531 -10.625 10.300781 -10.890625 10.4375 -11.171875 C 10.582031 -11.453125 10.65625 -11.75 10.65625 -12.0625 C 10.65625 -12.21875 10.617188 -12.378906 10.546875 -12.546875 C 10.484375 -12.710938 10.378906 -12.859375 10.234375 -12.984375 C 10.097656 -13.109375 9.921875 -13.210938 9.703125 -13.296875 C 9.484375 -13.390625 9.21875 -13.4375 8.90625 -13.4375 Z M 4.375 -6.46875 C 4.375 -3.96875 5.4375 -2.71875 7.5625 -2.71875 C 8.007812 -2.71875 8.410156 -2.757812 8.765625 -2.84375 C 9.117188 -2.9375 9.425781 -3.046875 9.6875 -3.171875 C 9.945312 -3.296875 10.179688 -3.4375 10.390625 -3.59375 C 10.609375 -3.75 10.804688 -3.890625 10.984375 -4.015625 C 11.160156 -4.140625 11.335938 -4.242188 11.515625 -4.328125 C 11.691406 -4.410156 11.882812 -4.453125 12.09375 -4.453125 C 12.21875 -4.453125 12.335938 -4.421875 12.453125 -4.359375 C 12.578125 -4.304688 12.6875 -4.226562 12.78125 -4.125 L 13.75 -2.9375 C 13.195312 -2.394531 12.65625 -1.921875 12.125 -1.515625 C 11.601562 -1.109375 11.066406 -0.773438 10.515625 -0.515625 C 9.972656 -0.265625 9.394531 -0.078125 8.78125 0.046875 C 8.175781 0.171875 7.519531 0.234375 6.8125 0.234375 C 5.882812 0.234375 5.039062 0.078125 4.28125 -0.234375 C 3.53125 -0.554688 2.882812 -1.003906 2.34375 -1.578125 C 1.8125 -2.148438 1.398438 -2.835938 1.109375 -3.640625 C 0.816406 -4.453125 0.671875 -5.359375 0.671875 -6.359375 C 0.671875 -7.203125 0.757812 -8.023438 0.9375 -8.828125 C 1.113281 -9.628906 1.375 -10.390625 1.71875 -11.109375 C 2.0625 -11.835938 2.476562 -12.503906 2.96875 -13.109375 C 3.46875 -13.722656 4.03125 -14.25 4.65625 -14.6875 C 5.28125 -15.132812 5.960938 -15.484375 6.703125 -15.734375 C 7.453125 -15.984375 8.257812 -16.109375 9.125 -16.109375 C 9.945312 -16.109375 10.671875 -15.988281 11.296875 -15.75 C 11.921875 -15.507812 12.441406 -15.203125 12.859375 -14.828125 C 13.273438 -14.453125 13.585938 -14.03125 13.796875 -13.5625 C 14.003906 -13.101562 14.109375 -12.648438 14.109375 -12.203125 C 14.109375 -11.492188 13.960938 -10.84375 13.671875 -10.25 C 13.390625 -9.664062 12.882812 -9.140625 12.15625 -8.671875 C 11.4375 -8.203125 10.445312 -7.800781 9.1875 -7.46875 C 7.925781 -7.132812 6.320312 -6.867188 4.375 -6.671875 Z M 4.375 -6.46875 "/></g></g></g><g fill="#440a00" fill-opacity="1"><g transform="translate(260.779355, 148.159993)"><g><path d="M 0.953125 3.796875 C 0.773438 3.640625 0.6875 3.453125 0.6875 3.234375 C 0.6875 3.085938 0.769531 2.914062 0.9375 2.71875 C 1.113281 2.519531 1.3125 2.285156 1.53125 2.015625 C 1.757812 1.742188 1.984375 1.4375 2.203125 1.09375 C 2.421875 0.757812 2.570312 0.378906 2.65625 -0.046875 C 2.332031 -0.046875 2.035156 -0.101562 1.765625 -0.21875 C 1.503906 -0.34375 1.273438 -0.503906 1.078125 -0.703125 C 0.890625 -0.910156 0.742188 -1.15625 0.640625 -1.4375 C 0.535156 -1.71875 0.484375 -2.023438 0.484375 -2.359375 C 0.484375 -2.640625 0.535156 -2.90625 0.640625 -3.15625 C 0.753906 -3.414062 0.90625 -3.640625 1.09375 -3.828125 C 1.289062 -4.023438 1.523438 -4.175781 1.796875 -4.28125 C 2.078125 -4.382812 2.378906 -4.4375 2.703125 -4.4375 C 3.097656 -4.4375 3.441406 -4.367188 3.734375 -4.234375 C 4.035156 -4.097656 4.28125 -3.90625 4.46875 -3.65625 C 4.65625 -3.414062 4.796875 -3.140625 4.890625 -2.828125 C 4.992188 -2.515625 5.046875 -2.179688 5.046875 -1.828125 C 5.046875 -1.328125 4.96875 -0.800781 4.8125 -0.25 C 4.664062 0.289062 4.445312 0.832031 4.15625 1.375 C 3.875 1.925781 3.519531 2.457031 3.09375 2.96875 C 2.675781 3.488281 2.1875 3.960938 1.625 4.390625 Z M 0.953125 3.796875 "/></g></g></g><g fill="#440a00" fill-opacity="1"><g transform="translate(270.070851, 148.159993)"><g/></g></g><g fill="#440a00" fill-opacity="1"><g transform="translate(278.866816, 148.159993)"><g><path d="M 10.609375 -3.15625 C 11.234375 -3.15625 11.773438 -3.203125 12.234375 -3.296875 C 12.703125 -3.398438 13.113281 -3.53125 13.46875 -3.6875 C 13.820312 -3.84375 14.117188 -4.003906 14.359375 -4.171875 C 14.597656 -4.335938 14.8125 -4.5 15 -4.65625 C 15.1875 -4.8125 15.351562 -4.9375 15.5 -5.03125 C 15.644531 -5.132812 15.789062 -5.1875 15.9375 -5.1875 C 16.070312 -5.1875 16.175781 -5.160156 16.25 -5.109375 C 16.332031 -5.054688 16.398438 -5.003906 16.453125 -4.953125 L 17.875 -3.203125 C 16.894531 -2.085938 15.75 -1.234375 14.4375 -0.640625 C 13.132812 -0.046875 11.628906 0.25 9.921875 0.25 C 8.535156 0.25 7.304688 0.00390625 6.234375 -0.484375 C 5.160156 -0.972656 4.253906 -1.648438 3.515625 -2.515625 C 2.785156 -3.390625 2.222656 -4.421875 1.828125 -5.609375 C 1.441406 -6.796875 1.25 -8.085938 1.25 -9.484375 C 1.25 -10.773438 1.390625 -11.992188 1.671875 -13.140625 C 1.953125 -14.296875 2.347656 -15.363281 2.859375 -16.34375 C 3.378906 -17.320312 4 -18.195312 4.71875 -18.96875 C 5.4375 -19.738281 6.234375 -20.394531 7.109375 -20.9375 C 7.992188 -21.488281 8.941406 -21.910156 9.953125 -22.203125 C 10.972656 -22.492188 12.035156 -22.640625 13.140625 -22.640625 C 13.960938 -22.640625 14.707031 -22.5625 15.375 -22.40625 C 16.039062 -22.257812 16.644531 -22.050781 17.1875 -21.78125 C 17.738281 -21.519531 18.234375 -21.195312 18.671875 -20.8125 C 19.109375 -20.4375 19.5 -20.019531 19.84375 -19.5625 L 18.453125 -17.890625 C 18.347656 -17.765625 18.226562 -17.65625 18.09375 -17.5625 C 17.957031 -17.46875 17.785156 -17.421875 17.578125 -17.421875 C 17.347656 -17.421875 17.128906 -17.515625 16.921875 -17.703125 C 16.710938 -17.890625 16.453125 -18.09375 16.140625 -18.3125 C 15.828125 -18.53125 15.421875 -18.734375 14.921875 -18.921875 C 14.421875 -19.109375 13.757812 -19.203125 12.9375 -19.203125 C 11.863281 -19.203125 10.863281 -18.984375 9.9375 -18.546875 C 9.019531 -18.109375 8.21875 -17.476562 7.53125 -16.65625 C 6.851562 -15.84375 6.320312 -14.859375 5.9375 -13.703125 C 5.550781 -12.554688 5.359375 -11.265625 5.359375 -9.828125 C 5.359375 -8.785156 5.488281 -7.851562 5.75 -7.03125 C 6.007812 -6.207031 6.375 -5.507812 6.84375 -4.9375 C 7.320312 -4.363281 7.878906 -3.921875 8.515625 -3.609375 C 9.148438 -3.304688 9.847656 -3.15625 10.609375 -3.15625 Z M 10.609375 -3.15625 "/></g></g></g><g fill="#440a00" fill-opacity="1"><g transform="translate(300.097334, 148.159993)"><g><path d="M 6.03125 -13.1875 C 6.8125 -14.175781 7.648438 -14.914062 8.546875 -15.40625 C 9.453125 -15.894531 10.375 -16.140625 11.3125 -16.140625 C 11.988281 -16.140625 12.59375 -16.003906 13.125 -15.734375 C 13.65625 -15.460938 14.085938 -15.070312 14.421875 -14.5625 C 14.765625 -14.050781 15.003906 -13.421875 15.140625 -12.671875 C 15.285156 -11.921875 15.296875 -11.066406 15.171875 -10.109375 L 13.96875 0 L 10.15625 0 L 11.34375 -10.109375 C 11.476562 -11.140625 11.425781 -11.878906 11.1875 -12.328125 C 10.945312 -12.785156 10.503906 -13.015625 9.859375 -13.015625 C 9.472656 -13.015625 9.066406 -12.90625 8.640625 -12.6875 C 8.210938 -12.46875 7.800781 -12.15625 7.40625 -11.75 C 7.019531 -11.34375 6.65625 -10.847656 6.3125 -10.265625 C 5.976562 -9.691406 5.691406 -9.046875 5.453125 -8.328125 L 4.4375 0 L 0.625 0 L 3.40625 -23.015625 L 7.234375 -23.015625 Z M 6.03125 -13.1875 "/></g></g></g><g fill="#440a00" fill-opacity="1"><g transform="translate(318.865725, 148.159993)"><g><path d="M 7.15625 -2.703125 C 7.789062 -2.703125 8.363281 -2.882812 8.875 -3.25 C 9.394531 -3.625 9.835938 -4.117188 10.203125 -4.734375 C 10.566406 -5.347656 10.84375 -6.0625 11.03125 -6.875 C 11.226562 -7.6875 11.328125 -8.546875 11.328125 -9.453125 C 11.328125 -10.734375 11.109375 -11.675781 10.671875 -12.28125 C 10.242188 -12.882812 9.585938 -13.1875 8.703125 -13.1875 C 8.054688 -13.1875 7.472656 -13.003906 6.953125 -12.640625 C 6.429688 -12.285156 5.988281 -11.800781 5.625 -11.1875 C 5.269531 -10.570312 4.992188 -9.851562 4.796875 -9.03125 C 4.597656 -8.21875 4.5 -7.359375 4.5 -6.453125 C 4.5 -5.160156 4.71875 -4.210938 5.15625 -3.609375 C 5.59375 -3.003906 6.257812 -2.703125 7.15625 -2.703125 Z M 6.796875 0.234375 C 5.921875 0.234375 5.109375 0.0859375 4.359375 -0.203125 C 3.617188 -0.503906 2.972656 -0.9375 2.421875 -1.5 C 1.878906 -2.070312 1.453125 -2.769531 1.140625 -3.59375 C 0.835938 -4.414062 0.6875 -5.359375 0.6875 -6.421875 C 0.6875 -7.796875 0.90625 -9.078125 1.34375 -10.265625 C 1.789062 -11.453125 2.394531 -12.476562 3.15625 -13.34375 C 3.914062 -14.207031 4.800781 -14.890625 5.8125 -15.390625 C 6.820312 -15.890625 7.898438 -16.140625 9.046875 -16.140625 C 9.921875 -16.140625 10.734375 -15.988281 11.484375 -15.6875 C 12.234375 -15.394531 12.878906 -14.960938 13.421875 -14.390625 C 13.960938 -13.828125 14.382812 -13.132812 14.6875 -12.3125 C 15 -11.488281 15.15625 -10.539062 15.15625 -9.46875 C 15.15625 -8.113281 14.929688 -6.84375 14.484375 -5.65625 C 14.046875 -4.476562 13.445312 -3.453125 12.6875 -2.578125 C 11.925781 -1.703125 11.039062 -1.015625 10.03125 -0.515625 C 9.019531 -0.015625 7.941406 0.234375 6.796875 0.234375 Z M 6.796875 0.234375 "/></g></g></g><g fill="#440a00" fill-opacity="1"><g transform="translate(337.092125, 148.159993)"><g><path d="M 7.15625 -2.703125 C 7.789062 -2.703125 8.363281 -2.882812 8.875 -3.25 C 9.394531 -3.625 9.835938 -4.117188 10.203125 -4.734375 C 10.566406 -5.347656 10.84375 -6.0625 11.03125 -6.875 C 11.226562 -7.6875 11.328125 -8.546875 11.328125 -9.453125 C 11.328125 -10.734375 11.109375 -11.675781 10.671875 -12.28125 C 10.242188 -12.882812 9.585938 -13.1875 8.703125 -13.1875 C 8.054688 -13.1875 7.472656 -13.003906 6.953125 -12.640625 C 6.429688 -12.285156 5.988281 -11.800781 5.625 -11.1875 C 5.269531 -10.570312 4.992188 -9.851562 4.796875 -9.03125 C 4.597656 -8.21875 4.5 -7.359375 4.5 -6.453125 C 4.5 -5.160156 4.71875 -4.210938 5.15625 -3.609375 C 5.59375 -3.003906 6.257812 -2.703125 7.15625 -2.703125 Z M 6.796875 0.234375 C 5.921875 0.234375 5.109375 0.0859375 4.359375 -0.203125 C 3.617188 -0.503906 2.972656 -0.9375 2.421875 -1.5 C 1.878906 -2.070312 1.453125 -2.769531 1.140625 -3.59375 C 0.835938 -4.414062 0.6875 -5.359375 0.6875 -6.421875 C 0.6875 -7.796875 0.90625 -9.078125 1.34375 -10.265625 C 1.789062 -11.453125 2.394531 -12.476562 3.15625 -13.34375 C 3.914062 -14.207031 4.800781 -14.890625 5.8125 -15.390625 C 6.820312 -15.890625 7.898438 -16.140625 9.046875 -16.140625 C 9.921875 -16.140625 10.734375 -15.988281 11.484375 -15.6875 C 12.234375 -15.394531 12.878906 -14.960938 13.421875 -14.390625 C 13.960938 -13.828125 14.382812 -13.132812 14.6875 -12.3125 C 15 -11.488281 15.15625 -10.539062 15.15625 -9.46875 C 15.15625 -8.113281 14.929688 -6.84375 14.484375 -5.65625 C 14.046875 -4.476562 13.445312 -3.453125 12.6875 -2.578125 C 11.925781 -1.703125 11.039062 -1.015625 10.03125 -0.515625 C 9.019531 -0.015625 7.941406 0.234375 6.796875 0.234375 Z M 6.796875 0.234375 "/></g></g></g><g fill="#440a00" fill-opacity="1"><g transform="translate(355.318526, 148.159993)"><g><path d="M 11.203125 -12.90625 C 11.097656 -12.738281 10.992188 -12.617188 10.890625 -12.546875 C 10.785156 -12.484375 10.648438 -12.453125 10.484375 -12.453125 C 10.296875 -12.453125 10.109375 -12.503906 9.921875 -12.609375 C 9.734375 -12.710938 9.519531 -12.828125 9.28125 -12.953125 C 9.039062 -13.078125 8.757812 -13.191406 8.4375 -13.296875 C 8.125 -13.398438 7.753906 -13.453125 7.328125 -13.453125 C 6.503906 -13.453125 5.875 -13.269531 5.4375 -12.90625 C 5.007812 -12.539062 4.796875 -12.082031 4.796875 -11.53125 C 4.796875 -11.113281 4.945312 -10.773438 5.25 -10.515625 C 5.5625 -10.253906 5.945312 -10.023438 6.40625 -9.828125 C 6.875 -9.628906 7.375 -9.429688 7.90625 -9.234375 C 8.4375 -9.035156 8.929688 -8.78125 9.390625 -8.46875 C 9.859375 -8.164062 10.242188 -7.773438 10.546875 -7.296875 C 10.859375 -6.816406 11.015625 -6.203125 11.015625 -5.453125 C 11.015625 -4.679688 10.859375 -3.953125 10.546875 -3.265625 C 10.242188 -2.578125 9.804688 -1.972656 9.234375 -1.453125 C 8.671875 -0.929688 7.988281 -0.515625 7.1875 -0.203125 C 6.394531 0.0976562 5.492188 0.25 4.484375 0.25 C 3.992188 0.25 3.507812 0.195312 3.03125 0.09375 C 2.5625 0 2.117188 -0.132812 1.703125 -0.3125 C 1.296875 -0.488281 0.921875 -0.691406 0.578125 -0.921875 C 0.242188 -1.160156 -0.0390625 -1.421875 -0.28125 -1.703125 L 0.671875 -3.15625 C 0.785156 -3.332031 0.914062 -3.46875 1.0625 -3.5625 C 1.21875 -3.65625 1.410156 -3.703125 1.640625 -3.703125 C 1.859375 -3.703125 2.054688 -3.632812 2.234375 -3.5 C 2.410156 -3.363281 2.613281 -3.210938 2.84375 -3.046875 C 3.070312 -2.890625 3.351562 -2.742188 3.6875 -2.609375 C 4.03125 -2.484375 4.460938 -2.421875 4.984375 -2.421875 C 5.410156 -2.421875 5.785156 -2.472656 6.109375 -2.578125 C 6.429688 -2.691406 6.707031 -2.847656 6.9375 -3.046875 C 7.164062 -3.242188 7.335938 -3.472656 7.453125 -3.734375 C 7.566406 -3.992188 7.625 -4.265625 7.625 -4.546875 C 7.625 -4.898438 7.535156 -5.191406 7.359375 -5.421875 C 7.179688 -5.660156 6.941406 -5.863281 6.640625 -6.03125 C 6.347656 -6.195312 6.015625 -6.34375 5.640625 -6.46875 C 5.273438 -6.601562 4.898438 -6.742188 4.515625 -6.890625 C 4.128906 -7.035156 3.75 -7.203125 3.375 -7.390625 C 3.007812 -7.578125 2.679688 -7.8125 2.390625 -8.09375 C 2.097656 -8.375 1.863281 -8.71875 1.6875 -9.125 C 1.507812 -9.53125 1.421875 -10.03125 1.421875 -10.625 C 1.421875 -11.320312 1.554688 -12.003906 1.828125 -12.671875 C 2.097656 -13.335938 2.488281 -13.925781 3 -14.4375 C 3.519531 -14.945312 4.15625 -15.359375 4.90625 -15.671875 C 5.664062 -15.984375 6.539062 -16.140625 7.53125 -16.140625 C 8.539062 -16.140625 9.4375 -15.960938 10.21875 -15.609375 C 11 -15.265625 11.65625 -14.828125 12.1875 -14.296875 Z M 11.203125 -12.90625 "/></g></g></g><g fill="#440a00" fill-opacity="1"><g transform="translate(369.890439, 148.159993)"><g><path d="M 8.90625 -13.4375 C 8.382812 -13.4375 7.898438 -13.332031 7.453125 -13.125 C 7.015625 -12.914062 6.617188 -12.617188 6.265625 -12.234375 C 5.910156 -11.847656 5.597656 -11.390625 5.328125 -10.859375 C 5.066406 -10.328125 4.859375 -9.75 4.703125 -9.125 C 5.984375 -9.300781 7.015625 -9.492188 7.796875 -9.703125 C 8.578125 -9.910156 9.175781 -10.132812 9.59375 -10.375 C 10.019531 -10.625 10.300781 -10.890625 10.4375 -11.171875 C 10.582031 -11.453125 10.65625 -11.75 10.65625 -12.0625 C 10.65625 -12.21875 10.617188 -12.378906 10.546875 -12.546875 C 10.484375 -12.710938 10.378906 -12.859375 10.234375 -12.984375 C 10.097656 -13.109375 9.921875 -13.210938 9.703125 -13.296875 C 9.484375 -13.390625 9.21875 -13.4375 8.90625 -13.4375 Z M 4.375 -6.46875 C 4.375 -3.96875 5.4375 -2.71875 7.5625 -2.71875 C 8.007812 -2.71875 8.410156 -2.757812 8.765625 -2.84375 C 9.117188 -2.9375 9.425781 -3.046875 9.6875 -3.171875 C 9.945312 -3.296875 10.179688 -3.4375 10.390625 -3.59375 C 10.609375 -3.75 10.804688 -3.890625 10.984375 -4.015625 C 11.160156 -4.140625 11.335938 -4.242188 11.515625 -4.328125 C 11.691406 -4.410156 11.882812 -4.453125 12.09375 -4.453125 C 12.21875 -4.453125 12.335938 -4.421875 12.453125 -4.359375 C 12.578125 -4.304688 12.6875 -4.226562 12.78125 -4.125 L 13.75 -2.9375 C 13.195312 -2.394531 12.65625 -1.921875 12.125 -1.515625 C 11.601562 -1.109375 11.066406 -0.773438 10.515625 -0.515625 C 9.972656 -0.265625 9.394531 -0.078125 8.78125 0.046875 C 8.175781 0.171875 7.519531 0.234375 6.8125 0.234375 C 5.882812 0.234375 5.039062 0.078125 4.28125 -0.234375 C 3.53125 -0.554688 2.882812 -1.003906 2.34375 -1.578125 C 1.8125 -2.148438 1.398438 -2.835938 1.109375 -3.640625 C 0.816406 -4.453125 0.671875 -5.359375 0.671875 -6.359375 C 0.671875 -7.203125 0.757812 -8.023438 0.9375 -8.828125 C 1.113281 -9.628906 1.375 -10.390625 1.71875 -11.109375 C 2.0625 -11.835938 2.476562 -12.503906 2.96875 -13.109375 C 3.46875 -13.722656 4.03125 -14.25 4.65625 -14.6875 C 5.28125 -15.132812 5.960938 -15.484375 6.703125 -15.734375 C 7.453125 -15.984375 8.257812 -16.109375 9.125 -16.109375 C 9.945312 -16.109375 10.671875 -15.988281 11.296875 -15.75 C 11.921875 -15.507812 12.441406 -15.203125 12.859375 -14.828125 C 13.273438 -14.453125 13.585938 -14.03125 13.796875 -13.5625 C 14.003906 -13.101562 14.109375 -12.648438 14.109375 -12.203125 C 14.109375 -11.492188 13.960938 -10.84375 13.671875 -10.25 C 13.390625 -9.664062 12.882812 -9.140625 12.15625 -8.671875 C 11.4375 -8.203125 10.445312 -7.800781 9.1875 -7.46875 C 7.925781 -7.132812 6.320312 -6.867188 4.375 -6.671875 Z M 4.375 -6.46875 "/></g></g></g><g fill="#440a00" fill-opacity="1"><g transform="translate(386.986412, 148.159993)"><g/></g></g><g fill="#440a00" fill-opacity="1"><g transform="translate(395.782377, 148.159993)"><g><path d="M 11.3125 -8.734375 L 10.234375 0 L 6.21875 0 L 7.3125 -8.703125 L 1.46875 -22.390625 L 5.046875 -22.390625 C 5.398438 -22.390625 5.671875 -22.304688 5.859375 -22.140625 C 6.054688 -21.972656 6.203125 -21.753906 6.296875 -21.484375 L 9.1875 -13.734375 C 9.320312 -13.347656 9.429688 -12.976562 9.515625 -12.625 C 9.609375 -12.269531 9.691406 -11.925781 9.765625 -11.59375 C 9.929688 -11.9375 10.109375 -12.28125 10.296875 -12.625 C 10.492188 -12.96875 10.707031 -13.335938 10.9375 -13.734375 L 15.75 -21.484375 C 15.894531 -21.710938 16.082031 -21.921875 16.3125 -22.109375 C 16.550781 -22.296875 16.835938 -22.390625 17.171875 -22.390625 L 20.5 -22.390625 Z M 11.3125 -8.734375 "/></g></g></g><g fill="#440a00" fill-opacity="1"><g transform="translate(416.61027, 148.159993)"><g><path d="M 7.15625 -2.703125 C 7.789062 -2.703125 8.363281 -2.882812 8.875 -3.25 C 9.394531 -3.625 9.835938 -4.117188 10.203125 -4.734375 C 10.566406 -5.347656 10.84375 -6.0625 11.03125 -6.875 C 11.226562 -7.6875 11.328125 -8.546875 11.328125 -9.453125 C 11.328125 -10.734375 11.109375 -11.675781 10.671875 -12.28125 C 10.242188 -12.882812 9.585938 -13.1875 8.703125 -13.1875 C 8.054688 -13.1875 7.472656 -13.003906 6.953125 -12.640625 C 6.429688 -12.285156 5.988281 -11.800781 5.625 -11.1875 C 5.269531 -10.570312 4.992188 -9.851562 4.796875 -9.03125 C 4.597656 -8.21875 4.5 -7.359375 4.5 -6.453125 C 4.5 -5.160156 4.71875 -4.210938 5.15625 -3.609375 C 5.59375 -3.003906 6.257812 -2.703125 7.15625 -2.703125 Z M 6.796875 0.234375 C 5.921875 0.234375 5.109375 0.0859375 4.359375 -0.203125 C 3.617188 -0.503906 2.972656 -0.9375 2.421875 -1.5 C 1.878906 -2.070312 1.453125 -2.769531 1.140625 -3.59375 C 0.835938 -4.414062 0.6875 -5.359375 0.6875 -6.421875 C 0.6875 -7.796875 0.90625 -9.078125 1.34375 -10.265625 C 1.789062 -11.453125 2.394531 -12.476562 3.15625 -13.34375 C 3.914062 -14.207031 4.800781 -14.890625 5.8125 -15.390625 C 6.820312 -15.890625 7.898438 -16.140625 9.046875 -16.140625 C 9.921875 -16.140625 10.734375 -15.988281 11.484375 -15.6875 C 12.234375 -15.394531 12.878906 -14.960938 13.421875 -14.390625 C 13.960938 -13.828125 14.382812 -13.132812 14.6875 -12.3125 C 15 -11.488281 15.15625 -10.539062 15.15625 -9.46875 C 15.15625 -8.113281 14.929688 -6.84375 14.484375 -5.65625 C 14.046875 -4.476562 13.445312 -3.453125 12.6875 -2.578125 C 11.925781 -1.703125 11.039062 -1.015625 10.03125 -0.515625 C 9.019531 -0.015625 7.941406 0.234375 6.796875 0.234375 Z M 6.796875 0.234375 "/></g></g></g><g fill="#440a00" fill-opacity="1"><g transform="translate(434.836657, 148.159993)"><g><path d="M 15.75 -15.890625 L 13.828125 0 L 11.890625 0 C 10.984375 0 10.53125 -0.4375 10.53125 -1.3125 L 10.625 -3.140625 C 9.820312 -2.003906 8.941406 -1.15625 7.984375 -0.59375 C 7.023438 -0.0390625 6.035156 0.234375 5.015625 0.234375 C 4.359375 0.234375 3.765625 0.0976562 3.234375 -0.171875 C 2.710938 -0.441406 2.28125 -0.832031 1.9375 -1.34375 C 1.59375 -1.851562 1.347656 -2.484375 1.203125 -3.234375 C 1.066406 -3.984375 1.0625 -4.84375 1.1875 -5.8125 L 2.390625 -15.890625 L 6.203125 -15.890625 L 5.015625 -5.8125 C 4.878906 -4.769531 4.929688 -4.019531 5.171875 -3.5625 C 5.410156 -3.113281 5.84375 -2.890625 6.46875 -2.890625 C 6.882812 -2.890625 7.304688 -3.003906 7.734375 -3.234375 C 8.160156 -3.460938 8.570312 -3.785156 8.96875 -4.203125 C 9.375 -4.628906 9.75 -5.140625 10.09375 -5.734375 C 10.4375 -6.328125 10.722656 -6.992188 10.953125 -7.734375 L 11.921875 -15.890625 Z M 15.75 -15.890625 "/></g></g></g><g fill="#440a00" fill-opacity="1"><g transform="translate(453.605047, 148.159993)"><g><path d="M 5.65625 -12.078125 C 6.050781 -12.859375 6.476562 -13.53125 6.9375 -14.09375 C 7.40625 -14.65625 7.882812 -15.09375 8.375 -15.40625 C 8.875 -15.726562 9.382812 -15.914062 9.90625 -15.96875 C 10.4375 -16.03125 10.960938 -15.945312 11.484375 -15.71875 L 10.796875 -12.0625 C 9.535156 -12.59375 8.429688 -12.460938 7.484375 -11.671875 C 6.535156 -10.890625 5.78125 -9.347656 5.21875 -7.046875 L 4.359375 0 L 0.625 0 L 2.546875 -15.90625 L 4.484375 -15.90625 C 4.890625 -15.90625 5.203125 -15.804688 5.421875 -15.609375 C 5.648438 -15.410156 5.765625 -15.09375 5.765625 -14.65625 Z M 5.65625 -12.078125 "/></g></g></g><g fill="#440a00" fill-opacity="1"><g transform="translate(466.566503, 148.159993)"><g/></g></g><g fill="#440a00" fill-opacity="1"><g transform="translate(475.362468, 148.159993)"><g><path d="M 17.9375 -19.09375 L 11.8125 -19.09375 L 9.453125 0 L 5.46875 0 L 7.78125 -19.09375 L 1.640625 -19.09375 L 2.046875 -22.390625 L 18.34375 -22.390625 Z M 17.9375 -19.09375 "/></g></g></g><g fill="#440a00" fill-opacity="1"><g transform="translate(494.626376, 148.159993)"><g><path d="M 5.65625 -12.078125 C 6.050781 -12.859375 6.476562 -13.53125 6.9375 -14.09375 C 7.40625 -14.65625 7.882812 -15.09375 8.375 -15.40625 C 8.875 -15.726562 9.382812 -15.914062 9.90625 -15.96875 C 10.4375 -16.03125 10.960938 -15.945312 11.484375 -15.71875 L 10.796875 -12.0625 C 9.535156 -12.59375 8.429688 -12.460938 7.484375 -11.671875 C 6.535156 -10.890625 5.78125 -9.347656 5.21875 -7.046875 L 4.359375 0 L 0.625 0 L 2.546875 -15.90625 L 4.484375 -15.90625 C 4.890625 -15.90625 5.203125 -15.804688 5.421875 -15.609375 C 5.648438 -15.410156 5.765625 -15.09375 5.765625 -14.65625 Z M 5.65625 -12.078125 "/></g></g></g><g fill="#440a00" fill-opacity="1"><g transform="translate(507.587832, 148.159993)"><g><path d="M 15.75 -15.890625 L 13.828125 0 L 11.890625 0 C 10.984375 0 10.53125 -0.4375 10.53125 -1.3125 L 10.625 -3.140625 C 9.820312 -2.003906 8.941406 -1.15625 7.984375 -0.59375 C 7.023438 -0.0390625 6.035156 0.234375 5.015625 0.234375 C 4.359375 0.234375 3.765625 0.0976562 3.234375 -0.171875 C 2.710938 -0.441406 2.28125 -0.832031 1.9375 -1.34375 C 1.59375 -1.851562 1.347656 -2.484375 1.203125 -3.234375 C 1.066406 -3.984375 1.0625 -4.84375 1.1875 -5.8125 L 2.390625 -15.890625 L 6.203125 -15.890625 L 5.015625 -5.8125 C 4.878906 -4.769531 4.929688 -4.019531 5.171875 -3.5625 C 5.410156 -3.113281 5.84375 -2.890625 6.46875 -2.890625 C 6.882812 -2.890625 7.304688 -3.003906 7.734375 -3.234375 C 8.160156 -3.460938 8.570312 -3.785156 8.96875 -4.203125 C 9.375 -4.628906 9.75 -5.140625 10.09375 -5.734375 C 10.4375 -6.328125 10.722656 -6.992188 10.953125 -7.734375 L 11.921875 -15.890625 Z M 15.75 -15.890625 "/></g></g></g><g fill="#440a00" fill-opacity="1"><g transform="translate(526.356223, 148.159993)"><g><path d="M 8.90625 -13.4375 C 8.382812 -13.4375 7.898438 -13.332031 7.453125 -13.125 C 7.015625 -12.914062 6.617188 -12.617188 6.265625 -12.234375 C 5.910156 -11.847656 5.597656 -11.390625 5.328125 -10.859375 C 5.066406 -10.328125 4.859375 -9.75 4.703125 -9.125 C 5.984375 -9.300781 7.015625 -9.492188 7.796875 -9.703125 C 8.578125 -9.910156 9.175781 -10.132812 9.59375 -10.375 C 10.019531 -10.625 10.300781 -10.890625 10.4375 -11.171875 C 10.582031 -11.453125 10.65625 -11.75 10.65625 -12.0625 C 10.65625 -12.21875 10.617188 -12.378906 10.546875 -12.546875 C 10.484375 -12.710938 10.378906 -12.859375 10.234375 -12.984375 C 10.097656 -13.109375 9.921875 -13.210938 9.703125 -13.296875 C 9.484375 -13.390625 9.21875 -13.4375 8.90625 -13.4375 Z M 4.375 -6.46875 C 4.375 -3.96875 5.4375 -2.71875 7.5625 -2.71875 C 8.007812 -2.71875 8.410156 -2.757812 8.765625 -2.84375 C 9.117188 -2.9375 9.425781 -3.046875 9.6875 -3.171875 C 9.945312 -3.296875 10.179688 -3.4375 10.390625 -3.59375 C 10.609375 -3.75 10.804688 -3.890625 10.984375 -4.015625 C 11.160156 -4.140625 11.335938 -4.242188 11.515625 -4.328125 C 11.691406 -4.410156 11.882812 -4.453125 12.09375 -4.453125 C 12.21875 -4.453125 12.335938 -4.421875 12.453125 -4.359375 C 12.578125 -4.304688 12.6875 -4.226562 12.78125 -4.125 L 13.75 -2.9375 C 13.195312 -2.394531 12.65625 -1.921875 12.125 -1.515625 C 11.601562 -1.109375 11.066406 -0.773438 10.515625 -0.515625 C 9.972656 -0.265625 9.394531 -0.078125 8.78125 0.046875 C 8.175781 0.171875 7.519531 0.234375 6.8125 0.234375 C 5.882812 0.234375 5.039062 0.078125 4.28125 -0.234375 C 3.53125 -0.554688 2.882812 -1.003906 2.34375 -1.578125 C 1.8125 -2.148438 1.398438 -2.835938 1.109375 -3.640625 C 0.816406 -4.453125 0.671875 -5.359375 0.671875 -6.359375 C 0.671875 -7.203125 0.757812 -8.023438 0.9375 -8.828125 C 1.113281 -9.628906 1.375 -10.390625 1.71875 -11.109375 C 2.0625 -11.835938 2.476562 -12.503906 2.96875 -13.109375 C 3.46875 -13.722656 4.03125 -14.25 4.65625 -14.6875 C 5.28125 -15.132812 5.960938 -15.484375 6.703125 -15.734375 C 7.453125 -15.984375 8.257812 -16.109375 9.125 -16.109375 C 9.945312 -16.109375 10.671875 -15.988281 11.296875 -15.75 C 11.921875 -15.507812 12.441406 -15.203125 12.859375 -14.828125 C 13.273438 -14.453125 13.585938 -14.03125 13.796875 -13.5625 C 14.003906 -13.101562 14.109375 -12.648438 14.109375 -12.203125 C 14.109375 -11.492188 13.960938 -10.84375 13.671875 -10.25 C 13.390625 -9.664062 12.882812 -9.140625 12.15625 -8.671875 C 11.4375 -8.203125 10.445312 -7.800781 9.1875 -7.46875 C 7.925781 -7.132812 6.320312 -6.867188 4.375 -6.671875 Z M 4.375 -6.46875 "/></g></g></g><g fill="#440a00" fill-opacity="1"><g transform="translate(543.452196, 148.159993)"><g/></g></g><g fill="#440a00" fill-opacity="1"><g transform="translate(552.24816, 148.159993)"><g><path d="M 14.578125 -18.359375 C 14.429688 -18.160156 14.285156 -18.007812 14.140625 -17.90625 C 14.003906 -17.8125 13.832031 -17.765625 13.625 -17.765625 C 13.414062 -17.765625 13.203125 -17.84375 12.984375 -18 C 12.773438 -18.164062 12.519531 -18.347656 12.21875 -18.546875 C 11.914062 -18.753906 11.554688 -18.941406 11.140625 -19.109375 C 10.734375 -19.273438 10.238281 -19.359375 9.65625 -19.359375 C 9.101562 -19.359375 8.609375 -19.273438 8.171875 -19.109375 C 7.742188 -18.941406 7.378906 -18.710938 7.078125 -18.421875 C 6.785156 -18.140625 6.5625 -17.800781 6.40625 -17.40625 C 6.257812 -17.007812 6.1875 -16.585938 6.1875 -16.140625 C 6.1875 -15.660156 6.304688 -15.265625 6.546875 -14.953125 C 6.796875 -14.640625 7.113281 -14.363281 7.5 -14.125 C 7.894531 -13.882812 8.34375 -13.671875 8.84375 -13.484375 C 9.351562 -13.296875 9.867188 -13.097656 10.390625 -12.890625 C 10.921875 -12.691406 11.4375 -12.457031 11.9375 -12.1875 C 12.445312 -11.914062 12.894531 -11.582031 13.28125 -11.1875 C 13.675781 -10.800781 13.992188 -10.332031 14.234375 -9.78125 C 14.484375 -9.226562 14.609375 -8.554688 14.609375 -7.765625 C 14.609375 -6.671875 14.414062 -5.640625 14.03125 -4.671875 C 13.644531 -3.703125 13.097656 -2.851562 12.390625 -2.125 C 11.691406 -1.394531 10.835938 -0.816406 9.828125 -0.390625 C 8.816406 0.0351562 7.6875 0.25 6.4375 0.25 C 5.789062 0.25 5.148438 0.175781 4.515625 0.03125 C 3.890625 -0.101562 3.296875 -0.296875 2.734375 -0.546875 C 2.179688 -0.804688 1.664062 -1.117188 1.1875 -1.484375 C 0.71875 -1.847656 0.304688 -2.25 -0.046875 -2.6875 L 1.375 -4.609375 C 1.488281 -4.753906 1.632812 -4.875 1.8125 -4.96875 C 1.988281 -5.0625 2.164062 -5.109375 2.34375 -5.109375 C 2.5 -5.109375 2.65625 -5.054688 2.8125 -4.953125 C 2.976562 -4.847656 3.15625 -4.71875 3.34375 -4.5625 C 3.539062 -4.414062 3.75 -4.253906 3.96875 -4.078125 C 4.1875 -3.898438 4.4375 -3.734375 4.71875 -3.578125 C 5.007812 -3.429688 5.335938 -3.304688 5.703125 -3.203125 C 6.066406 -3.097656 6.484375 -3.046875 6.953125 -3.046875 C 8.128906 -3.046875 9.046875 -3.375 9.703125 -4.03125 C 10.367188 -4.695312 10.703125 -5.613281 10.703125 -6.78125 C 10.703125 -7.300781 10.582031 -7.722656 10.34375 -8.046875 C 10.101562 -8.378906 9.785156 -8.660156 9.390625 -8.890625 C 9.003906 -9.117188 8.5625 -9.316406 8.0625 -9.484375 C 7.5625 -9.648438 7.050781 -9.828125 6.53125 -10.015625 C 6.019531 -10.210938 5.515625 -10.4375 5.015625 -10.6875 C 4.515625 -10.945312 4.066406 -11.273438 3.671875 -11.671875 C 3.273438 -12.066406 2.957031 -12.550781 2.71875 -13.125 C 2.488281 -13.707031 2.375 -14.421875 2.375 -15.265625 C 2.375 -16.222656 2.550781 -17.144531 2.90625 -18.03125 C 3.257812 -18.925781 3.769531 -19.710938 4.4375 -20.390625 C 5.101562 -21.066406 5.90625 -21.609375 6.84375 -22.015625 C 7.789062 -22.421875 8.859375 -22.625 10.046875 -22.625 C 10.660156 -22.625 11.25 -22.5625 11.8125 -22.4375 C 12.375 -22.3125 12.894531 -22.132812 13.375 -21.90625 C 13.863281 -21.675781 14.3125 -21.40625 14.71875 -21.09375 C 15.125 -20.78125 15.476562 -20.429688 15.78125 -20.046875 Z M 14.578125 -18.359375 "/></g></g></g><g fill="#440a00" fill-opacity="1"><g transform="translate(570.226789, 148.159993)"><g><path d="M 8.90625 -13.4375 C 8.382812 -13.4375 7.898438 -13.332031 7.453125 -13.125 C 7.015625 -12.914062 6.617188 -12.617188 6.265625 -12.234375 C 5.910156 -11.847656 5.597656 -11.390625 5.328125 -10.859375 C 5.066406 -10.328125 4.859375 -9.75 4.703125 -9.125 C 5.984375 -9.300781 7.015625 -9.492188 7.796875 -9.703125 C 8.578125 -9.910156 9.175781 -10.132812 9.59375 -10.375 C 10.019531 -10.625 10.300781 -10.890625 10.4375 -11.171875 C 10.582031 -11.453125 10.65625 -11.75 10.65625 -12.0625 C 10.65625 -12.21875 10.617188 -12.378906 10.546875 -12.546875 C 10.484375 -12.710938 10.378906 -12.859375 10.234375 -12.984375 C 10.097656 -13.109375 9.921875 -13.210938 9.703125 -13.296875 C 9.484375 -13.390625 9.21875 -13.4375 8.90625 -13.4375 Z M 4.375 -6.46875 C 4.375 -3.96875 5.4375 -2.71875 7.5625 -2.71875 C 8.007812 -2.71875 8.410156 -2.757812 8.765625 -2.84375 C 9.117188 -2.9375 9.425781 -3.046875 9.6875 -3.171875 C 9.945312 -3.296875 10.179688 -3.4375 10.390625 -3.59375 C 10.609375 -3.75 10.804688 -3.890625 10.984375 -4.015625 C 11.160156 -4.140625 11.335938 -4.242188 11.515625 -4.328125 C 11.691406 -4.410156 11.882812 -4.453125 12.09375 -4.453125 C 12.21875 -4.453125 12.335938 -4.421875 12.453125 -4.359375 C 12.578125 -4.304688 12.6875 -4.226562 12.78125 -4.125 L 13.75 -2.9375 C 13.195312 -2.394531 12.65625 -1.921875 12.125 -1.515625 C 11.601562 -1.109375 11.066406 -0.773438 10.515625 -0.515625 C 9.972656 -0.265625 9.394531 -0.078125 8.78125 0.046875 C 8.175781 0.171875 7.519531 0.234375 6.8125 0.234375 C 5.882812 0.234375 5.039062 0.078125 4.28125 -0.234375 C 3.53125 -0.554688 2.882812 -1.003906 2.34375 -1.578125 C 1.8125 -2.148438 1.398438 -2.835938 1.109375 -3.640625 C 0.816406 -4.453125 0.671875 -5.359375 0.671875 -6.359375 C 0.671875 -7.203125 0.757812 -8.023438 0.9375 -8.828125 C 1.113281 -9.628906 1.375 -10.390625 1.71875 -11.109375 C 2.0625 -11.835938 2.476562 -12.503906 2.96875 -13.109375 C 3.46875 -13.722656 4.03125 -14.25 4.65625 -14.6875 C 5.28125 -15.132812 5.960938 -15.484375 6.703125 -15.734375 C 7.453125 -15.984375 8.257812 -16.109375 9.125 -16.109375 C 9.945312 -16.109375 10.671875 -15.988281 11.296875 -15.75 C 11.921875 -15.507812 12.441406 -15.203125 12.859375 -14.828125 C 13.273438 -14.453125 13.585938 -14.03125 13.796875 -13.5625 C 14.003906 -13.101562 14.109375 -12.648438 14.109375 -12.203125 C 14.109375 -11.492188 13.960938 -10.84375 13.671875 -10.25 C 13.390625 -9.664062 12.882812 -9.140625 12.15625 -8.671875 C 11.4375 -8.203125 10.445312 -7.800781 9.1875 -7.46875 C 7.925781 -7.132812 6.320312 -6.867188 4.375 -6.671875 Z M 4.375 -6.46875 "/></g></g></g><g fill="#440a00" fill-opacity="1"><g transform="translate(587.322761, 148.159993)"><g><path d="M 0.671875 0 L 3.453125 -23.015625 L 7.234375 -23.015625 L 4.421875 0 Z M 0.671875 0 "/></g></g></g><g fill="#440a00" fill-opacity="1"><g transform="translate(596.72265, 148.159993)"><g><path d="M 6.9375 -13.015625 L 5.4375 -0.65625 L 4.640625 2.265625 C 4.484375 2.753906 4.253906 3.132812 3.953125 3.40625 C 3.660156 3.6875 3.234375 3.828125 2.671875 3.828125 L 1.140625 3.828125 L 3.171875 -13.015625 L 1.953125 -13.234375 C 1.710938 -13.285156 1.515625 -13.382812 1.359375 -13.53125 C 1.203125 -13.6875 1.144531 -13.910156 1.1875 -14.203125 L 1.375 -15.75 L 3.515625 -15.75 L 3.65625 -16.921875 C 3.769531 -17.828125 4.007812 -18.640625 4.375 -19.359375 C 4.738281 -20.085938 5.203125 -20.703125 5.765625 -21.203125 C 6.328125 -21.710938 6.972656 -22.101562 7.703125 -22.375 C 8.441406 -22.644531 9.234375 -22.78125 10.078125 -22.78125 C 10.742188 -22.78125 11.351562 -22.679688 11.90625 -22.484375 L 11.5625 -20.5 C 11.507812 -20.257812 11.363281 -20.113281 11.125 -20.0625 C 10.894531 -20.019531 10.628906 -20 10.328125 -20 C 9.910156 -20 9.53125 -19.941406 9.1875 -19.828125 C 8.84375 -19.722656 8.535156 -19.539062 8.265625 -19.28125 C 8.003906 -19.03125 7.789062 -18.703125 7.625 -18.296875 C 7.457031 -17.890625 7.335938 -17.390625 7.265625 -16.796875 L 7.140625 -15.75 L 10.703125 -15.75 L 10.34375 -13.015625 Z M 6.9375 -13.015625 "/></g></g></g></svg>