<svg xmlns="http://www.w3.org/2000/svg" xmlns:xlink="http://www.w3.org/1999/xlink" width="3861" zoomAndPan="magnify" viewBox="0 0 2895.75 43.499998" height="58" preserveAspectRatio="xMidYMid meet" version="1.0"><defs><clipPath id="d3ebea101d"><path d="M 22 1 L 1482 1 L 1482 42.265625 L 22 42.265625 Z M 22 1 " clip-rule="nonzero"/></clipPath><clipPath id="658db5337b"><path d="M 1411 1 L 2871 1 L 2871 42.265625 L 1411 42.265625 Z M 1411 1 " clip-rule="nonzero"/></clipPath></defs><g clip-path="url(#d3ebea101d)"><path fill="#7d5148" d="M 1474.160156 8.0625 C 1466.3125 1.726562 1455.929688 0.113281 1446.8125 3.109375 C 1443.582031 4.144531 1440.46875 5.875 1437.699219 8.0625 C 1429.851562 1.726562 1419.464844 0.113281 1410.351562 3.109375 C 1407.121094 4.144531 1404.003906 5.875 1401.234375 8.0625 C 1393.390625 1.726562 1383.003906 0.113281 1373.890625 3.109375 C 1370.65625 4.144531 1367.542969 5.875 1364.773438 8.0625 C 1356.925781 1.726562 1346.542969 0.113281 1337.425781 3.109375 C 1334.195312 4.144531 1331.078125 5.875 1328.308594 8.0625 C 1320.464844 1.726562 1310.078125 0.113281 1300.964844 3.109375 C 1297.734375 4.144531 1294.617188 5.875 1291.847656 8.0625 C 1284 1.726562 1273.617188 0.113281 1264.5 3.109375 C 1261.269531 4.144531 1258.15625 5.875 1255.386719 8.0625 C 1247.539062 1.726562 1237.152344 0.113281 1228.039062 3.109375 C 1224.808594 4.144531 1221.691406 5.875 1218.921875 8.0625 C 1211.078125 1.726562 1200.691406 0.113281 1191.574219 3.109375 C 1188.34375 4.144531 1185.230469 5.875 1182.460938 8.0625 C 1174.613281 1.726562 1164.230469 0.113281 1155.113281 3.109375 C 1151.882812 4.144531 1148.765625 5.875 1145.996094 8.0625 C 1138.152344 1.726562 1127.765625 0.113281 1118.652344 3.109375 C 1115.421875 4.144531 1112.304688 5.875 1109.535156 8.0625 C 1101.6875 1.726562 1091.304688 0.113281 1082.1875 3.109375 C 1078.957031 4.144531 1075.84375 5.875 1073.074219 8.0625 C 1065.226562 1.726562 1054.839844 0.113281 1045.726562 3.109375 C 1042.496094 4.144531 1039.378906 5.875 1036.609375 8.0625 C 1028.765625 1.726562 1018.378906 0.113281 1009.261719 3.109375 C 1006.03125 4.144531 1002.917969 5.875 1000.148438 8.0625 C 992.300781 1.726562 981.917969 0.113281 972.800781 3.109375 C 969.570312 4.144531 966.453125 5.875 963.683594 8.0625 C 955.839844 1.726562 945.453125 0.113281 936.339844 3.109375 C 933.105469 4.144531 929.992188 5.875 927.222656 8.0625 C 919.375 1.726562 908.992188 0.113281 899.875 3.109375 C 896.644531 4.144531 893.53125 5.875 890.761719 8.0625 C 882.914062 1.726562 872.527344 0.113281 863.414062 3.109375 C 860.183594 4.144531 857.066406 5.875 854.296875 8.0625 C 846.449219 1.726562 836.066406 0.113281 826.949219 3.109375 C 823.71875 4.144531 820.605469 5.875 817.835938 8.0625 C 809.988281 1.726562 799.605469 0.113281 790.488281 3.109375 C 787.257812 4.144531 784.140625 5.875 781.371094 8.0625 C 773.527344 1.726562 763.140625 0.113281 754.023438 3.109375 C 750.792969 4.144531 747.679688 5.875 744.910156 8.0625 C 737.0625 1.726562 726.679688 0.113281 717.5625 3.109375 C 714.332031 4.144531 711.214844 5.875 708.445312 8.0625 C 700.601562 1.726562 690.214844 0.113281 681.101562 3.109375 C 677.871094 4.144531 674.753906 5.875 671.984375 8.0625 C 662.984375 1.726562 652.601562 0 643.367188 3.109375 C 640.136719 4.144531 637.023438 5.875 634.253906 8.0625 C 626.40625 1.726562 616.023438 0.113281 606.90625 3.109375 C 603.675781 4.144531 600.558594 5.875 597.789062 8.0625 C 589.945312 1.726562 579.558594 0.113281 570.445312 3.109375 C 567.214844 4.144531 564.097656 5.875 561.328125 8.0625 C 553.367188 1.726562 542.980469 0 533.867188 3.109375 C 530.636719 4.144531 527.519531 5.875 524.75 8.0625 C 516.902344 1.726562 506.519531 0.113281 497.402344 3.109375 C 494.171875 4.144531 491.058594 5.875 488.289062 8.0625 C 480.441406 1.726562 470.054688 0.113281 460.941406 3.109375 C 457.710938 4.144531 454.59375 5.875 451.824219 8.0625 C 443.980469 1.726562 433.59375 0.113281 424.476562 3.109375 C 421.246094 4.144531 418.132812 5.875 415.363281 8.0625 C 407.515625 1.726562 397.132812 0.113281 388.015625 3.109375 C 384.785156 4.144531 381.667969 5.875 378.898438 8.0625 C 371.054688 1.726562 360.667969 0.113281 351.554688 3.109375 C 348.324219 4.144531 345.207031 5.875 342.4375 8.0625 C 334.589844 1.726562 324.207031 0.113281 315.089844 3.109375 C 311.859375 4.144531 308.746094 5.875 305.976562 8.0625 C 298.128906 1.726562 287.742188 0.113281 278.628906 3.109375 C 275.398438 4.144531 272.28125 5.875 269.511719 8.0625 C 261.667969 1.726562 251.28125 0.113281 242.164062 3.109375 C 238.933594 4.144531 235.820312 5.875 233.050781 8.0625 C 225.203125 1.726562 214.820312 0.113281 205.703125 3.109375 C 202.472656 4.144531 199.355469 5.875 196.585938 8.0625 C 188.742188 1.726562 178.355469 0.113281 169.242188 3.109375 C 166.011719 4.144531 162.894531 5.875 160.125 8.0625 C 152.277344 1.726562 141.894531 0.113281 132.777344 3.109375 C 129.546875 4.144531 126.433594 5.875 123.664062 8.0625 C 115.816406 1.726562 105.429688 0.113281 96.316406 3.109375 C 93.085938 4.144531 89.96875 5.875 87.199219 8.0625 C 79.355469 1.726562 68.96875 0.113281 59.851562 3.109375 C 56.621094 4.144531 53.507812 5.875 50.738281 8.0625 C 42.082031 1.726562 31.699219 0 22.582031 3.109375 L 22.582031 40.765625 C 25.929688 39.730469 28.929688 38.003906 31.699219 35.816406 C 36.890625 39.960938 43.238281 42.265625 49.929688 42.265625 C 53.046875 42.265625 56.160156 41.804688 59.046875 40.765625 C 62.390625 39.730469 65.390625 38.003906 68.160156 35.816406 C 73.351562 39.960938 79.699219 42.265625 86.390625 42.265625 C 89.507812 42.265625 92.625 41.804688 95.507812 40.765625 C 98.855469 39.730469 101.855469 38.003906 104.625 35.816406 C 109.816406 39.960938 116.164062 42.265625 122.855469 42.265625 C 125.96875 42.265625 129.085938 41.804688 131.96875 40.765625 C 135.316406 39.730469 138.316406 38.003906 141.085938 35.816406 C 146.277344 39.960938 152.625 42.265625 159.316406 42.265625 C 162.433594 42.265625 165.546875 41.804688 168.433594 40.765625 C 171.777344 39.730469 174.78125 38.003906 177.546875 35.816406 C 182.742188 39.960938 189.085938 42.265625 195.78125 42.265625 C 198.894531 42.265625 202.011719 41.804688 204.894531 40.765625 C 208.242188 39.730469 211.242188 38.003906 214.011719 35.816406 C 219.203125 39.960938 225.550781 42.265625 232.242188 42.265625 C 235.359375 42.265625 238.472656 41.804688 241.359375 40.765625 C 244.703125 39.730469 247.703125 38.003906 250.472656 35.816406 C 255.667969 39.960938 262.011719 42.265625 268.703125 42.265625 C 271.820312 42.265625 274.9375 41.804688 277.820312 40.765625 C 281.167969 39.730469 284.167969 38.003906 286.9375 35.816406 C 292.128906 39.960938 298.476562 42.265625 305.167969 42.265625 C 308.28125 42.265625 311.398438 41.804688 314.28125 40.765625 C 317.628906 39.730469 320.628906 38.003906 323.398438 35.816406 C 328.589844 39.960938 334.9375 42.265625 341.628906 42.265625 C 344.746094 42.265625 347.859375 41.804688 350.746094 40.765625 C 354.089844 39.730469 357.09375 38.003906 359.859375 35.816406 C 365.054688 39.960938 371.398438 42.265625 378.09375 42.265625 C 381.207031 42.265625 384.324219 41.804688 387.207031 40.765625 C 390.554688 39.730469 393.554688 38.003906 396.324219 35.816406 C 401.515625 39.960938 407.863281 42.265625 414.554688 42.265625 C 417.671875 42.265625 420.785156 41.804688 423.671875 40.765625 C 427.015625 39.730469 430.015625 38.003906 432.785156 35.816406 C 437.980469 39.960938 444.324219 42.265625 451.015625 42.265625 C 454.132812 42.265625 457.25 41.804688 460.132812 40.765625 C 463.480469 39.730469 466.480469 38.003906 469.25 35.816406 C 474.441406 39.960938 480.789062 42.265625 487.480469 42.265625 C 490.59375 42.265625 493.710938 41.804688 496.59375 40.765625 C 499.941406 39.730469 502.941406 38.003906 505.710938 35.816406 C 510.902344 39.960938 517.25 42.265625 523.941406 42.265625 C 527.058594 42.265625 530.171875 41.804688 533.058594 40.765625 C 536.402344 39.730469 539.40625 38.003906 542.171875 35.816406 C 547.367188 39.960938 553.710938 42.265625 560.40625 42.265625 C 563.519531 42.265625 566.636719 41.804688 569.519531 40.765625 C 572.867188 39.730469 575.867188 38.003906 578.636719 35.816406 C 583.828125 39.960938 590.175781 42.265625 596.867188 42.265625 C 599.984375 42.265625 603.097656 41.804688 605.984375 40.765625 C 609.328125 39.730469 612.328125 38.003906 615.097656 35.816406 C 620.292969 39.960938 626.636719 42.265625 633.328125 42.265625 C 636.445312 42.265625 639.5625 41.804688 642.445312 40.765625 C 645.792969 39.730469 648.792969 38.003906 651.5625 35.816406 C 656.753906 39.960938 663.101562 42.265625 669.792969 42.265625 C 672.90625 42.265625 676.023438 41.804688 678.90625 40.765625 C 682.253906 39.730469 685.253906 38.003906 688.023438 35.816406 C 693.214844 39.960938 699.5625 42.265625 706.253906 42.265625 C 709.371094 42.265625 712.484375 41.804688 715.371094 40.765625 C 718.71875 39.730469 721.71875 38.003906 724.488281 35.816406 C 729.679688 39.960938 736.023438 42.265625 742.71875 42.265625 C 745.832031 42.265625 748.949219 41.804688 751.832031 40.765625 C 755.179688 39.730469 758.179688 38.003906 760.949219 35.816406 C 766.140625 39.960938 772.488281 42.265625 779.179688 42.265625 C 782.296875 42.265625 785.410156 41.804688 788.296875 40.765625 C 791.640625 39.730469 794.640625 38.003906 797.410156 35.816406 C 802.605469 39.960938 808.949219 42.265625 815.644531 42.265625 C 818.757812 42.265625 821.875 41.804688 824.757812 40.765625 C 828.105469 39.730469 831.105469 38.003906 833.875 35.816406 C 839.066406 39.960938 845.414062 42.265625 852.105469 42.265625 C 855.222656 42.265625 858.335938 41.804688 861.222656 40.765625 C 864.566406 39.730469 867.566406 38.003906 870.335938 35.816406 C 875.527344 39.960938 881.875 42.265625 888.566406 42.265625 C 891.683594 42.265625 894.800781 41.804688 897.683594 40.765625 C 901.03125 39.730469 904.03125 38.003906 906.800781 35.816406 C 911.992188 39.960938 918.339844 42.265625 925.03125 42.265625 C 928.144531 42.265625 931.261719 41.804688 934.144531 40.765625 C 937.492188 39.730469 940.492188 38.003906 943.261719 35.816406 C 948.453125 39.960938 954.800781 42.265625 961.492188 42.265625 C 964.609375 42.265625 967.722656 41.804688 970.609375 40.765625 C 973.953125 39.730469 976.953125 38.003906 979.722656 35.816406 C 984.917969 39.960938 991.261719 42.265625 997.957031 42.265625 C 1001.070312 42.265625 1004.1875 41.804688 1007.070312 40.765625 C 1010.417969 39.730469 1013.417969 38.003906 1016.1875 35.816406 C 1021.378906 39.960938 1027.726562 42.265625 1034.417969 42.265625 C 1037.535156 42.265625 1040.648438 41.804688 1043.535156 40.765625 C 1046.878906 39.730469 1049.878906 38.003906 1052.648438 35.816406 C 1057.84375 39.960938 1064.1875 42.265625 1070.878906 42.265625 C 1073.996094 42.265625 1077.113281 41.804688 1079.996094 40.765625 C 1083.34375 39.730469 1086.34375 38.003906 1089.113281 35.816406 C 1094.304688 39.960938 1100.652344 42.265625 1107.34375 42.265625 C 1110.457031 42.265625 1113.574219 41.804688 1116.457031 40.765625 C 1119.804688 39.730469 1122.804688 38.003906 1125.574219 35.816406 C 1130.765625 39.960938 1137.113281 42.265625 1143.804688 42.265625 C 1146.921875 42.265625 1150.035156 41.804688 1152.921875 40.765625 C 1156.269531 39.730469 1159.269531 38.003906 1162.039062 35.816406 C 1167.230469 39.960938 1173.574219 42.265625 1180.269531 42.265625 C 1183.382812 42.265625 1186.5 41.804688 1189.382812 40.765625 C 1192.730469 39.730469 1195.730469 38.003906 1198.5 35.816406 C 1203.691406 39.960938 1210.039062 42.265625 1216.730469 42.265625 C 1219.847656 42.265625 1222.960938 41.804688 1225.847656 40.765625 C 1229.191406 39.730469 1232.191406 38.003906 1234.960938 35.816406 C 1240.15625 39.960938 1246.5 42.265625 1253.195312 42.265625 C 1256.308594 42.265625 1259.425781 41.804688 1262.308594 40.765625 C 1265.65625 39.730469 1268.65625 38.003906 1271.425781 35.816406 C 1276.617188 39.960938 1282.964844 42.265625 1289.65625 42.265625 C 1292.773438 42.265625 1295.886719 41.804688 1298.773438 40.765625 C 1302.117188 39.730469 1305.117188 38.003906 1307.886719 35.816406 C 1313.078125 39.960938 1319.425781 42.265625 1326.117188 42.265625 C 1329.234375 42.265625 1332.351562 41.804688 1335.234375 40.765625 C 1338.582031 39.730469 1341.582031 38.003906 1344.351562 35.816406 C 1349.542969 39.960938 1355.890625 42.265625 1362.582031 42.265625 C 1365.695312 42.265625 1368.8125 41.804688 1371.695312 40.765625 C 1375.042969 39.730469 1378.042969 38.003906 1380.8125 35.816406 C 1386.003906 39.960938 1392.351562 42.265625 1399.042969 42.265625 C 1402.160156 42.265625 1405.273438 41.804688 1408.160156 40.765625 C 1411.507812 39.730469 1414.507812 38.003906 1417.277344 35.816406 C 1422.46875 39.960938 1428.8125 42.265625 1435.507812 42.265625 C 1438.621094 42.265625 1441.738281 41.804688 1444.621094 40.765625 C 1447.96875 39.730469 1450.96875 38.003906 1453.738281 35.816406 C 1458.929688 39.960938 1465.277344 42.265625 1471.96875 42.265625 C 1475.085938 42.265625 1478.199219 41.804688 1481.085938 40.765625 L 1481.085938 3.109375 C 1480.046875 4.144531 1477.046875 5.757812 1474.160156 8.0625 Z M 1474.160156 8.0625 " fill-opacity="1" fill-rule="nonzero"/></g><path fill="#e9ac64" d="M 497.289062 10.480469 C 494.863281 11.515625 492.558594 13.128906 490.59375 15.085938 L 482.75 23.03125 L 475.019531 30.863281 C 478.824219 33.742188 483.441406 35.238281 488.289062 35.238281 C 491.519531 35.238281 494.632812 34.546875 497.402344 33.28125 C 499.828125 32.128906 502.132812 30.632812 504.097656 28.675781 L 519.789062 12.898438 C 513.097656 8.0625 504.558594 7.253906 497.289062 10.480469 Z M 497.289062 10.480469 " fill-opacity="1" fill-rule="nonzero"/><path fill="#e9ac64" d="M 533.867188 10.480469 C 531.441406 11.515625 529.136719 13.128906 527.171875 15.085938 L 519.328125 23.03125 L 511.597656 30.863281 C 515.402344 33.742188 520.019531 35.238281 524.867188 35.238281 C 528.097656 35.238281 531.210938 34.546875 533.980469 33.28125 C 536.40625 32.128906 538.710938 30.632812 540.671875 28.675781 L 556.367188 12.898438 C 549.675781 8.0625 541.019531 7.253906 533.867188 10.480469 Z M 533.867188 10.480469 " fill-opacity="1" fill-rule="nonzero"/><path fill="#e9ac64" d="M 460.824219 10.480469 C 458.402344 11.515625 456.09375 13.128906 454.132812 15.085938 L 446.285156 23.03125 L 438.554688 30.863281 C 442.363281 33.742188 446.980469 35.238281 451.824219 35.238281 C 455.054688 35.238281 458.171875 34.546875 460.941406 33.28125 C 463.363281 32.128906 465.671875 30.632812 467.632812 28.675781 L 483.324219 12.898438 C 476.632812 8.0625 467.980469 7.253906 460.824219 10.480469 Z M 460.824219 10.480469 " fill-opacity="1" fill-rule="nonzero"/><path fill="#e9ac64" d="M 424.246094 10.480469 C 421.824219 11.515625 419.515625 13.128906 417.554688 15.085938 L 409.707031 23.03125 L 401.976562 30.863281 C 405.785156 33.742188 410.402344 35.238281 415.246094 35.238281 C 418.476562 35.238281 421.59375 34.546875 424.363281 33.28125 C 426.785156 32.128906 429.09375 30.632812 431.054688 28.675781 L 446.75 12.898438 C 440.054688 8.0625 431.515625 7.253906 424.246094 10.480469 Z M 424.246094 10.480469 " fill-opacity="1" fill-rule="nonzero"/><path fill="#e9ac64" d="M 570.328125 10.480469 C 567.90625 11.515625 565.597656 13.128906 563.636719 15.085938 L 555.789062 23.03125 L 548.058594 30.863281 C 551.867188 33.742188 556.480469 35.238281 561.328125 35.238281 C 564.558594 35.238281 567.675781 34.546875 570.445312 33.28125 C 572.867188 32.128906 575.175781 30.632812 577.136719 28.675781 L 592.828125 12.898438 C 586.136719 8.0625 577.597656 7.253906 570.328125 10.480469 Z M 570.328125 10.480469 " fill-opacity="1" fill-rule="nonzero"/><path fill="#e9ac64" d="M 679.945312 10.480469 C 677.523438 11.515625 675.214844 13.128906 673.253906 15.085938 L 665.40625 23.03125 L 657.675781 30.863281 C 661.484375 33.742188 666.101562 35.238281 670.945312 35.238281 C 674.175781 35.238281 677.292969 34.546875 680.0625 33.28125 C 682.484375 32.128906 684.792969 30.632812 686.753906 28.675781 L 702.449219 12.898438 C 695.753906 8.0625 687.101562 7.253906 679.945312 10.480469 Z M 679.945312 10.480469 " fill-opacity="1" fill-rule="nonzero"/><path fill="#e9ac64" d="M 351.207031 10.480469 C 348.785156 11.515625 346.476562 13.128906 344.515625 15.085938 L 336.667969 23.03125 L 328.9375 30.863281 C 332.746094 33.742188 337.359375 35.238281 342.207031 35.238281 C 345.4375 35.238281 348.554688 34.546875 351.324219 33.28125 C 353.746094 32.128906 356.054688 30.632812 358.015625 28.675781 L 373.707031 12.898438 C 367.015625 8.0625 358.476562 7.253906 351.207031 10.480469 Z M 351.207031 10.480469 " fill-opacity="1" fill-rule="nonzero"/><path fill="#e9ac64" d="M 643.367188 10.480469 C 640.945312 11.515625 638.636719 13.128906 636.675781 15.085938 L 628.828125 23.03125 L 621.097656 30.863281 C 624.90625 33.742188 629.523438 35.238281 634.367188 35.238281 C 637.597656 35.238281 640.714844 34.546875 643.484375 33.28125 C 645.90625 32.128906 648.214844 30.632812 650.175781 28.675781 L 665.871094 12.898438 C 659.175781 8.0625 650.636719 7.253906 643.367188 10.480469 Z M 643.367188 10.480469 " fill-opacity="1" fill-rule="nonzero"/><path fill="#e9ac64" d="M 606.90625 10.480469 C 604.484375 11.515625 602.175781 13.128906 600.214844 15.085938 L 592.367188 23.03125 L 584.636719 30.863281 C 588.445312 33.742188 593.058594 35.238281 597.90625 35.238281 C 601.136719 35.238281 604.253906 34.546875 607.023438 33.28125 C 609.445312 32.128906 611.753906 30.632812 613.714844 28.675781 L 629.40625 12.898438 C 622.714844 8.0625 614.058594 7.253906 606.90625 10.480469 Z M 606.90625 10.480469 " fill-opacity="1" fill-rule="nonzero"/><path fill="#e9ac64" d="M 132.085938 10.480469 C 129.664062 11.515625 127.355469 13.128906 125.394531 15.085938 L 117.546875 23.03125 L 109.816406 30.863281 C 113.625 33.742188 118.238281 35.238281 123.085938 35.238281 C 126.316406 35.238281 129.433594 34.546875 132.203125 33.28125 C 134.625 32.128906 136.933594 30.632812 138.894531 28.675781 L 154.585938 12.898438 C 148.007812 8.0625 139.355469 7.253906 132.085938 10.480469 Z M 132.085938 10.480469 " fill-opacity="1" fill-rule="nonzero"/><path fill="#e9ac64" d="M 95.625 10.480469 C 93.199219 11.515625 90.890625 13.128906 88.929688 15.085938 L 81.085938 23.03125 L 73.351562 30.863281 C 77.160156 33.742188 81.777344 35.238281 86.625 35.238281 C 89.855469 35.238281 92.96875 34.546875 95.738281 33.28125 C 98.160156 32.128906 100.46875 30.632812 102.429688 28.675781 L 118.007812 12.898438 C 111.429688 8.0625 102.894531 7.253906 95.625 10.480469 Z M 95.625 10.480469 " fill-opacity="1" fill-rule="nonzero"/><path fill="#e9ac64" d="M 716.410156 10.480469 C 713.984375 11.515625 711.679688 13.128906 709.71875 15.085938 L 701.871094 23.03125 L 694.140625 30.863281 C 697.945312 33.742188 702.5625 35.238281 707.410156 35.238281 C 710.640625 35.238281 713.753906 34.546875 716.523438 33.28125 C 718.949219 32.128906 721.253906 30.632812 723.21875 28.675781 L 738.910156 12.898438 C 732.21875 8.0625 723.679688 7.253906 716.410156 10.480469 Z M 716.410156 10.480469 " fill-opacity="1" fill-rule="nonzero"/><path fill="#e9ac64" d="M 59.046875 10.480469 C 56.621094 11.515625 54.316406 13.128906 52.351562 15.085938 L 44.507812 23.03125 L 36.777344 30.863281 C 40.582031 33.742188 45.199219 35.238281 50.046875 35.238281 C 53.277344 35.238281 56.390625 34.546875 59.160156 33.28125 C 61.582031 32.128906 63.890625 30.632812 65.851562 28.675781 L 81.429688 12.898438 C 74.96875 8.0625 66.316406 7.253906 59.046875 10.480469 Z M 59.046875 10.480469 " fill-opacity="1" fill-rule="nonzero"/><path fill="#e9ac64" d="M 44.96875 12.898438 C 38.390625 8.0625 29.851562 7.253906 22.582031 10.480469 L 22.582031 33.28125 C 25.007812 32.128906 27.3125 30.632812 29.273438 28.675781 Z M 44.96875 12.898438 " fill-opacity="1" fill-rule="nonzero"/><path fill="#e9ac64" d="M 1468.738281 23.03125 L 1461.007812 30.863281 C 1464.8125 33.742188 1469.429688 35.238281 1474.277344 35.238281 C 1477.507812 35.238281 1480.621094 34.546875 1483.390625 33.28125 L 1483.390625 10.480469 C 1480.96875 11.515625 1478.660156 13.128906 1476.699219 15.085938 Z M 1468.738281 23.03125 " fill-opacity="1" fill-rule="nonzero"/><path fill="#e9ac64" d="M 241.703125 10.480469 C 239.28125 11.515625 236.972656 13.128906 235.011719 15.085938 L 227.164062 23.03125 L 219.433594 30.863281 C 223.242188 33.742188 227.859375 35.238281 232.703125 35.238281 C 235.933594 35.238281 239.050781 34.546875 241.820312 33.28125 C 244.242188 32.128906 246.550781 30.632812 248.511719 28.675781 L 264.203125 12.898438 C 257.511719 8.0625 248.972656 7.253906 241.703125 10.480469 Z M 241.703125 10.480469 " fill-opacity="1" fill-rule="nonzero"/><path fill="#e9ac64" d="M 278.167969 10.480469 C 275.742188 11.515625 273.4375 13.128906 271.472656 15.085938 L 263.628906 23.03125 L 255.898438 30.863281 C 259.703125 33.742188 264.320312 35.238281 269.167969 35.238281 C 272.398438 35.238281 275.511719 34.546875 278.28125 33.28125 C 280.707031 32.128906 283.011719 30.632812 284.972656 28.675781 L 300.667969 12.898438 C 293.976562 8.0625 285.4375 7.253906 278.167969 10.480469 Z M 278.167969 10.480469 " fill-opacity="1" fill-rule="nonzero"/><path fill="#e9ac64" d="M 168.664062 10.480469 C 166.242188 11.515625 163.933594 13.128906 161.972656 15.085938 L 154.125 23.03125 L 146.394531 30.863281 C 150.203125 33.742188 154.816406 35.238281 159.664062 35.238281 C 162.894531 35.238281 166.011719 34.546875 168.777344 33.28125 C 171.203125 32.128906 173.511719 30.632812 175.472656 28.675781 L 191.050781 12.898438 C 184.472656 8.0625 175.933594 7.253906 168.664062 10.480469 Z M 168.664062 10.480469 " fill-opacity="1" fill-rule="nonzero"/><path fill="#e9ac64" d="M 314.746094 10.480469 C 312.320312 11.515625 310.015625 13.128906 308.050781 15.085938 L 300.207031 23.03125 L 292.476562 30.863281 C 296.28125 33.742188 300.898438 35.238281 305.746094 35.238281 C 308.976562 35.238281 312.089844 34.546875 314.859375 33.28125 C 317.28125 32.128906 319.589844 30.632812 321.550781 28.675781 L 337.246094 12.898438 C 330.550781 8.0625 322.015625 7.253906 314.746094 10.480469 Z M 314.746094 10.480469 " fill-opacity="1" fill-rule="nonzero"/><path fill="#e9ac64" d="M 205.125 10.480469 C 202.703125 11.515625 200.394531 13.128906 198.433594 15.085938 L 190.585938 23.03125 L 182.855469 30.863281 C 186.664062 33.742188 191.28125 35.238281 196.125 35.238281 C 199.355469 35.238281 202.472656 34.546875 205.242188 33.28125 C 207.664062 32.128906 209.972656 30.632812 211.933594 28.675781 L 227.625 12.898438 C 220.933594 8.0625 212.394531 7.253906 205.125 10.480469 Z M 205.125 10.480469 " fill-opacity="1" fill-rule="nonzero"/><path fill="#e9ac64" d="M 387.785156 10.480469 C 385.363281 11.515625 383.054688 13.128906 381.09375 15.085938 L 373.246094 23.03125 L 365.515625 30.863281 C 369.324219 33.742188 373.9375 35.238281 378.785156 35.238281 C 382.015625 35.238281 385.132812 34.546875 387.902344 33.28125 C 390.324219 32.128906 392.632812 30.632812 394.59375 28.675781 L 410.285156 12.898438 C 403.59375 8.0625 395.054688 7.253906 387.785156 10.480469 Z M 387.785156 10.480469 " fill-opacity="1" fill-rule="nonzero"/><path fill="#e9ac64" d="M 1300.734375 10.480469 C 1298.308594 11.515625 1296 13.128906 1294.039062 15.085938 L 1286.195312 23.03125 L 1278.460938 30.863281 C 1282.269531 33.742188 1286.886719 35.238281 1291.730469 35.238281 C 1294.964844 35.238281 1298.078125 34.546875 1300.847656 33.28125 C 1303.269531 32.128906 1305.578125 30.632812 1307.539062 28.675781 L 1323.234375 12.898438 C 1316.539062 8.0625 1308.003906 7.253906 1300.734375 10.480469 Z M 1300.734375 10.480469 " fill-opacity="1" fill-rule="nonzero"/><path fill="#e9ac64" d="M 1227.691406 10.480469 C 1225.269531 11.515625 1222.960938 13.128906 1221 15.085938 L 1213.152344 23.03125 L 1205.421875 30.863281 C 1209.230469 33.742188 1213.847656 35.238281 1218.691406 35.238281 C 1221.921875 35.238281 1225.039062 34.546875 1227.808594 33.28125 C 1230.230469 32.128906 1232.539062 30.632812 1234.5 28.675781 L 1250.191406 12.898438 C 1243.5 8.0625 1234.960938 7.253906 1227.691406 10.480469 Z M 1227.691406 10.480469 " fill-opacity="1" fill-rule="nonzero"/><path fill="#e9ac64" d="M 1264.269531 10.480469 C 1261.847656 11.515625 1259.539062 13.128906 1257.578125 15.085938 L 1249.730469 23.03125 L 1242 30.863281 C 1245.808594 33.742188 1250.421875 35.238281 1255.269531 35.238281 C 1258.5 35.238281 1261.617188 34.546875 1264.386719 33.28125 C 1266.808594 32.128906 1269.117188 30.632812 1271.078125 28.675781 L 1286.769531 12.898438 C 1280.078125 8.0625 1271.425781 7.253906 1264.269531 10.480469 Z M 1264.269531 10.480469 " fill-opacity="1" fill-rule="nonzero"/><path fill="#e9ac64" d="M 1191.230469 10.480469 C 1188.808594 11.515625 1186.5 13.128906 1184.539062 15.085938 L 1176.691406 23.03125 L 1168.960938 30.863281 C 1172.769531 33.742188 1177.382812 35.238281 1182.230469 35.238281 C 1185.460938 35.238281 1188.574219 34.546875 1191.34375 33.28125 C 1193.769531 32.128906 1196.074219 30.632812 1198.039062 28.675781 L 1213.730469 12.898438 C 1207.039062 8.0625 1198.382812 7.253906 1191.230469 10.480469 Z M 1191.230469 10.480469 " fill-opacity="1" fill-rule="nonzero"/><path fill="#e9ac64" d="M 1154.652344 10.480469 C 1152.230469 11.515625 1149.921875 13.128906 1147.960938 15.085938 L 1140.113281 23.03125 L 1132.382812 30.863281 C 1136.191406 33.742188 1140.804688 35.238281 1145.652344 35.238281 C 1148.882812 35.238281 1151.996094 34.546875 1154.765625 33.28125 C 1157.191406 32.128906 1159.5 30.632812 1161.460938 28.675781 L 1177.152344 12.898438 C 1170.460938 8.0625 1161.921875 7.253906 1154.652344 10.480469 Z M 1154.652344 10.480469 " fill-opacity="1" fill-rule="nonzero"/><path fill="#e9ac64" d="M 1337.3125 10.480469 C 1334.886719 11.515625 1332.578125 13.128906 1330.617188 15.085938 L 1322.773438 23.03125 L 1315.039062 30.863281 C 1318.847656 33.742188 1323.464844 35.238281 1328.308594 35.238281 C 1331.542969 35.238281 1334.65625 34.546875 1337.425781 33.28125 C 1339.847656 32.128906 1342.15625 30.632812 1344.117188 28.675781 L 1359.8125 12.898438 C 1353.117188 8.0625 1344.464844 7.253906 1337.3125 10.480469 Z M 1337.3125 10.480469 " fill-opacity="1" fill-rule="nonzero"/><path fill="#e9ac64" d="M 1118.1875 10.480469 C 1115.765625 11.515625 1113.457031 13.128906 1111.496094 15.085938 L 1103.652344 23.03125 L 1095.917969 30.863281 C 1099.726562 33.742188 1104.34375 35.238281 1109.1875 35.238281 C 1112.421875 35.238281 1115.535156 34.546875 1118.304688 33.28125 C 1120.726562 32.128906 1123.035156 30.632812 1124.996094 28.675781 L 1140.691406 12.898438 C 1133.996094 8.0625 1125.34375 7.253906 1118.1875 10.480469 Z M 1118.1875 10.480469 " fill-opacity="1" fill-rule="nonzero"/><path fill="#e9ac64" d="M 1410.351562 10.480469 C 1407.929688 11.515625 1405.621094 13.128906 1403.660156 15.085938 L 1395.8125 23.03125 L 1388.082031 30.863281 C 1391.890625 33.742188 1396.503906 35.238281 1401.351562 35.238281 C 1404.582031 35.238281 1407.695312 34.546875 1410.464844 33.28125 C 1412.890625 32.128906 1415.199219 30.632812 1417.160156 28.675781 L 1432.621094 12.898438 C 1426.160156 8.0625 1417.503906 7.253906 1410.351562 10.480469 Z M 1410.351562 10.480469 " fill-opacity="1" fill-rule="nonzero"/><path fill="#e9ac64" d="M 1446.8125 10.480469 C 1444.390625 11.515625 1442.082031 13.128906 1440.121094 15.085938 L 1432.273438 23.03125 L 1424.542969 30.863281 C 1428.351562 33.742188 1432.96875 35.238281 1437.8125 35.238281 C 1441.042969 35.238281 1444.160156 34.546875 1446.929688 33.28125 C 1449.351562 32.128906 1451.660156 30.632812 1453.621094 28.675781 L 1469.3125 12.898438 C 1462.621094 8.0625 1454.082031 7.253906 1446.8125 10.480469 Z M 1446.8125 10.480469 " fill-opacity="1" fill-rule="nonzero"/><path fill="#e9ac64" d="M 1373.773438 10.480469 C 1371.351562 11.515625 1369.042969 13.128906 1367.082031 15.085938 L 1359.234375 23.03125 L 1351.503906 30.863281 C 1355.3125 33.742188 1359.925781 35.238281 1364.773438 35.238281 C 1368.003906 35.238281 1371.121094 34.546875 1373.886719 33.28125 C 1376.3125 32.128906 1378.621094 30.632812 1380.582031 28.675781 L 1396.273438 12.898438 C 1389.582031 8.0625 1381.042969 7.253906 1373.773438 10.480469 Z M 1373.773438 10.480469 " fill-opacity="1" fill-rule="nonzero"/><path fill="#e9ac64" d="M 935.53125 10.480469 C 933.109375 11.515625 930.800781 13.128906 928.839844 15.085938 L 920.992188 23.03125 L 913.261719 30.863281 C 917.070312 33.742188 921.683594 35.238281 926.53125 35.238281 C 929.761719 35.238281 932.875 34.546875 935.644531 33.28125 C 938.070312 32.128906 940.375 30.632812 942.339844 28.675781 L 958.03125 12.898438 C 951.339844 8.0625 942.800781 7.253906 935.53125 10.480469 Z M 935.53125 10.480469 " fill-opacity="1" fill-rule="nonzero"/><path fill="#e9ac64" d="M 899.066406 10.480469 C 896.644531 11.515625 894.335938 13.128906 892.375 15.085938 L 884.527344 23.03125 L 876.796875 30.863281 C 880.605469 33.742188 885.222656 35.238281 890.066406 35.238281 C 893.296875 35.238281 896.414062 34.546875 899.183594 33.28125 C 901.605469 32.128906 903.914062 30.632812 905.875 28.675781 L 921.453125 12.898438 C 914.875 8.0625 906.222656 7.253906 899.066406 10.480469 Z M 899.066406 10.480469 " fill-opacity="1" fill-rule="nonzero"/><path fill="#e9ac64" d="M 862.488281 10.480469 C 860.066406 11.515625 857.757812 13.128906 855.796875 15.085938 L 847.953125 23.03125 L 840.21875 30.863281 C 844.027344 33.742188 848.644531 35.238281 853.488281 35.238281 C 856.722656 35.238281 859.835938 34.546875 862.605469 33.28125 C 865.027344 32.128906 867.335938 30.632812 869.296875 28.675781 L 884.992188 12.898438 C 878.296875 8.0625 869.757812 7.253906 862.488281 10.480469 Z M 862.488281 10.480469 " fill-opacity="1" fill-rule="nonzero"/><path fill="#e9ac64" d="M 826.027344 10.480469 C 823.605469 11.515625 821.296875 13.128906 819.335938 15.085938 L 811.488281 23.03125 L 803.757812 30.863281 C 807.566406 33.742188 812.179688 35.238281 817.027344 35.238281 C 820.257812 35.238281 823.375 34.546875 826.144531 33.28125 C 828.566406 32.128906 830.875 30.632812 832.835938 28.675781 L 848.527344 12.898438 C 841.835938 8.0625 833.183594 7.253906 826.027344 10.480469 Z M 826.027344 10.480469 " fill-opacity="1" fill-rule="nonzero"/><path fill="#e9ac64" d="M 789.449219 10.480469 C 787.027344 11.515625 784.71875 13.128906 782.757812 15.085938 L 774.910156 23.03125 L 767.179688 30.863281 C 770.988281 33.742188 775.601562 35.238281 780.449219 35.238281 C 783.679688 35.238281 786.796875 34.546875 789.566406 33.28125 C 791.988281 32.128906 794.296875 30.632812 796.257812 28.675781 L 811.835938 12.898438 C 805.257812 8.0625 796.71875 7.253906 789.449219 10.480469 Z M 789.449219 10.480469 " fill-opacity="1" fill-rule="nonzero"/><path fill="#e9ac64" d="M 1008.570312 10.480469 C 1006.148438 11.515625 1003.839844 13.128906 1001.878906 15.085938 L 994.03125 23.03125 L 986.300781 30.863281 C 990.109375 33.742188 994.722656 35.238281 999.570312 35.238281 C 1002.800781 35.238281 1005.917969 34.546875 1008.6875 33.28125 C 1011.109375 32.128906 1013.417969 30.632812 1015.378906 28.675781 L 1031.070312 12.898438 C 1024.378906 8.0625 1015.839844 7.253906 1008.570312 10.480469 Z M 1008.570312 10.480469 " fill-opacity="1" fill-rule="nonzero"/><path fill="#e9ac64" d="M 752.988281 10.480469 C 750.5625 11.515625 748.257812 13.128906 746.292969 15.085938 L 738.449219 23.03125 L 730.71875 30.863281 C 734.523438 33.742188 739.140625 35.238281 743.988281 35.238281 C 747.21875 35.238281 750.332031 34.546875 753.101562 33.28125 C 755.527344 32.128906 757.832031 30.632812 759.796875 28.675781 L 775.488281 12.898438 C 768.796875 8.0625 760.140625 7.253906 752.988281 10.480469 Z M 752.988281 10.480469 " fill-opacity="1" fill-rule="nonzero"/><path fill="#e9ac64" d="M 1045.148438 10.480469 C 1042.726562 11.515625 1040.417969 13.128906 1038.457031 15.085938 L 1030.609375 23.03125 L 1022.878906 30.863281 C 1026.6875 33.742188 1031.300781 35.238281 1036.148438 35.238281 C 1039.378906 35.238281 1042.496094 34.546875 1045.265625 33.28125 C 1047.6875 32.128906 1049.996094 30.632812 1051.957031 28.675781 L 1067.648438 12.898438 C 1060.957031 8.0625 1052.304688 7.253906 1045.148438 10.480469 Z M 1045.148438 10.480469 " fill-opacity="1" fill-rule="nonzero"/><path fill="#e9ac64" d="M 1081.613281 10.480469 C 1079.1875 11.515625 1076.878906 13.128906 1074.917969 15.085938 L 1067.074219 23.03125 L 1059.339844 30.863281 C 1063.148438 33.742188 1067.765625 35.238281 1072.609375 35.238281 C 1075.84375 35.238281 1078.957031 34.546875 1081.726562 33.28125 C 1084.148438 32.128906 1086.457031 30.632812 1088.417969 28.675781 L 1104.113281 12.898438 C 1097.417969 8.0625 1088.882812 7.253906 1081.613281 10.480469 Z M 1081.613281 10.480469 " fill-opacity="1" fill-rule="nonzero"/><path fill="#e9ac64" d="M 972.109375 10.480469 C 969.683594 11.515625 967.378906 13.128906 965.417969 15.085938 L 957.570312 23.03125 L 949.839844 30.863281 C 953.648438 33.742188 958.261719 35.238281 963.109375 35.238281 C 966.339844 35.238281 969.453125 34.546875 972.222656 33.28125 C 974.648438 32.128906 976.953125 30.632812 978.917969 28.675781 L 994.609375 12.898438 C 987.917969 8.0625 979.261719 7.253906 972.109375 10.480469 Z M 972.109375 10.480469 " fill-opacity="1" fill-rule="nonzero"/><g clip-path="url(#658db5337b)"><path fill="#7d5148" d="M 2863.519531 8.0625 C 2855.671875 1.726562 2845.289062 0.113281 2836.171875 3.109375 C 2832.941406 4.144531 2829.828125 5.875 2827.058594 8.0625 C 2819.210938 1.726562 2808.824219 0.113281 2799.710938 3.109375 C 2796.480469 4.144531 2793.363281 5.875 2790.59375 8.0625 C 2782.75 1.726562 2772.363281 0.113281 2763.246094 3.109375 C 2760.015625 4.144531 2756.902344 5.875 2754.132812 8.0625 C 2746.285156 1.726562 2735.902344 0.113281 2726.785156 3.109375 C 2723.554688 4.144531 2720.4375 5.875 2717.667969 8.0625 C 2709.824219 1.726562 2699.4375 0.113281 2690.324219 3.109375 C 2687.09375 4.144531 2683.976562 5.875 2681.207031 8.0625 C 2673.359375 1.726562 2662.976562 0.113281 2653.859375 3.109375 C 2650.628906 4.144531 2647.515625 5.875 2644.746094 8.0625 C 2636.898438 1.726562 2626.511719 0.113281 2617.398438 3.109375 C 2614.167969 4.144531 2611.050781 5.875 2608.28125 8.0625 C 2600.4375 1.726562 2590.050781 0.113281 2580.933594 3.109375 C 2577.703125 4.144531 2574.589844 5.875 2571.820312 8.0625 C 2563.972656 1.726562 2553.589844 0.113281 2544.472656 3.109375 C 2541.242188 4.144531 2538.125 5.875 2535.355469 8.0625 C 2527.511719 1.726562 2517.125 0.113281 2508.011719 3.109375 C 2504.78125 4.144531 2501.664062 5.875 2498.894531 8.0625 C 2491.046875 1.726562 2480.664062 0.113281 2471.546875 3.109375 C 2468.316406 4.144531 2465.203125 5.875 2462.433594 8.0625 C 2454.585938 1.726562 2444.199219 0.113281 2435.085938 3.109375 C 2431.855469 4.144531 2428.738281 5.875 2425.96875 8.0625 C 2418.125 1.726562 2407.738281 0.113281 2398.621094 3.109375 C 2395.390625 4.144531 2392.277344 5.875 2389.507812 8.0625 C 2381.660156 1.726562 2371.277344 0.113281 2362.160156 3.109375 C 2358.929688 4.144531 2355.8125 5.875 2353.042969 8.0625 C 2345.199219 1.726562 2334.8125 0.113281 2325.699219 3.109375 C 2322.464844 4.144531 2319.351562 5.875 2316.582031 8.0625 C 2308.734375 1.726562 2298.351562 0.113281 2289.234375 3.109375 C 2286.003906 4.144531 2282.886719 5.875 2280.121094 8.0625 C 2272.273438 1.726562 2261.886719 0.113281 2252.773438 3.109375 C 2249.542969 4.144531 2246.425781 5.875 2243.65625 8.0625 C 2235.808594 1.726562 2225.425781 0.113281 2216.308594 3.109375 C 2213.078125 4.144531 2209.964844 5.875 2207.195312 8.0625 C 2199.347656 1.726562 2188.964844 0.113281 2179.847656 3.109375 C 2176.617188 4.144531 2173.5 5.875 2170.730469 8.0625 C 2162.886719 1.726562 2152.5 0.113281 2143.382812 3.109375 C 2140.152344 4.144531 2137.039062 5.875 2134.269531 8.0625 C 2126.421875 1.726562 2116.039062 0.113281 2106.921875 3.109375 C 2103.691406 4.144531 2100.574219 5.875 2097.804688 8.0625 C 2089.960938 1.726562 2079.574219 0.113281 2070.460938 3.109375 C 2067.230469 4.144531 2064.113281 5.875 2061.34375 8.0625 C 2052.34375 1.726562 2041.960938 0 2032.726562 3.109375 C 2029.496094 4.144531 2026.382812 5.875 2023.613281 8.0625 C 2015.765625 1.726562 2005.382812 0.113281 1996.265625 3.109375 C 1993.035156 4.144531 1989.917969 5.875 1987.148438 8.0625 C 1979.304688 1.726562 1968.917969 0.113281 1959.804688 3.109375 C 1956.570312 4.144531 1953.457031 5.875 1950.6875 8.0625 C 1942.726562 1.726562 1932.339844 0 1923.226562 3.109375 C 1919.996094 4.144531 1916.878906 5.875 1914.109375 8.0625 C 1906.261719 1.726562 1895.878906 0.113281 1886.761719 3.109375 C 1883.53125 4.144531 1880.417969 5.875 1877.648438 8.0625 C 1869.800781 1.726562 1859.414062 0.113281 1850.300781 3.109375 C 1847.070312 4.144531 1843.953125 5.875 1841.183594 8.0625 C 1833.339844 1.726562 1822.953125 0.113281 1813.835938 3.109375 C 1810.605469 4.144531 1807.492188 5.875 1804.722656 8.0625 C 1796.875 1.726562 1786.492188 0.113281 1777.375 3.109375 C 1774.144531 4.144531 1771.027344 5.875 1768.257812 8.0625 C 1760.414062 1.726562 1750.027344 0.113281 1740.914062 3.109375 C 1737.683594 4.144531 1734.566406 5.875 1731.796875 8.0625 C 1723.949219 1.726562 1713.566406 0.113281 1704.449219 3.109375 C 1701.21875 4.144531 1698.105469 5.875 1695.335938 8.0625 C 1687.488281 1.726562 1677.101562 0.113281 1667.988281 3.109375 C 1664.757812 4.144531 1661.640625 5.875 1658.871094 8.0625 C 1651.027344 1.726562 1640.640625 0.113281 1631.523438 3.109375 C 1628.292969 4.144531 1625.179688 5.875 1622.410156 8.0625 C 1614.5625 1.726562 1604.179688 0.113281 1595.0625 3.109375 C 1591.832031 4.144531 1588.714844 5.875 1585.945312 8.0625 C 1578.101562 1.726562 1567.714844 0.113281 1558.601562 3.109375 C 1555.371094 4.144531 1552.253906 5.875 1549.484375 8.0625 C 1541.636719 1.726562 1531.253906 0.113281 1522.136719 3.109375 C 1518.90625 4.144531 1515.792969 5.875 1513.023438 8.0625 C 1505.175781 1.726562 1494.789062 0.113281 1485.675781 3.109375 C 1482.445312 4.144531 1479.328125 5.875 1476.558594 8.0625 C 1468.714844 1.726562 1458.328125 0.113281 1449.210938 3.109375 C 1445.980469 4.144531 1442.867188 5.875 1440.097656 8.0625 C 1431.441406 1.726562 1421.058594 0 1411.941406 3.109375 L 1411.941406 40.765625 C 1415.289062 39.730469 1418.289062 38.003906 1421.058594 35.816406 C 1426.25 39.960938 1432.597656 42.265625 1439.289062 42.265625 C 1442.40625 42.265625 1445.519531 41.804688 1448.40625 40.765625 C 1451.75 39.730469 1454.75 38.003906 1457.519531 35.816406 C 1462.710938 39.960938 1469.058594 42.265625 1475.75 42.265625 C 1478.867188 42.265625 1481.984375 41.804688 1484.867188 40.765625 C 1488.214844 39.730469 1491.214844 38.003906 1493.984375 35.816406 C 1499.175781 39.960938 1505.523438 42.265625 1512.214844 42.265625 C 1515.328125 42.265625 1518.445312 41.804688 1521.328125 40.765625 C 1524.675781 39.730469 1527.675781 38.003906 1530.445312 35.816406 C 1535.636719 39.960938 1541.984375 42.265625 1548.675781 42.265625 C 1551.792969 42.265625 1554.90625 41.804688 1557.792969 40.765625 C 1561.136719 39.730469 1564.136719 38.003906 1566.90625 35.816406 C 1572.101562 39.960938 1578.445312 42.265625 1585.140625 42.265625 C 1588.253906 42.265625 1591.371094 41.804688 1594.253906 40.765625 C 1597.601562 39.730469 1600.601562 38.003906 1603.371094 35.816406 C 1608.5625 39.960938 1614.910156 42.265625 1621.601562 42.265625 C 1624.71875 42.265625 1627.832031 41.804688 1630.71875 40.765625 C 1634.0625 39.730469 1637.0625 38.003906 1639.832031 35.816406 C 1645.023438 39.960938 1651.371094 42.265625 1658.0625 42.265625 C 1661.179688 42.265625 1664.296875 41.804688 1667.179688 40.765625 C 1670.527344 39.730469 1673.527344 38.003906 1676.296875 35.816406 C 1681.488281 39.960938 1687.835938 42.265625 1694.527344 42.265625 C 1697.640625 42.265625 1700.757812 41.804688 1703.640625 40.765625 C 1706.988281 39.730469 1709.988281 38.003906 1712.757812 35.816406 C 1717.949219 39.960938 1724.296875 42.265625 1730.988281 42.265625 C 1734.105469 42.265625 1737.21875 41.804688 1740.105469 40.765625 C 1743.449219 39.730469 1746.449219 38.003906 1749.21875 35.816406 C 1754.414062 39.960938 1760.757812 42.265625 1767.453125 42.265625 C 1770.566406 42.265625 1773.683594 41.804688 1776.566406 40.765625 C 1779.914062 39.730469 1782.914062 38.003906 1785.683594 35.816406 C 1790.875 39.960938 1797.222656 42.265625 1803.914062 42.265625 C 1807.03125 42.265625 1810.144531 41.804688 1813.03125 40.765625 C 1816.375 39.730469 1819.375 38.003906 1822.144531 35.816406 C 1827.339844 39.960938 1833.683594 42.265625 1840.375 42.265625 C 1843.492188 42.265625 1846.609375 41.804688 1849.492188 40.765625 C 1852.839844 39.730469 1855.839844 38.003906 1858.609375 35.816406 C 1863.800781 39.960938 1870.148438 42.265625 1876.839844 42.265625 C 1879.953125 42.265625 1883.070312 41.804688 1885.953125 40.765625 C 1889.300781 39.730469 1892.300781 38.003906 1895.070312 35.816406 C 1900.261719 39.960938 1906.609375 42.265625 1913.300781 42.265625 C 1916.417969 42.265625 1919.53125 41.804688 1922.417969 40.765625 C 1925.761719 39.730469 1928.761719 38.003906 1931.53125 35.816406 C 1936.726562 39.960938 1943.070312 42.265625 1949.765625 42.265625 C 1952.878906 42.265625 1955.996094 41.804688 1958.878906 40.765625 C 1962.226562 39.730469 1965.226562 38.003906 1967.996094 35.816406 C 1973.1875 39.960938 1979.535156 42.265625 1986.226562 42.265625 C 1989.34375 42.265625 1992.457031 41.804688 1995.34375 40.765625 C 1998.6875 39.730469 2001.6875 38.003906 2004.457031 35.816406 C 2009.652344 39.960938 2015.996094 42.265625 2022.6875 42.265625 C 2025.804688 42.265625 2028.921875 41.804688 2031.804688 40.765625 C 2035.152344 39.730469 2038.152344 38.003906 2040.921875 35.816406 C 2046.113281 39.960938 2052.460938 42.265625 2059.152344 42.265625 C 2062.265625 42.265625 2065.382812 41.804688 2068.265625 40.765625 C 2071.613281 39.730469 2074.613281 38.003906 2077.382812 35.816406 C 2082.574219 39.960938 2088.921875 42.265625 2095.613281 42.265625 C 2098.730469 42.265625 2101.84375 41.804688 2104.730469 40.765625 C 2108.078125 39.730469 2111.078125 38.003906 2113.84375 35.816406 C 2119.039062 39.960938 2125.382812 42.265625 2132.078125 42.265625 C 2135.191406 42.265625 2138.308594 41.804688 2141.191406 40.765625 C 2144.539062 39.730469 2147.539062 38.003906 2150.308594 35.816406 C 2155.5 39.960938 2161.847656 42.265625 2168.539062 42.265625 C 2171.65625 42.265625 2174.769531 41.804688 2177.65625 40.765625 C 2181 39.730469 2184 38.003906 2186.769531 35.816406 C 2191.964844 39.960938 2198.308594 42.265625 2205.003906 42.265625 C 2208.117188 42.265625 2211.234375 41.804688 2214.117188 40.765625 C 2217.464844 39.730469 2220.464844 38.003906 2223.234375 35.816406 C 2228.425781 39.960938 2234.773438 42.265625 2241.464844 42.265625 C 2244.582031 42.265625 2247.695312 41.804688 2250.582031 40.765625 C 2253.925781 39.730469 2256.925781 38.003906 2259.695312 35.816406 C 2264.886719 39.960938 2271.234375 42.265625 2277.925781 42.265625 C 2281.042969 42.265625 2284.15625 41.804688 2287.042969 40.765625 C 2290.390625 39.730469 2293.390625 38.003906 2296.160156 35.816406 C 2301.351562 39.960938 2307.695312 42.265625 2314.390625 42.265625 C 2317.503906 42.265625 2320.621094 41.804688 2323.503906 40.765625 C 2326.851562 39.730469 2329.851562 38.003906 2332.621094 35.816406 C 2337.8125 39.960938 2344.160156 42.265625 2350.851562 42.265625 C 2353.96875 42.265625 2357.082031 41.804688 2359.96875 40.765625 C 2363.3125 39.730469 2366.3125 38.003906 2369.082031 35.816406 C 2374.277344 39.960938 2380.621094 42.265625 2387.316406 42.265625 C 2390.429688 42.265625 2393.546875 41.804688 2396.429688 40.765625 C 2399.777344 39.730469 2402.777344 38.003906 2405.546875 35.816406 C 2410.738281 39.960938 2417.085938 42.265625 2423.777344 42.265625 C 2426.894531 42.265625 2430.007812 41.804688 2432.894531 40.765625 C 2436.238281 39.730469 2439.238281 38.003906 2442.007812 35.816406 C 2447.203125 39.960938 2453.546875 42.265625 2460.238281 42.265625 C 2463.355469 42.265625 2466.472656 41.804688 2469.355469 40.765625 C 2472.703125 39.730469 2475.703125 38.003906 2478.472656 35.816406 C 2483.664062 39.960938 2490.011719 42.265625 2496.703125 42.265625 C 2499.816406 42.265625 2502.933594 41.804688 2505.816406 40.765625 C 2509.164062 39.730469 2512.164062 38.003906 2514.933594 35.816406 C 2520.125 39.960938 2526.472656 42.265625 2533.164062 42.265625 C 2536.28125 42.265625 2539.394531 41.804688 2542.28125 40.765625 C 2545.628906 39.730469 2548.628906 38.003906 2551.394531 35.816406 C 2556.589844 39.960938 2562.933594 42.265625 2569.628906 42.265625 C 2572.742188 42.265625 2575.859375 41.804688 2578.742188 40.765625 C 2582.089844 39.730469 2585.089844 38.003906 2587.859375 35.816406 C 2593.050781 39.960938 2599.398438 42.265625 2606.089844 42.265625 C 2609.207031 42.265625 2612.320312 41.804688 2615.207031 40.765625 C 2618.550781 39.730469 2621.550781 38.003906 2624.320312 35.816406 C 2629.515625 39.960938 2635.859375 42.265625 2642.554688 42.265625 C 2645.667969 42.265625 2648.785156 41.804688 2651.667969 40.765625 C 2655.015625 39.730469 2658.015625 38.003906 2660.785156 35.816406 C 2665.976562 39.960938 2672.324219 42.265625 2679.015625 42.265625 C 2682.132812 42.265625 2685.246094 41.804688 2688.132812 40.765625 C 2691.476562 39.730469 2694.476562 38.003906 2697.246094 35.816406 C 2702.4375 39.960938 2708.785156 42.265625 2715.476562 42.265625 C 2718.59375 42.265625 2721.710938 41.804688 2724.59375 40.765625 C 2727.941406 39.730469 2730.941406 38.003906 2733.710938 35.816406 C 2738.902344 39.960938 2745.25 42.265625 2751.941406 42.265625 C 2755.054688 42.265625 2758.171875 41.804688 2761.054688 40.765625 C 2764.402344 39.730469 2767.402344 38.003906 2770.171875 35.816406 C 2775.363281 39.960938 2781.710938 42.265625 2788.402344 42.265625 C 2791.519531 42.265625 2794.632812 41.804688 2797.519531 40.765625 C 2800.867188 39.730469 2803.867188 38.003906 2806.632812 35.816406 C 2811.828125 39.960938 2818.171875 42.265625 2824.867188 42.265625 C 2827.980469 42.265625 2831.097656 41.804688 2833.980469 40.765625 C 2837.328125 39.730469 2840.328125 38.003906 2843.097656 35.816406 C 2848.289062 39.960938 2854.636719 42.265625 2861.328125 42.265625 C 2864.445312 42.265625 2867.558594 41.804688 2870.445312 40.765625 L 2870.445312 3.109375 C 2869.40625 4.144531 2866.40625 5.757812 2863.519531 8.0625 Z M 2863.519531 8.0625 " fill-opacity="1" fill-rule="nonzero"/></g><path fill="#e9ac64" d="M 1886.648438 10.480469 C 1884.222656 11.515625 1881.917969 13.128906 1879.953125 15.085938 L 1872.109375 23.03125 L 1864.378906 30.863281 C 1868.183594 33.742188 1872.800781 35.238281 1877.648438 35.238281 C 1880.878906 35.238281 1883.992188 34.546875 1886.761719 33.28125 C 1889.1875 32.128906 1891.492188 30.632812 1893.457031 28.675781 L 1909.148438 12.898438 C 1902.457031 8.0625 1893.917969 7.253906 1886.648438 10.480469 Z M 1886.648438 10.480469 " fill-opacity="1" fill-rule="nonzero"/><path fill="#e9ac64" d="M 1923.226562 10.480469 C 1920.800781 11.515625 1918.496094 13.128906 1916.53125 15.085938 L 1908.6875 23.03125 L 1900.957031 30.863281 C 1904.761719 33.742188 1909.378906 35.238281 1914.226562 35.238281 C 1917.457031 35.238281 1920.570312 34.546875 1923.339844 33.28125 C 1925.765625 32.128906 1928.070312 30.632812 1930.03125 28.675781 L 1945.726562 12.898438 C 1939.035156 8.0625 1930.378906 7.253906 1923.226562 10.480469 Z M 1923.226562 10.480469 " fill-opacity="1" fill-rule="nonzero"/><path fill="#e9ac64" d="M 1850.183594 10.480469 C 1847.761719 11.515625 1845.453125 13.128906 1843.492188 15.085938 L 1835.644531 23.03125 L 1827.914062 30.863281 C 1831.722656 33.742188 1836.339844 35.238281 1841.183594 35.238281 C 1844.414062 35.238281 1847.53125 34.546875 1850.300781 33.28125 C 1852.722656 32.128906 1855.03125 30.632812 1856.992188 28.675781 L 1872.683594 12.898438 C 1865.992188 8.0625 1857.339844 7.253906 1850.183594 10.480469 Z M 1850.183594 10.480469 " fill-opacity="1" fill-rule="nonzero"/><path fill="#e9ac64" d="M 1813.605469 10.480469 C 1811.183594 11.515625 1808.875 13.128906 1806.914062 15.085938 L 1799.066406 23.03125 L 1791.335938 30.863281 C 1795.144531 33.742188 1799.761719 35.238281 1804.605469 35.238281 C 1807.835938 35.238281 1810.953125 34.546875 1813.722656 33.28125 C 1816.144531 32.128906 1818.453125 30.632812 1820.414062 28.675781 L 1836.109375 12.898438 C 1829.414062 8.0625 1820.875 7.253906 1813.605469 10.480469 Z M 1813.605469 10.480469 " fill-opacity="1" fill-rule="nonzero"/><path fill="#e9ac64" d="M 1959.6875 10.480469 C 1957.265625 11.515625 1954.957031 13.128906 1952.996094 15.085938 L 1945.148438 23.03125 L 1937.417969 30.863281 C 1941.226562 33.742188 1945.839844 35.238281 1950.6875 35.238281 C 1953.917969 35.238281 1957.035156 34.546875 1959.804688 33.28125 C 1962.226562 32.128906 1964.535156 30.632812 1966.496094 28.675781 L 1982.1875 12.898438 C 1975.496094 8.0625 1966.957031 7.253906 1959.6875 10.480469 Z M 1959.6875 10.480469 " fill-opacity="1" fill-rule="nonzero"/><path fill="#e9ac64" d="M 2069.304688 10.480469 C 2066.882812 11.515625 2064.574219 13.128906 2062.613281 15.085938 L 2054.765625 23.03125 L 2047.035156 30.863281 C 2050.84375 33.742188 2055.460938 35.238281 2060.304688 35.238281 C 2063.535156 35.238281 2066.652344 34.546875 2069.421875 33.28125 C 2071.84375 32.128906 2074.152344 30.632812 2076.113281 28.675781 L 2091.808594 12.898438 C 2085.113281 8.0625 2076.460938 7.253906 2069.304688 10.480469 Z M 2069.304688 10.480469 " fill-opacity="1" fill-rule="nonzero"/><path fill="#e9ac64" d="M 1740.566406 10.480469 C 1738.144531 11.515625 1735.835938 13.128906 1733.875 15.085938 L 1726.027344 23.03125 L 1718.296875 30.863281 C 1722.105469 33.742188 1726.71875 35.238281 1731.566406 35.238281 C 1734.796875 35.238281 1737.914062 34.546875 1740.683594 33.28125 C 1743.105469 32.128906 1745.414062 30.632812 1747.375 28.675781 L 1763.066406 12.898438 C 1756.375 8.0625 1747.835938 7.253906 1740.566406 10.480469 Z M 1740.566406 10.480469 " fill-opacity="1" fill-rule="nonzero"/><path fill="#e9ac64" d="M 2032.726562 10.480469 C 2030.304688 11.515625 2027.996094 13.128906 2026.035156 15.085938 L 2018.1875 23.03125 L 2010.457031 30.863281 C 2014.265625 33.742188 2018.882812 35.238281 2023.726562 35.238281 C 2026.957031 35.238281 2030.074219 34.546875 2032.84375 33.28125 C 2035.265625 32.128906 2037.574219 30.632812 2039.535156 28.675781 L 2055.230469 12.898438 C 2048.535156 8.0625 2039.996094 7.253906 2032.726562 10.480469 Z M 2032.726562 10.480469 " fill-opacity="1" fill-rule="nonzero"/><path fill="#e9ac64" d="M 1996.265625 10.480469 C 1993.84375 11.515625 1991.535156 13.128906 1989.574219 15.085938 L 1981.726562 23.03125 L 1973.996094 30.863281 C 1977.804688 33.742188 1982.417969 35.238281 1987.265625 35.238281 C 1990.496094 35.238281 1993.613281 34.546875 1996.382812 33.28125 C 1998.804688 32.128906 2001.113281 30.632812 2003.074219 28.675781 L 2018.765625 12.898438 C 2012.074219 8.0625 2003.417969 7.253906 1996.265625 10.480469 Z M 1996.265625 10.480469 " fill-opacity="1" fill-rule="nonzero"/><path fill="#e9ac64" d="M 1521.445312 10.480469 C 1519.023438 11.515625 1516.714844 13.128906 1514.753906 15.085938 L 1506.90625 23.03125 L 1499.175781 30.863281 C 1502.984375 33.742188 1507.597656 35.238281 1512.445312 35.238281 C 1515.675781 35.238281 1518.792969 34.546875 1521.558594 33.28125 C 1523.984375 32.128906 1526.292969 30.632812 1528.253906 28.675781 L 1543.945312 12.898438 C 1537.367188 8.0625 1528.714844 7.253906 1521.445312 10.480469 Z M 1521.445312 10.480469 " fill-opacity="1" fill-rule="nonzero"/><path fill="#e9ac64" d="M 1484.984375 10.480469 C 1482.558594 11.515625 1480.25 13.128906 1478.289062 15.085938 L 1470.445312 23.03125 L 1462.710938 30.863281 C 1466.519531 33.742188 1471.136719 35.238281 1475.980469 35.238281 C 1479.214844 35.238281 1482.328125 34.546875 1485.097656 33.28125 C 1487.519531 32.128906 1489.828125 30.632812 1491.789062 28.675781 L 1507.367188 12.898438 C 1500.789062 8.0625 1492.253906 7.253906 1484.984375 10.480469 Z M 1484.984375 10.480469 " fill-opacity="1" fill-rule="nonzero"/><path fill="#e9ac64" d="M 2105.769531 10.480469 C 2103.34375 11.515625 2101.039062 13.128906 2099.074219 15.085938 L 2091.230469 23.03125 L 2083.5 30.863281 C 2087.304688 33.742188 2091.921875 35.238281 2096.769531 35.238281 C 2100 35.238281 2103.113281 34.546875 2105.882812 33.28125 C 2108.308594 32.128906 2110.613281 30.632812 2112.578125 28.675781 L 2128.269531 12.898438 C 2121.578125 8.0625 2113.039062 7.253906 2105.769531 10.480469 Z M 2105.769531 10.480469 " fill-opacity="1" fill-rule="nonzero"/><path fill="#e9ac64" d="M 1448.40625 10.480469 C 1445.980469 11.515625 1443.671875 13.128906 1441.710938 15.085938 L 1433.867188 23.03125 L 1426.136719 30.863281 C 1429.941406 33.742188 1434.558594 35.238281 1439.40625 35.238281 C 1442.636719 35.238281 1445.75 34.546875 1448.519531 33.28125 C 1450.941406 32.128906 1453.25 30.632812 1455.210938 28.675781 L 1470.789062 12.898438 C 1464.328125 8.0625 1455.675781 7.253906 1448.40625 10.480469 Z M 1448.40625 10.480469 " fill-opacity="1" fill-rule="nonzero"/><path fill="#e9ac64" d="M 1434.328125 12.898438 C 1427.75 8.0625 1419.210938 7.253906 1411.941406 10.480469 L 1411.941406 33.28125 C 1414.367188 32.128906 1416.671875 30.632812 1418.632812 28.675781 Z M 1434.328125 12.898438 " fill-opacity="1" fill-rule="nonzero"/><path fill="#e9ac64" d="M 2858.097656 23.03125 L 2850.367188 30.863281 C 2854.171875 33.742188 2858.789062 35.238281 2863.636719 35.238281 C 2866.867188 35.238281 2869.980469 34.546875 2872.75 33.28125 L 2872.75 10.480469 C 2870.328125 11.515625 2868.019531 13.128906 2866.058594 15.085938 Z M 2858.097656 23.03125 " fill-opacity="1" fill-rule="nonzero"/><path fill="#e9ac64" d="M 1631.0625 10.480469 C 1628.640625 11.515625 1626.332031 13.128906 1624.371094 15.085938 L 1616.523438 23.03125 L 1608.792969 30.863281 C 1612.601562 33.742188 1617.21875 35.238281 1622.0625 35.238281 C 1625.292969 35.238281 1628.410156 34.546875 1631.179688 33.28125 C 1633.601562 32.128906 1635.910156 30.632812 1637.871094 28.675781 L 1653.5625 12.898438 C 1646.871094 8.0625 1638.332031 7.253906 1631.0625 10.480469 Z M 1631.0625 10.480469 " fill-opacity="1" fill-rule="nonzero"/><path fill="#e9ac64" d="M 1667.527344 10.480469 C 1665.101562 11.515625 1662.796875 13.128906 1660.832031 15.085938 L 1652.988281 23.03125 L 1645.257812 30.863281 C 1649.0625 33.742188 1653.679688 35.238281 1658.527344 35.238281 C 1661.757812 35.238281 1664.871094 34.546875 1667.640625 33.28125 C 1670.066406 32.128906 1672.371094 30.632812 1674.332031 28.675781 L 1690.027344 12.898438 C 1683.335938 8.0625 1674.796875 7.253906 1667.527344 10.480469 Z M 1667.527344 10.480469 " fill-opacity="1" fill-rule="nonzero"/><path fill="#e9ac64" d="M 1558.023438 10.480469 C 1555.601562 11.515625 1553.292969 13.128906 1551.332031 15.085938 L 1543.484375 23.03125 L 1535.753906 30.863281 C 1539.5625 33.742188 1544.175781 35.238281 1549.023438 35.238281 C 1552.253906 35.238281 1555.367188 34.546875 1558.136719 33.28125 C 1560.5625 32.128906 1562.871094 30.632812 1564.832031 28.675781 L 1580.410156 12.898438 C 1573.832031 8.0625 1565.292969 7.253906 1558.023438 10.480469 Z M 1558.023438 10.480469 " fill-opacity="1" fill-rule="nonzero"/><path fill="#e9ac64" d="M 1704.105469 10.480469 C 1701.679688 11.515625 1699.371094 13.128906 1697.410156 15.085938 L 1689.566406 23.03125 L 1681.835938 30.863281 C 1685.640625 33.742188 1690.257812 35.238281 1695.105469 35.238281 C 1698.335938 35.238281 1701.449219 34.546875 1704.21875 33.28125 C 1706.640625 32.128906 1708.949219 30.632812 1710.910156 28.675781 L 1726.605469 12.898438 C 1719.910156 8.0625 1711.375 7.253906 1704.105469 10.480469 Z M 1704.105469 10.480469 " fill-opacity="1" fill-rule="nonzero"/><path fill="#e9ac64" d="M 1594.484375 10.480469 C 1592.0625 11.515625 1589.753906 13.128906 1587.792969 15.085938 L 1579.945312 23.03125 L 1572.214844 30.863281 C 1576.023438 33.742188 1580.640625 35.238281 1585.484375 35.238281 C 1588.714844 35.238281 1591.832031 34.546875 1594.601562 33.28125 C 1597.023438 32.128906 1599.332031 30.632812 1601.292969 28.675781 L 1616.984375 12.898438 C 1610.292969 8.0625 1601.753906 7.253906 1594.484375 10.480469 Z M 1594.484375 10.480469 " fill-opacity="1" fill-rule="nonzero"/><path fill="#e9ac64" d="M 1777.144531 10.480469 C 1774.722656 11.515625 1772.414062 13.128906 1770.453125 15.085938 L 1762.605469 23.03125 L 1754.875 30.863281 C 1758.683594 33.742188 1763.296875 35.238281 1768.144531 35.238281 C 1771.375 35.238281 1774.492188 34.546875 1777.257812 33.28125 C 1779.683594 32.128906 1781.992188 30.632812 1783.953125 28.675781 L 1799.644531 12.898438 C 1792.953125 8.0625 1784.414062 7.253906 1777.144531 10.480469 Z M 1777.144531 10.480469 " fill-opacity="1" fill-rule="nonzero"/><path fill="#e9ac64" d="M 2690.09375 10.480469 C 2687.667969 11.515625 2685.359375 13.128906 2683.398438 15.085938 L 2675.554688 23.03125 L 2667.820312 30.863281 C 2671.628906 33.742188 2676.246094 35.238281 2681.089844 35.238281 C 2684.324219 35.238281 2687.4375 34.546875 2690.207031 33.28125 C 2692.628906 32.128906 2694.9375 30.632812 2696.898438 28.675781 L 2712.59375 12.898438 C 2705.898438 8.0625 2697.363281 7.253906 2690.09375 10.480469 Z M 2690.09375 10.480469 " fill-opacity="1" fill-rule="nonzero"/><path fill="#e9ac64" d="M 2617.050781 10.480469 C 2614.628906 11.515625 2612.320312 13.128906 2610.359375 15.085938 L 2602.511719 23.03125 L 2594.78125 30.863281 C 2598.589844 33.742188 2603.207031 35.238281 2608.050781 35.238281 C 2611.28125 35.238281 2614.398438 34.546875 2617.167969 33.28125 C 2619.589844 32.128906 2621.898438 30.632812 2623.859375 28.675781 L 2639.550781 12.898438 C 2632.859375 8.0625 2624.320312 7.253906 2617.050781 10.480469 Z M 2617.050781 10.480469 " fill-opacity="1" fill-rule="nonzero"/><path fill="#e9ac64" d="M 2653.628906 10.480469 C 2651.207031 11.515625 2648.898438 13.128906 2646.9375 15.085938 L 2639.089844 23.03125 L 2631.359375 30.863281 C 2635.167969 33.742188 2639.78125 35.238281 2644.628906 35.238281 C 2647.859375 35.238281 2650.976562 34.546875 2653.746094 33.28125 C 2656.167969 32.128906 2658.476562 30.632812 2660.4375 28.675781 L 2676.128906 12.898438 C 2669.4375 8.0625 2660.785156 7.253906 2653.628906 10.480469 Z M 2653.628906 10.480469 " fill-opacity="1" fill-rule="nonzero"/><path fill="#e9ac64" d="M 2580.589844 10.480469 C 2578.164062 11.515625 2575.859375 13.128906 2573.898438 15.085938 L 2566.050781 23.03125 L 2558.320312 30.863281 C 2562.128906 33.742188 2566.742188 35.238281 2571.589844 35.238281 C 2574.820312 35.238281 2577.933594 34.546875 2580.703125 33.28125 C 2583.128906 32.128906 2585.433594 30.632812 2587.398438 28.675781 L 2603.089844 12.898438 C 2596.398438 8.0625 2587.742188 7.253906 2580.589844 10.480469 Z M 2580.589844 10.480469 " fill-opacity="1" fill-rule="nonzero"/><path fill="#e9ac64" d="M 2544.011719 10.480469 C 2541.589844 11.515625 2539.28125 13.128906 2537.320312 15.085938 L 2529.472656 23.03125 L 2521.742188 30.863281 C 2525.550781 33.742188 2530.164062 35.238281 2535.011719 35.238281 C 2538.242188 35.238281 2541.355469 34.546875 2544.125 33.28125 C 2546.550781 32.128906 2548.859375 30.632812 2550.820312 28.675781 L 2566.511719 12.898438 C 2559.820312 8.0625 2551.28125 7.253906 2544.011719 10.480469 Z M 2544.011719 10.480469 " fill-opacity="1" fill-rule="nonzero"/><path fill="#e9ac64" d="M 2726.671875 10.480469 C 2724.246094 11.515625 2721.9375 13.128906 2719.976562 15.085938 L 2712.132812 23.03125 L 2704.398438 30.863281 C 2708.207031 33.742188 2712.824219 35.238281 2717.667969 35.238281 C 2720.902344 35.238281 2724.015625 34.546875 2726.785156 33.28125 C 2729.207031 32.128906 2731.515625 30.632812 2733.476562 28.675781 L 2749.171875 12.898438 C 2742.476562 8.0625 2733.824219 7.253906 2726.671875 10.480469 Z M 2726.671875 10.480469 " fill-opacity="1" fill-rule="nonzero"/><path fill="#e9ac64" d="M 2507.546875 10.480469 C 2505.125 11.515625 2502.816406 13.128906 2500.855469 15.085938 L 2493.011719 23.03125 L 2485.277344 30.863281 C 2489.085938 33.742188 2493.703125 35.238281 2498.546875 35.238281 C 2501.78125 35.238281 2504.894531 34.546875 2507.664062 33.28125 C 2510.085938 32.128906 2512.394531 30.632812 2514.355469 28.675781 L 2530.050781 12.898438 C 2523.355469 8.0625 2514.703125 7.253906 2507.546875 10.480469 Z M 2507.546875 10.480469 " fill-opacity="1" fill-rule="nonzero"/><path fill="#e9ac64" d="M 2799.710938 10.480469 C 2797.289062 11.515625 2794.980469 13.128906 2793.019531 15.085938 L 2785.171875 23.03125 L 2777.441406 30.863281 C 2781.25 33.742188 2785.863281 35.238281 2790.710938 35.238281 C 2793.941406 35.238281 2797.054688 34.546875 2799.824219 33.28125 C 2802.25 32.128906 2804.554688 30.632812 2806.519531 28.675781 L 2821.980469 12.898438 C 2815.519531 8.0625 2806.863281 7.253906 2799.710938 10.480469 Z M 2799.710938 10.480469 " fill-opacity="1" fill-rule="nonzero"/><path fill="#e9ac64" d="M 2836.171875 10.480469 C 2833.75 11.515625 2831.441406 13.128906 2829.480469 15.085938 L 2821.632812 23.03125 L 2813.902344 30.863281 C 2817.710938 33.742188 2822.328125 35.238281 2827.171875 35.238281 C 2830.402344 35.238281 2833.519531 34.546875 2836.289062 33.28125 C 2838.710938 32.128906 2841.019531 30.632812 2842.980469 28.675781 L 2858.671875 12.898438 C 2851.980469 8.0625 2843.441406 7.253906 2836.171875 10.480469 Z M 2836.171875 10.480469 " fill-opacity="1" fill-rule="nonzero"/><path fill="#e9ac64" d="M 2763.132812 10.480469 C 2760.710938 11.515625 2758.402344 13.128906 2756.441406 15.085938 L 2748.59375 23.03125 L 2740.863281 30.863281 C 2744.671875 33.742188 2749.285156 35.238281 2754.132812 35.238281 C 2757.363281 35.238281 2760.480469 34.546875 2763.246094 33.28125 C 2765.671875 32.128906 2767.980469 30.632812 2769.941406 28.675781 L 2785.632812 12.898438 C 2778.941406 8.0625 2770.402344 7.253906 2763.132812 10.480469 Z M 2763.132812 10.480469 " fill-opacity="1" fill-rule="nonzero"/><path fill="#e9ac64" d="M 2324.890625 10.480469 C 2322.46875 11.515625 2320.160156 13.128906 2318.199219 15.085938 L 2310.351562 23.03125 L 2302.621094 30.863281 C 2306.429688 33.742188 2311.042969 35.238281 2315.890625 35.238281 C 2319.121094 35.238281 2322.234375 34.546875 2325.003906 33.28125 C 2327.429688 32.128906 2329.734375 30.632812 2331.699219 28.675781 L 2347.390625 12.898438 C 2340.699219 8.0625 2332.160156 7.253906 2324.890625 10.480469 Z M 2324.890625 10.480469 " fill-opacity="1" fill-rule="nonzero"/><path fill="#e9ac64" d="M 2288.425781 10.480469 C 2286.003906 11.515625 2283.695312 13.128906 2281.734375 15.085938 L 2273.886719 23.03125 L 2266.15625 30.863281 C 2269.964844 33.742188 2274.582031 35.238281 2279.425781 35.238281 C 2282.65625 35.238281 2285.773438 34.546875 2288.542969 33.28125 C 2290.964844 32.128906 2293.273438 30.632812 2295.234375 28.675781 L 2310.8125 12.898438 C 2304.234375 8.0625 2295.582031 7.253906 2288.425781 10.480469 Z M 2288.425781 10.480469 " fill-opacity="1" fill-rule="nonzero"/><path fill="#e9ac64" d="M 2251.847656 10.480469 C 2249.425781 11.515625 2247.117188 13.128906 2245.15625 15.085938 L 2237.3125 23.03125 L 2229.578125 30.863281 C 2233.386719 33.742188 2238.003906 35.238281 2242.847656 35.238281 C 2246.082031 35.238281 2249.195312 34.546875 2251.964844 33.28125 C 2254.386719 32.128906 2256.695312 30.632812 2258.65625 28.675781 L 2274.351562 12.898438 C 2267.65625 8.0625 2259.117188 7.253906 2251.847656 10.480469 Z M 2251.847656 10.480469 " fill-opacity="1" fill-rule="nonzero"/><path fill="#e9ac64" d="M 2215.386719 10.480469 C 2212.964844 11.515625 2210.65625 13.128906 2208.695312 15.085938 L 2200.847656 23.03125 L 2193.117188 30.863281 C 2196.925781 33.742188 2201.539062 35.238281 2206.386719 35.238281 C 2209.617188 35.238281 2212.734375 34.546875 2215.503906 33.28125 C 2217.925781 32.128906 2220.234375 30.632812 2222.195312 28.675781 L 2237.886719 12.898438 C 2231.195312 8.0625 2222.539062 7.253906 2215.386719 10.480469 Z M 2215.386719 10.480469 " fill-opacity="1" fill-rule="nonzero"/><path fill="#e9ac64" d="M 2178.808594 10.480469 C 2176.386719 11.515625 2174.078125 13.128906 2172.117188 15.085938 L 2164.269531 23.03125 L 2156.539062 30.863281 C 2160.347656 33.742188 2164.960938 35.238281 2169.808594 35.238281 C 2173.039062 35.238281 2176.15625 34.546875 2178.925781 33.28125 C 2181.347656 32.128906 2183.65625 30.632812 2185.617188 28.675781 L 2201.195312 12.898438 C 2194.617188 8.0625 2186.078125 7.253906 2178.808594 10.480469 Z M 2178.808594 10.480469 " fill-opacity="1" fill-rule="nonzero"/><path fill="#e9ac64" d="M 2397.929688 10.480469 C 2395.507812 11.515625 2393.199219 13.128906 2391.238281 15.085938 L 2383.390625 23.03125 L 2375.660156 30.863281 C 2379.46875 33.742188 2384.082031 35.238281 2388.929688 35.238281 C 2392.160156 35.238281 2395.277344 34.546875 2398.046875 33.28125 C 2400.46875 32.128906 2402.777344 30.632812 2404.738281 28.675781 L 2420.429688 12.898438 C 2413.738281 8.0625 2405.199219 7.253906 2397.929688 10.480469 Z M 2397.929688 10.480469 " fill-opacity="1" fill-rule="nonzero"/><path fill="#e9ac64" d="M 2142.347656 10.480469 C 2139.921875 11.515625 2137.617188 13.128906 2135.652344 15.085938 L 2127.808594 23.03125 L 2120.078125 30.863281 C 2123.882812 33.742188 2128.5 35.238281 2133.347656 35.238281 C 2136.578125 35.238281 2139.691406 34.546875 2142.460938 33.28125 C 2144.886719 32.128906 2147.191406 30.632812 2149.15625 28.675781 L 2164.847656 12.898438 C 2158.15625 8.0625 2149.5 7.253906 2142.347656 10.480469 Z M 2142.347656 10.480469 " fill-opacity="1" fill-rule="nonzero"/><path fill="#e9ac64" d="M 2434.507812 10.480469 C 2432.085938 11.515625 2429.777344 13.128906 2427.816406 15.085938 L 2419.96875 23.03125 L 2412.238281 30.863281 C 2416.046875 33.742188 2420.660156 35.238281 2425.507812 35.238281 C 2428.738281 35.238281 2431.855469 34.546875 2434.625 33.28125 C 2437.046875 32.128906 2439.355469 30.632812 2441.316406 28.675781 L 2457.007812 12.898438 C 2450.316406 8.0625 2441.664062 7.253906 2434.507812 10.480469 Z M 2434.507812 10.480469 " fill-opacity="1" fill-rule="nonzero"/><path fill="#e9ac64" d="M 2470.972656 10.480469 C 2468.546875 11.515625 2466.238281 13.128906 2464.277344 15.085938 L 2456.433594 23.03125 L 2448.699219 30.863281 C 2452.507812 33.742188 2457.125 35.238281 2461.96875 35.238281 C 2465.203125 35.238281 2468.316406 34.546875 2471.085938 33.28125 C 2473.507812 32.128906 2475.816406 30.632812 2477.777344 28.675781 L 2493.472656 12.898438 C 2486.777344 8.0625 2478.238281 7.253906 2470.972656 10.480469 Z M 2470.972656 10.480469 " fill-opacity="1" fill-rule="nonzero"/><path fill="#e9ac64" d="M 2361.46875 10.480469 C 2359.042969 11.515625 2356.738281 13.128906 2354.773438 15.085938 L 2346.929688 23.03125 L 2339.199219 30.863281 C 2343.003906 33.742188 2347.621094 35.238281 2352.46875 35.238281 C 2355.699219 35.238281 2358.8125 34.546875 2361.582031 33.28125 C 2364.007812 32.128906 2366.3125 30.632812 2368.277344 28.675781 L 2383.96875 12.898438 C 2377.277344 8.0625 2368.621094 7.253906 2361.46875 10.480469 Z M 2361.46875 10.480469 " fill-opacity="1" fill-rule="nonzero"/></svg>