<svg xmlns="http://www.w3.org/2000/svg" xmlns:xlink="http://www.w3.org/1999/xlink" width="3974" zoomAndPan="magnify" viewBox="0 0 2980.5 44.249999" height="59" preserveAspectRatio="xMidYMid meet" version="1.0"><defs><clipPath id="acc3e9067f"><path d="M 1496 2 L 2947 2 L 2947 42.773438 L 1496 42.773438 Z M 1496 2 " clip-rule="nonzero"/></clipPath><clipPath id="a47df535b8"><path d="M 30 1 L 1482 1 L 1482 42.039062 L 30 42.039062 Z M 30 1 " clip-rule="nonzero"/></clipPath></defs><g clip-path="url(#acc3e9067f)"><path fill="#7d5148" d="M 2939.953125 8.753906 C 2932.148438 2.457031 2921.820312 0.851562 2912.753906 3.832031 C 2909.539062 4.859375 2906.441406 6.578125 2903.6875 8.753906 C 2895.882812 2.457031 2885.554688 0.851562 2876.488281 3.832031 C 2873.273438 4.859375 2870.175781 6.578125 2867.421875 8.753906 C 2859.617188 2.457031 2849.285156 0.851562 2840.21875 3.832031 C 2837.007812 4.859375 2833.90625 6.578125 2831.152344 8.753906 C 2823.347656 2.457031 2813.019531 0.851562 2803.953125 3.832031 C 2800.738281 4.859375 2797.640625 6.578125 2794.886719 8.753906 C 2787.082031 2.457031 2776.753906 0.851562 2767.6875 3.832031 C 2764.472656 4.859375 2761.375 6.578125 2758.621094 8.753906 C 2750.816406 2.457031 2740.484375 0.851562 2731.417969 3.832031 C 2728.207031 4.859375 2725.105469 6.578125 2722.351562 8.753906 C 2714.546875 2.457031 2704.21875 0.851562 2695.152344 3.832031 C 2691.9375 4.859375 2688.839844 6.578125 2686.085938 8.753906 C 2678.28125 2.457031 2667.953125 0.851562 2658.886719 3.832031 C 2655.671875 4.859375 2652.574219 6.578125 2649.820312 8.753906 C 2642.015625 2.457031 2631.683594 0.851562 2622.617188 3.832031 C 2619.40625 4.859375 2616.304688 6.578125 2613.550781 8.753906 C 2605.746094 2.457031 2595.417969 0.851562 2586.351562 3.832031 C 2583.136719 4.859375 2580.039062 6.578125 2577.285156 8.753906 C 2569.480469 2.457031 2559.152344 0.851562 2550.085938 3.832031 C 2546.871094 4.859375 2543.773438 6.578125 2541.015625 8.753906 C 2533.214844 2.457031 2522.882812 0.851562 2513.816406 3.832031 C 2510.605469 4.859375 2507.503906 6.578125 2504.75 8.753906 C 2496.945312 2.457031 2486.617188 0.851562 2477.550781 3.832031 C 2474.335938 4.859375 2471.238281 6.578125 2468.484375 8.753906 C 2460.679688 2.457031 2450.351562 0.851562 2441.285156 3.832031 C 2438.070312 4.859375 2434.972656 6.578125 2432.214844 8.753906 C 2424.414062 2.457031 2414.082031 0.851562 2405.015625 3.832031 C 2401.804688 4.859375 2398.703125 6.578125 2395.949219 8.753906 C 2388.144531 2.457031 2377.816406 0.851562 2368.75 3.832031 C 2365.535156 4.859375 2362.4375 6.578125 2359.683594 8.753906 C 2351.878906 2.457031 2341.550781 0.851562 2332.484375 3.832031 C 2329.269531 4.859375 2326.171875 6.578125 2323.414062 8.753906 C 2315.613281 2.457031 2305.28125 0.851562 2296.214844 3.832031 C 2293.003906 4.859375 2289.902344 6.578125 2287.148438 8.753906 C 2279.34375 2.457031 2269.015625 0.851562 2259.949219 3.832031 C 2256.734375 4.859375 2253.636719 6.578125 2250.882812 8.753906 C 2243.078125 2.457031 2232.75 0.851562 2223.679688 3.832031 C 2220.46875 4.859375 2217.371094 6.578125 2214.613281 8.753906 C 2206.808594 2.457031 2196.480469 0.851562 2187.414062 3.832031 C 2184.199219 4.859375 2181.101562 6.578125 2178.347656 8.753906 C 2170.542969 2.457031 2160.214844 0.851562 2151.148438 3.832031 C 2147.933594 4.859375 2144.835938 6.578125 2142.082031 8.753906 C 2133.128906 2.457031 2122.800781 0.738281 2113.617188 3.832031 C 2110.40625 4.859375 2107.304688 6.578125 2104.550781 8.753906 C 2096.746094 2.457031 2086.417969 0.851562 2077.351562 3.832031 C 2074.136719 4.859375 2071.039062 6.578125 2068.285156 8.753906 C 2060.480469 2.457031 2050.152344 0.851562 2041.085938 3.832031 C 2037.871094 4.859375 2034.773438 6.578125 2032.019531 8.753906 C 2024.097656 2.457031 2013.769531 0.738281 2004.703125 3.832031 C 2001.488281 4.859375 1998.390625 6.578125 1995.636719 8.753906 C 1987.832031 2.457031 1977.503906 0.851562 1968.4375 3.832031 C 1965.222656 4.859375 1962.125 6.578125 1959.371094 8.753906 C 1951.566406 2.457031 1941.234375 0.851562 1932.167969 3.832031 C 1928.957031 4.859375 1925.855469 6.578125 1923.101562 8.753906 C 1915.296875 2.457031 1904.96875 0.851562 1895.902344 3.832031 C 1892.6875 4.859375 1889.589844 6.578125 1886.835938 8.753906 C 1879.03125 2.457031 1868.703125 0.851562 1859.636719 3.832031 C 1856.421875 4.859375 1853.324219 6.578125 1850.570312 8.753906 C 1842.765625 2.457031 1832.433594 0.851562 1823.367188 3.832031 C 1820.15625 4.859375 1817.054688 6.578125 1814.300781 8.753906 C 1806.496094 2.457031 1796.167969 0.851562 1787.101562 3.832031 C 1783.886719 4.859375 1780.789062 6.578125 1778.035156 8.753906 C 1770.230469 2.457031 1759.902344 0.851562 1750.835938 3.832031 C 1747.621094 4.859375 1744.523438 6.578125 1741.769531 8.753906 C 1733.964844 2.457031 1723.632812 0.851562 1714.566406 3.832031 C 1711.355469 4.859375 1708.253906 6.578125 1705.5 8.753906 C 1697.695312 2.457031 1687.367188 0.851562 1678.300781 3.832031 C 1675.085938 4.859375 1671.988281 6.578125 1669.234375 8.753906 C 1661.429688 2.457031 1651.101562 0.851562 1642.035156 3.832031 C 1638.820312 4.859375 1635.722656 6.578125 1632.96875 8.753906 C 1625.164062 2.457031 1614.832031 0.851562 1605.765625 3.832031 C 1602.554688 4.859375 1599.453125 6.578125 1596.699219 8.753906 C 1588.894531 2.457031 1578.566406 0.851562 1569.5 3.832031 C 1566.285156 4.859375 1563.1875 6.578125 1560.433594 8.753906 C 1552.628906 2.457031 1542.300781 0.851562 1533.234375 3.832031 C 1530.019531 4.859375 1526.921875 6.578125 1524.167969 8.753906 C 1515.558594 2.457031 1505.230469 0.738281 1496.164062 3.832031 L 1496.164062 41.285156 C 1499.492188 40.253906 1502.476562 38.535156 1505.230469 36.359375 C 1510.394531 40.484375 1516.707031 42.773438 1523.363281 42.773438 C 1526.460938 42.773438 1529.558594 42.316406 1532.429688 41.285156 C 1535.757812 40.253906 1538.742188 38.535156 1541.496094 36.359375 C 1546.660156 40.484375 1552.972656 42.773438 1559.628906 42.773438 C 1562.726562 42.773438 1565.828125 42.316406 1568.695312 41.285156 C 1572.023438 40.253906 1575.007812 38.535156 1577.761719 36.359375 C 1582.925781 40.484375 1589.238281 42.773438 1595.898438 42.773438 C 1598.996094 42.773438 1602.09375 42.316406 1604.964844 41.285156 C 1608.292969 40.253906 1611.277344 38.535156 1614.03125 36.359375 C 1619.195312 40.484375 1625.507812 42.773438 1632.164062 42.773438 C 1635.261719 42.773438 1638.359375 42.316406 1641.230469 41.285156 C 1644.558594 40.253906 1647.542969 38.535156 1650.296875 36.359375 C 1655.460938 40.484375 1661.773438 42.773438 1668.429688 42.773438 C 1671.527344 42.773438 1674.628906 42.316406 1677.496094 41.285156 C 1680.824219 40.253906 1683.808594 38.535156 1686.5625 36.359375 C 1691.726562 40.484375 1698.039062 42.773438 1704.699219 42.773438 C 1707.796875 42.773438 1710.894531 42.316406 1713.765625 41.285156 C 1717.09375 40.253906 1720.078125 38.535156 1722.832031 36.359375 C 1727.996094 40.484375 1734.308594 42.773438 1740.964844 42.773438 C 1744.0625 42.773438 1747.160156 42.316406 1750.03125 41.285156 C 1753.359375 40.253906 1756.34375 38.535156 1759.097656 36.359375 C 1764.261719 40.484375 1770.574219 42.773438 1777.230469 42.773438 C 1780.328125 42.773438 1783.429688 42.316406 1786.296875 41.285156 C 1789.625 40.253906 1792.609375 38.535156 1795.363281 36.359375 C 1800.527344 40.484375 1806.839844 42.773438 1813.5 42.773438 C 1816.597656 42.773438 1819.695312 42.316406 1822.566406 41.285156 C 1825.894531 40.253906 1828.878906 38.535156 1831.632812 36.359375 C 1836.796875 40.484375 1843.109375 42.773438 1849.765625 42.773438 C 1852.863281 42.773438 1855.960938 42.316406 1858.832031 41.285156 C 1862.160156 40.253906 1865.144531 38.535156 1867.898438 36.359375 C 1873.0625 40.484375 1879.375 42.773438 1886.03125 42.773438 C 1889.128906 42.773438 1892.230469 42.316406 1895.097656 41.285156 C 1898.425781 40.253906 1901.410156 38.535156 1904.164062 36.359375 C 1909.328125 40.484375 1915.640625 42.773438 1922.300781 42.773438 C 1925.398438 42.773438 1928.496094 42.316406 1931.367188 41.285156 C 1934.695312 40.253906 1937.679688 38.535156 1940.433594 36.359375 C 1945.597656 40.484375 1951.910156 42.773438 1958.566406 42.773438 C 1961.664062 42.773438 1964.761719 42.316406 1967.632812 41.285156 C 1970.960938 40.253906 1973.945312 38.535156 1976.699219 36.359375 C 1981.863281 40.484375 1988.175781 42.773438 1994.832031 42.773438 C 1997.929688 42.773438 2001.03125 42.316406 2003.898438 41.285156 C 2007.226562 40.253906 2010.210938 38.535156 2012.964844 36.359375 C 2018.128906 40.484375 2024.441406 42.773438 2031.097656 42.773438 C 2034.199219 42.773438 2037.296875 42.316406 2040.167969 41.285156 C 2043.496094 40.253906 2046.480469 38.535156 2049.234375 36.359375 C 2054.398438 40.484375 2060.710938 42.773438 2067.367188 42.773438 C 2070.464844 42.773438 2073.5625 42.316406 2076.433594 41.285156 C 2079.761719 40.253906 2082.746094 38.535156 2085.5 36.359375 C 2090.664062 40.484375 2096.976562 42.773438 2103.632812 42.773438 C 2106.730469 42.773438 2109.832031 42.316406 2112.699219 41.285156 C 2116.027344 40.253906 2119.011719 38.535156 2121.765625 36.359375 C 2126.929688 40.484375 2133.242188 42.773438 2139.902344 42.773438 C 2143 42.773438 2146.097656 42.316406 2148.96875 41.285156 C 2152.296875 40.253906 2155.28125 38.535156 2158.035156 36.359375 C 2163.199219 40.484375 2169.511719 42.773438 2176.167969 42.773438 C 2179.265625 42.773438 2182.363281 42.316406 2185.234375 41.285156 C 2188.5625 40.253906 2191.546875 38.535156 2194.300781 36.359375 C 2199.464844 40.484375 2205.777344 42.773438 2212.433594 42.773438 C 2215.53125 42.773438 2218.632812 42.316406 2221.5 41.285156 C 2224.828125 40.253906 2227.8125 38.535156 2230.566406 36.359375 C 2235.734375 40.484375 2242.042969 42.773438 2248.703125 42.773438 C 2251.800781 42.773438 2254.898438 42.316406 2257.769531 41.285156 C 2261.097656 40.253906 2264.082031 38.535156 2266.835938 36.359375 C 2272 40.484375 2278.3125 42.773438 2284.96875 42.773438 C 2288.066406 42.773438 2291.164062 42.316406 2294.035156 41.285156 C 2297.363281 40.253906 2300.347656 38.535156 2303.101562 36.359375 C 2308.265625 40.484375 2314.578125 42.773438 2321.234375 42.773438 C 2324.335938 42.773438 2327.433594 42.316406 2330.300781 41.285156 C 2333.628906 40.253906 2336.613281 38.535156 2339.367188 36.359375 C 2344.535156 40.484375 2350.847656 42.773438 2357.503906 42.773438 C 2360.601562 42.773438 2363.699219 42.316406 2366.570312 41.285156 C 2369.898438 40.253906 2372.882812 38.535156 2375.636719 36.359375 C 2380.800781 40.484375 2387.113281 42.773438 2393.769531 42.773438 C 2396.867188 42.773438 2399.96875 42.316406 2402.835938 41.285156 C 2406.164062 40.253906 2409.148438 38.535156 2411.902344 36.359375 C 2417.066406 40.484375 2423.378906 42.773438 2430.035156 42.773438 C 2433.136719 42.773438 2436.234375 42.316406 2439.101562 41.285156 C 2442.429688 40.253906 2445.414062 38.535156 2448.167969 36.359375 C 2453.335938 40.484375 2459.648438 42.773438 2466.304688 42.773438 C 2469.402344 42.773438 2472.5 42.316406 2475.371094 41.285156 C 2478.699219 40.253906 2481.683594 38.535156 2484.4375 36.359375 C 2489.601562 40.484375 2495.914062 42.773438 2502.570312 42.773438 C 2505.667969 42.773438 2508.769531 42.316406 2511.636719 41.285156 C 2514.964844 40.253906 2517.949219 38.535156 2520.703125 36.359375 C 2525.867188 40.484375 2532.179688 42.773438 2538.835938 42.773438 C 2541.9375 42.773438 2545.035156 42.316406 2547.902344 41.285156 C 2551.230469 40.253906 2554.214844 38.535156 2556.972656 36.359375 C 2562.136719 40.484375 2568.449219 42.773438 2575.105469 42.773438 C 2578.203125 42.773438 2581.300781 42.316406 2584.171875 41.285156 C 2587.5 40.253906 2590.484375 38.535156 2593.238281 36.359375 C 2598.402344 40.484375 2604.714844 42.773438 2611.371094 42.773438 C 2614.46875 42.773438 2617.570312 42.316406 2620.4375 41.285156 C 2623.765625 40.253906 2626.75 38.535156 2629.503906 36.359375 C 2634.667969 40.484375 2640.980469 42.773438 2647.636719 42.773438 C 2650.738281 42.773438 2653.835938 42.316406 2656.703125 41.285156 C 2660.035156 40.253906 2663.015625 38.535156 2665.773438 36.359375 C 2670.9375 40.484375 2677.25 42.773438 2683.90625 42.773438 C 2687.003906 42.773438 2690.101562 42.316406 2692.972656 41.285156 C 2696.300781 40.253906 2699.285156 38.535156 2702.039062 36.359375 C 2707.203125 40.484375 2713.515625 42.773438 2720.171875 42.773438 C 2723.269531 42.773438 2726.371094 42.316406 2729.238281 41.285156 C 2732.566406 40.253906 2735.550781 38.535156 2738.304688 36.359375 C 2743.46875 40.484375 2749.78125 42.773438 2756.4375 42.773438 C 2759.539062 42.773438 2762.636719 42.316406 2765.507812 41.285156 C 2768.835938 40.253906 2771.816406 38.535156 2774.574219 36.359375 C 2779.738281 40.484375 2786.050781 42.773438 2792.707031 42.773438 C 2795.804688 42.773438 2798.902344 42.316406 2801.773438 41.285156 C 2805.101562 40.253906 2808.085938 38.535156 2810.839844 36.359375 C 2816.003906 40.484375 2822.316406 42.773438 2828.972656 42.773438 C 2832.070312 42.773438 2835.171875 42.316406 2838.039062 41.285156 C 2841.367188 40.253906 2844.351562 38.535156 2847.105469 36.359375 C 2852.269531 40.484375 2858.582031 42.773438 2865.242188 42.773438 C 2868.339844 42.773438 2871.4375 42.316406 2874.308594 41.285156 C 2877.636719 40.253906 2880.621094 38.535156 2883.375 36.359375 C 2888.539062 40.484375 2894.851562 42.773438 2901.507812 42.773438 C 2904.605469 42.773438 2907.703125 42.316406 2910.574219 41.285156 C 2913.902344 40.253906 2916.886719 38.535156 2919.640625 36.359375 C 2924.804688 40.484375 2931.117188 42.773438 2937.773438 42.773438 C 2940.875 42.773438 2943.972656 42.316406 2946.839844 41.285156 L 2946.839844 3.832031 C 2945.808594 4.859375 2942.824219 6.464844 2939.953125 8.753906 Z M 2939.953125 8.753906 " fill-opacity="1" fill-rule="nonzero"/></g><path fill="#e9ac64" d="M 1968.320312 11.160156 C 1965.910156 12.191406 1963.617188 13.796875 1961.664062 15.742188 L 1953.859375 23.644531 L 1946.171875 31.433594 C 1949.957031 34.296875 1954.550781 35.789062 1959.371094 35.789062 C 1962.582031 35.789062 1965.679688 35.101562 1968.4375 33.839844 C 1970.847656 32.695312 1973.140625 31.207031 1975.09375 29.257812 L 1990.699219 13.566406 C 1984.042969 8.753906 1975.550781 7.953125 1968.320312 11.160156 Z M 1968.320312 11.160156 " fill-opacity="1" fill-rule="nonzero"/><path fill="#e9ac64" d="M 2004.703125 11.160156 C 2002.292969 12.191406 1999.996094 13.796875 1998.046875 15.742188 L 1990.242188 23.644531 L 1982.550781 31.433594 C 1986.339844 34.296875 1990.929688 35.789062 1995.75 35.789062 C 1998.964844 35.789062 2002.0625 35.101562 2004.816406 33.839844 C 2007.226562 32.695312 2009.523438 31.207031 2011.472656 29.257812 L 2027.082031 13.566406 C 2020.425781 8.753906 2011.820312 7.953125 2004.703125 11.160156 Z M 2004.703125 11.160156 " fill-opacity="1" fill-rule="nonzero"/><path fill="#e9ac64" d="M 1932.054688 11.160156 C 1929.644531 12.191406 1927.347656 13.796875 1925.398438 15.742188 L 1917.59375 23.644531 L 1909.902344 31.433594 C 1913.691406 34.296875 1918.28125 35.789062 1923.101562 35.789062 C 1926.316406 35.789062 1929.414062 35.101562 1932.167969 33.839844 C 1934.578125 32.695312 1936.875 31.207031 1938.824219 29.257812 L 1954.433594 13.566406 C 1947.777344 8.753906 1939.171875 7.953125 1932.054688 11.160156 Z M 1932.054688 11.160156 " fill-opacity="1" fill-rule="nonzero"/><path fill="#e9ac64" d="M 1895.671875 11.160156 C 1893.261719 12.191406 1890.96875 13.796875 1889.015625 15.742188 L 1881.210938 23.644531 L 1873.523438 31.433594 C 1877.308594 34.296875 1881.898438 35.789062 1886.71875 35.789062 C 1889.933594 35.789062 1893.03125 35.101562 1895.789062 33.839844 C 1898.199219 32.695312 1900.492188 31.207031 1902.445312 29.257812 L 1918.050781 13.566406 C 1911.394531 8.753906 1902.902344 7.953125 1895.671875 11.160156 Z M 1895.671875 11.160156 " fill-opacity="1" fill-rule="nonzero"/><path fill="#e9ac64" d="M 2040.96875 11.160156 C 2038.558594 12.191406 2036.265625 13.796875 2034.3125 15.742188 L 2026.507812 23.644531 L 2018.820312 31.433594 C 2022.605469 34.296875 2027.199219 35.789062 2032.019531 35.789062 C 2035.230469 35.789062 2038.332031 35.101562 2041.085938 33.839844 C 2043.496094 32.695312 2045.789062 31.207031 2047.742188 29.257812 L 2063.351562 13.566406 C 2056.691406 8.753906 2048.199219 7.953125 2040.96875 11.160156 Z M 2040.96875 11.160156 " fill-opacity="1" fill-rule="nonzero"/><path fill="#e9ac64" d="M 2150 11.160156 C 2147.589844 12.191406 2145.292969 13.796875 2143.34375 15.742188 L 2135.539062 23.644531 L 2127.851562 31.433594 C 2131.636719 34.296875 2136.226562 35.789062 2141.046875 35.789062 C 2144.261719 35.789062 2147.359375 35.101562 2150.113281 33.839844 C 2152.523438 32.695312 2154.820312 31.207031 2156.773438 29.257812 L 2172.378906 13.566406 C 2165.722656 8.753906 2157.117188 7.953125 2150 11.160156 Z M 2150 11.160156 " fill-opacity="1" fill-rule="nonzero"/><path fill="#e9ac64" d="M 1823.023438 11.160156 C 1820.613281 12.191406 1818.320312 13.796875 1816.367188 15.742188 L 1808.5625 23.644531 L 1800.875 31.433594 C 1804.660156 34.296875 1809.25 35.789062 1814.070312 35.789062 C 1817.285156 35.789062 1820.382812 35.101562 1823.140625 33.839844 C 1825.550781 32.695312 1827.84375 31.207031 1829.796875 29.257812 L 1845.402344 13.566406 C 1838.746094 8.753906 1830.253906 7.953125 1823.023438 11.160156 Z M 1823.023438 11.160156 " fill-opacity="1" fill-rule="nonzero"/><path fill="#e9ac64" d="M 2113.617188 11.160156 C 2111.207031 12.191406 2108.914062 13.796875 2106.960938 15.742188 L 2099.15625 23.644531 L 2091.46875 31.433594 C 2095.253906 34.296875 2099.847656 35.789062 2104.667969 35.789062 C 2107.878906 35.789062 2110.980469 35.101562 2113.734375 33.839844 C 2116.144531 32.695312 2118.4375 31.207031 2120.390625 29.257812 L 2136 13.566406 C 2129.34375 8.753906 2120.847656 7.953125 2113.617188 11.160156 Z M 2113.617188 11.160156 " fill-opacity="1" fill-rule="nonzero"/><path fill="#e9ac64" d="M 2077.351562 11.160156 C 2074.941406 12.191406 2072.644531 13.796875 2070.695312 15.742188 L 2062.890625 23.644531 L 2055.203125 31.433594 C 2058.988281 34.296875 2063.578125 35.789062 2068.398438 35.789062 C 2071.613281 35.789062 2074.710938 35.101562 2077.464844 33.839844 C 2079.875 32.695312 2082.171875 31.207031 2084.121094 29.257812 L 2099.730469 13.566406 C 2093.074219 8.753906 2084.46875 7.953125 2077.351562 11.160156 Z M 2077.351562 11.160156 " fill-opacity="1" fill-rule="nonzero"/><path fill="#e9ac64" d="M 1605.078125 11.160156 C 1602.667969 12.191406 1600.371094 13.796875 1598.421875 15.742188 L 1590.617188 23.644531 L 1582.925781 31.433594 C 1586.714844 34.296875 1591.304688 35.789062 1596.125 35.789062 C 1599.339844 35.789062 1602.4375 35.101562 1605.191406 33.839844 C 1607.601562 32.695312 1609.898438 31.207031 1611.847656 29.257812 L 1627.457031 13.566406 C 1620.917969 8.753906 1612.308594 7.953125 1605.078125 11.160156 Z M 1605.078125 11.160156 " fill-opacity="1" fill-rule="nonzero"/><path fill="#e9ac64" d="M 1568.8125 11.160156 C 1566.402344 12.191406 1564.105469 13.796875 1562.15625 15.742188 L 1554.351562 23.644531 L 1546.660156 31.433594 C 1550.449219 34.296875 1555.039062 35.789062 1559.859375 35.789062 C 1563.074219 35.789062 1566.171875 35.101562 1568.925781 33.839844 C 1571.335938 32.695312 1573.632812 31.207031 1575.582031 29.257812 L 1591.078125 13.566406 C 1584.535156 8.753906 1576.042969 7.953125 1568.8125 11.160156 Z M 1568.8125 11.160156 " fill-opacity="1" fill-rule="nonzero"/><path fill="#e9ac64" d="M 2186.265625 11.160156 C 2183.855469 12.191406 2181.5625 13.796875 2179.609375 15.742188 L 2171.804688 23.644531 L 2164.117188 31.433594 C 2167.902344 34.296875 2172.496094 35.789062 2177.316406 35.789062 C 2180.527344 35.789062 2183.628906 35.101562 2186.382812 33.839844 C 2188.792969 32.695312 2191.085938 31.207031 2193.039062 29.257812 L 2208.648438 13.566406 C 2201.992188 8.753906 2193.496094 7.953125 2186.265625 11.160156 Z M 2186.265625 11.160156 " fill-opacity="1" fill-rule="nonzero"/><path fill="#e9ac64" d="M 1532.429688 11.160156 C 1530.019531 12.191406 1527.722656 13.796875 1525.773438 15.742188 L 1517.96875 23.644531 L 1510.277344 31.433594 C 1514.066406 34.296875 1518.65625 35.789062 1523.476562 35.789062 C 1526.691406 35.789062 1529.789062 35.101562 1532.542969 33.839844 C 1534.953125 32.695312 1537.25 31.207031 1539.199219 29.257812 L 1554.695312 13.566406 C 1548.265625 8.753906 1539.660156 7.953125 1532.429688 11.160156 Z M 1532.429688 11.160156 " fill-opacity="1" fill-rule="nonzero"/><path fill="#e9ac64" d="M 1518.425781 13.566406 C 1511.886719 8.753906 1503.394531 7.953125 1496.164062 11.160156 L 1496.164062 33.839844 C 1498.574219 32.695312 1500.867188 31.207031 1502.820312 29.257812 Z M 1518.425781 13.566406 " fill-opacity="1" fill-rule="nonzero"/><path fill="#e9ac64" d="M 2934.558594 23.644531 L 2926.871094 31.433594 C 2930.65625 34.296875 2935.25 35.789062 2940.070312 35.789062 C 2943.28125 35.789062 2946.382812 35.101562 2949.136719 33.839844 L 2949.136719 11.160156 C 2946.726562 12.191406 2944.429688 13.796875 2942.480469 15.742188 Z M 2934.558594 23.644531 " fill-opacity="1" fill-rule="nonzero"/><path fill="#e9ac64" d="M 1714.109375 11.160156 C 1711.699219 12.191406 1709.402344 13.796875 1707.453125 15.742188 L 1699.648438 23.644531 L 1691.957031 31.433594 C 1695.746094 34.296875 1700.335938 35.789062 1705.15625 35.789062 C 1708.371094 35.789062 1711.46875 35.101562 1714.222656 33.839844 C 1716.632812 32.695312 1718.929688 31.207031 1720.878906 29.257812 L 1736.488281 13.566406 C 1729.832031 8.753906 1721.339844 7.953125 1714.109375 11.160156 Z M 1714.109375 11.160156 " fill-opacity="1" fill-rule="nonzero"/><path fill="#e9ac64" d="M 1750.375 11.160156 C 1747.964844 12.191406 1745.667969 13.796875 1743.71875 15.742188 L 1735.914062 23.644531 L 1728.226562 31.433594 C 1732.011719 34.296875 1736.601562 35.789062 1741.421875 35.789062 C 1744.636719 35.789062 1747.734375 35.101562 1750.488281 33.839844 C 1752.898438 32.695312 1755.195312 31.207031 1757.148438 29.257812 L 1772.753906 13.566406 C 1766.097656 8.753906 1757.605469 7.953125 1750.375 11.160156 Z M 1750.375 11.160156 " fill-opacity="1" fill-rule="nonzero"/><path fill="#e9ac64" d="M 1641.460938 11.160156 C 1639.050781 12.191406 1636.753906 13.796875 1634.804688 15.742188 L 1627 23.644531 L 1619.308594 31.433594 C 1623.097656 34.296875 1627.6875 35.789062 1632.507812 35.789062 C 1635.722656 35.789062 1638.820312 35.101562 1641.574219 33.839844 C 1643.984375 32.695312 1646.28125 31.207031 1648.230469 29.257812 L 1663.726562 13.566406 C 1657.183594 8.753906 1648.691406 7.953125 1641.460938 11.160156 Z M 1641.460938 11.160156 " fill-opacity="1" fill-rule="nonzero"/><path fill="#e9ac64" d="M 1786.757812 11.160156 C 1784.347656 12.191406 1782.050781 13.796875 1780.101562 15.742188 L 1772.296875 23.644531 L 1764.605469 31.433594 C 1768.394531 34.296875 1772.984375 35.789062 1777.804688 35.789062 C 1781.019531 35.789062 1784.117188 35.101562 1786.871094 33.839844 C 1789.28125 32.695312 1791.578125 31.207031 1793.527344 29.257812 L 1809.136719 13.566406 C 1802.480469 8.753906 1793.988281 7.953125 1786.757812 11.160156 Z M 1786.757812 11.160156 " fill-opacity="1" fill-rule="nonzero"/><path fill="#e9ac64" d="M 1677.726562 11.160156 C 1675.316406 12.191406 1673.019531 13.796875 1671.070312 15.742188 L 1663.265625 23.644531 L 1655.578125 31.433594 C 1659.363281 34.296875 1663.953125 35.789062 1668.773438 35.789062 C 1671.988281 35.789062 1675.085938 35.101562 1677.839844 33.839844 C 1680.25 32.695312 1682.546875 31.207031 1684.496094 29.257812 L 1700.105469 13.566406 C 1693.449219 8.753906 1684.957031 7.953125 1677.726562 11.160156 Z M 1677.726562 11.160156 " fill-opacity="1" fill-rule="nonzero"/><path fill="#e9ac64" d="M 1859.40625 11.160156 C 1856.996094 12.191406 1854.699219 13.796875 1852.75 15.742188 L 1844.945312 23.644531 L 1837.253906 31.433594 C 1841.042969 34.296875 1845.632812 35.789062 1850.453125 35.789062 C 1853.667969 35.789062 1856.765625 35.101562 1859.519531 33.839844 C 1861.929688 32.695312 1864.226562 31.207031 1866.175781 29.257812 L 1881.785156 13.566406 C 1875.128906 8.753906 1866.636719 7.953125 1859.40625 11.160156 Z M 1859.40625 11.160156 " fill-opacity="1" fill-rule="nonzero"/><path fill="#e9ac64" d="M 2767.457031 11.160156 C 2765.046875 12.191406 2762.75 13.796875 2760.800781 15.742188 L 2752.996094 23.644531 L 2745.304688 31.433594 C 2749.09375 34.296875 2753.683594 35.789062 2758.503906 35.789062 C 2761.71875 35.789062 2764.816406 35.101562 2767.570312 33.839844 C 2769.980469 32.695312 2772.277344 31.207031 2774.226562 29.257812 L 2789.835938 13.566406 C 2783.179688 8.753906 2774.6875 7.953125 2767.457031 11.160156 Z M 2767.457031 11.160156 " fill-opacity="1" fill-rule="nonzero"/><path fill="#e9ac64" d="M 2694.808594 11.160156 C 2692.398438 12.191406 2690.101562 13.796875 2688.152344 15.742188 L 2680.347656 23.644531 L 2672.65625 31.433594 C 2676.445312 34.296875 2681.035156 35.789062 2685.855469 35.789062 C 2689.070312 35.789062 2692.167969 35.101562 2694.921875 33.839844 C 2697.332031 32.695312 2699.628906 31.207031 2701.578125 29.257812 L 2717.1875 13.566406 C 2710.53125 8.753906 2702.039062 7.953125 2694.808594 11.160156 Z M 2694.808594 11.160156 " fill-opacity="1" fill-rule="nonzero"/><path fill="#e9ac64" d="M 2731.1875 11.160156 C 2728.777344 12.191406 2726.484375 13.796875 2724.53125 15.742188 L 2716.726562 23.644531 L 2709.039062 31.433594 C 2712.828125 34.296875 2717.417969 35.789062 2722.238281 35.789062 C 2725.449219 35.789062 2728.550781 35.101562 2731.304688 33.839844 C 2733.714844 32.695312 2736.007812 31.207031 2737.960938 29.257812 L 2753.570312 13.566406 C 2746.914062 8.753906 2738.304688 7.953125 2731.1875 11.160156 Z M 2731.1875 11.160156 " fill-opacity="1" fill-rule="nonzero"/><path fill="#e9ac64" d="M 2658.539062 11.160156 C 2656.128906 12.191406 2653.835938 13.796875 2651.882812 15.742188 L 2644.078125 23.644531 L 2636.390625 31.433594 C 2640.179688 34.296875 2644.769531 35.789062 2649.589844 35.789062 C 2652.800781 35.789062 2655.902344 35.101562 2658.65625 33.839844 C 2661.066406 32.695312 2663.359375 31.207031 2665.3125 29.257812 L 2680.921875 13.566406 C 2674.265625 8.753906 2665.65625 7.953125 2658.539062 11.160156 Z M 2658.539062 11.160156 " fill-opacity="1" fill-rule="nonzero"/><path fill="#e9ac64" d="M 2622.160156 11.160156 C 2619.75 12.191406 2617.453125 13.796875 2615.503906 15.742188 L 2607.699219 23.644531 L 2600.007812 31.433594 C 2603.796875 34.296875 2608.386719 35.789062 2613.207031 35.789062 C 2616.421875 35.789062 2619.519531 35.101562 2622.273438 33.839844 C 2624.683594 32.695312 2626.980469 31.207031 2628.929688 29.257812 L 2644.539062 13.566406 C 2637.882812 8.753906 2629.390625 7.953125 2622.160156 11.160156 Z M 2622.160156 11.160156 " fill-opacity="1" fill-rule="nonzero"/><path fill="#e9ac64" d="M 2803.839844 11.160156 C 2801.429688 12.191406 2799.132812 13.796875 2797.179688 15.742188 L 2789.378906 23.644531 L 2781.6875 31.433594 C 2785.476562 34.296875 2790.066406 35.789062 2794.886719 35.789062 C 2798.101562 35.789062 2801.199219 35.101562 2803.953125 33.839844 C 2806.363281 32.695312 2808.660156 31.207031 2810.609375 29.257812 L 2826.21875 13.566406 C 2819.5625 8.753906 2810.953125 7.953125 2803.839844 11.160156 Z M 2803.839844 11.160156 " fill-opacity="1" fill-rule="nonzero"/><path fill="#e9ac64" d="M 2585.890625 11.160156 C 2583.480469 12.191406 2581.1875 13.796875 2579.234375 15.742188 L 2571.429688 23.644531 L 2563.742188 31.433594 C 2567.527344 34.296875 2572.121094 35.789062 2576.941406 35.789062 C 2580.152344 35.789062 2583.253906 35.101562 2586.007812 33.839844 C 2588.417969 32.695312 2590.710938 31.207031 2592.664062 29.257812 L 2608.273438 13.566406 C 2601.617188 8.753906 2593.007812 7.953125 2585.890625 11.160156 Z M 2585.890625 11.160156 " fill-opacity="1" fill-rule="nonzero"/><path fill="#e9ac64" d="M 2876.488281 11.160156 C 2874.078125 12.191406 2871.78125 13.796875 2869.828125 15.742188 L 2862.027344 23.644531 L 2854.335938 31.433594 C 2858.125 34.296875 2862.714844 35.789062 2867.535156 35.789062 C 2870.75 35.789062 2873.847656 35.101562 2876.601562 33.839844 C 2879.011719 32.695312 2881.308594 31.207031 2883.257812 29.257812 L 2898.636719 13.566406 C 2892.210938 8.753906 2883.601562 7.953125 2876.488281 11.160156 Z M 2876.488281 11.160156 " fill-opacity="1" fill-rule="nonzero"/><path fill="#e9ac64" d="M 2912.753906 11.160156 C 2910.34375 12.191406 2908.046875 13.796875 2906.097656 15.742188 L 2898.292969 23.644531 L 2890.601562 31.433594 C 2894.390625 34.296875 2898.980469 35.789062 2903.800781 35.789062 C 2907.015625 35.789062 2910.113281 35.101562 2912.867188 33.839844 C 2915.277344 32.695312 2917.574219 31.207031 2919.523438 29.257812 L 2935.132812 13.566406 C 2928.476562 8.753906 2919.984375 7.953125 2912.753906 11.160156 Z M 2912.753906 11.160156 " fill-opacity="1" fill-rule="nonzero"/><path fill="#e9ac64" d="M 2840.105469 11.160156 C 2837.695312 12.191406 2835.398438 13.796875 2833.449219 15.742188 L 2825.644531 23.644531 L 2817.953125 31.433594 C 2821.742188 34.296875 2826.332031 35.789062 2831.152344 35.789062 C 2834.367188 35.789062 2837.464844 35.101562 2840.21875 33.839844 C 2842.628906 32.695312 2844.925781 31.207031 2846.875 29.257812 L 2862.484375 13.566406 C 2855.828125 8.753906 2847.335938 7.953125 2840.105469 11.160156 Z M 2840.105469 11.160156 " fill-opacity="1" fill-rule="nonzero"/><path fill="#e9ac64" d="M 2404.214844 11.160156 C 2401.804688 12.191406 2399.507812 13.796875 2397.554688 15.742188 L 2389.753906 23.644531 L 2382.0625 31.433594 C 2385.851562 34.296875 2390.441406 35.789062 2395.261719 35.789062 C 2398.476562 35.789062 2401.574219 35.101562 2404.328125 33.839844 C 2406.738281 32.695312 2409.035156 31.207031 2410.984375 29.257812 L 2426.59375 13.566406 C 2419.9375 8.753906 2411.445312 7.953125 2404.214844 11.160156 Z M 2404.214844 11.160156 " fill-opacity="1" fill-rule="nonzero"/><path fill="#e9ac64" d="M 2367.945312 11.160156 C 2365.535156 12.191406 2363.242188 13.796875 2361.289062 15.742188 L 2353.484375 23.644531 L 2345.796875 31.433594 C 2349.582031 34.296875 2354.175781 35.789062 2358.996094 35.789062 C 2362.207031 35.789062 2365.304688 35.101562 2368.0625 33.839844 C 2370.472656 32.695312 2372.765625 31.207031 2374.71875 29.257812 L 2390.210938 13.566406 C 2383.667969 8.753906 2375.0625 7.953125 2367.945312 11.160156 Z M 2367.945312 11.160156 " fill-opacity="1" fill-rule="nonzero"/><path fill="#e9ac64" d="M 2331.566406 11.160156 C 2329.15625 12.191406 2326.859375 13.796875 2324.90625 15.742188 L 2317.105469 23.644531 L 2309.414062 31.433594 C 2313.203125 34.296875 2317.792969 35.789062 2322.613281 35.789062 C 2325.824219 35.789062 2328.925781 35.101562 2331.679688 33.839844 C 2334.089844 32.695312 2336.386719 31.207031 2338.335938 29.257812 L 2353.945312 13.566406 C 2347.289062 8.753906 2338.796875 7.953125 2331.566406 11.160156 Z M 2331.566406 11.160156 " fill-opacity="1" fill-rule="nonzero"/><path fill="#e9ac64" d="M 2295.296875 11.160156 C 2292.886719 12.191406 2290.59375 13.796875 2288.640625 15.742188 L 2280.835938 23.644531 L 2273.148438 31.433594 C 2276.933594 34.296875 2281.523438 35.789062 2286.34375 35.789062 C 2289.558594 35.789062 2292.65625 35.101562 2295.414062 33.839844 C 2297.824219 32.695312 2300.117188 31.207031 2302.070312 29.257812 L 2317.675781 13.566406 C 2311.019531 8.753906 2302.414062 7.953125 2295.296875 11.160156 Z M 2295.296875 11.160156 " fill-opacity="1" fill-rule="nonzero"/><path fill="#e9ac64" d="M 2258.914062 11.160156 C 2256.503906 12.191406 2254.210938 13.796875 2252.257812 15.742188 L 2244.453125 23.644531 L 2236.765625 31.433594 C 2240.554688 34.296875 2245.144531 35.789062 2249.964844 35.789062 C 2253.175781 35.789062 2256.277344 35.101562 2259.03125 33.839844 C 2261.441406 32.695312 2263.734375 31.207031 2265.6875 29.257812 L 2281.179688 13.566406 C 2274.640625 8.753906 2266.144531 7.953125 2258.914062 11.160156 Z M 2258.914062 11.160156 " fill-opacity="1" fill-rule="nonzero"/><path fill="#e9ac64" d="M 2476.863281 11.160156 C 2474.453125 12.191406 2472.15625 13.796875 2470.207031 15.742188 L 2462.402344 23.644531 L 2454.710938 31.433594 C 2458.5 34.296875 2463.089844 35.789062 2467.910156 35.789062 C 2471.125 35.789062 2474.222656 35.101562 2476.976562 33.839844 C 2479.386719 32.695312 2481.683594 31.207031 2483.632812 29.257812 L 2499.242188 13.566406 C 2492.585938 8.753906 2484.09375 7.953125 2476.863281 11.160156 Z M 2476.863281 11.160156 " fill-opacity="1" fill-rule="nonzero"/><path fill="#e9ac64" d="M 2222.648438 11.160156 C 2220.238281 12.191406 2217.945312 13.796875 2215.992188 15.742188 L 2208.1875 23.644531 L 2200.5 31.433594 C 2204.285156 34.296875 2208.875 35.789062 2213.695312 35.789062 C 2216.910156 35.789062 2220.007812 35.101562 2222.765625 33.839844 C 2225.175781 32.695312 2227.46875 31.207031 2229.421875 29.257812 L 2245.027344 13.566406 C 2238.371094 8.753906 2229.765625 7.953125 2222.648438 11.160156 Z M 2222.648438 11.160156 " fill-opacity="1" fill-rule="nonzero"/><path fill="#e9ac64" d="M 2513.242188 11.160156 C 2510.832031 12.191406 2508.539062 13.796875 2506.585938 15.742188 L 2498.78125 23.644531 L 2491.09375 31.433594 C 2494.878906 34.296875 2499.472656 35.789062 2504.292969 35.789062 C 2507.503906 35.789062 2510.605469 35.101562 2513.359375 33.839844 C 2515.769531 32.695312 2518.0625 31.207031 2520.015625 29.257812 L 2535.625 13.566406 C 2528.96875 8.753906 2520.359375 7.953125 2513.242188 11.160156 Z M 2513.242188 11.160156 " fill-opacity="1" fill-rule="nonzero"/><path fill="#e9ac64" d="M 2549.511719 11.160156 C 2547.101562 12.191406 2544.804688 13.796875 2542.855469 15.742188 L 2535.050781 23.644531 L 2527.359375 31.433594 C 2531.148438 34.296875 2535.738281 35.789062 2540.558594 35.789062 C 2543.773438 35.789062 2546.871094 35.101562 2549.625 33.839844 C 2552.035156 32.695312 2554.332031 31.207031 2556.28125 29.257812 L 2571.890625 13.566406 C 2565.234375 8.753906 2556.742188 7.953125 2549.511719 11.160156 Z M 2549.511719 11.160156 " fill-opacity="1" fill-rule="nonzero"/><path fill="#e9ac64" d="M 2440.59375 11.160156 C 2438.183594 12.191406 2435.890625 13.796875 2433.9375 15.742188 L 2426.132812 23.644531 L 2418.445312 31.433594 C 2422.230469 34.296875 2426.824219 35.789062 2431.644531 35.789062 C 2434.855469 35.789062 2437.957031 35.101562 2440.710938 33.839844 C 2443.121094 32.695312 2445.414062 31.207031 2447.367188 29.257812 L 2462.976562 13.566406 C 2456.316406 8.753906 2447.710938 7.953125 2440.59375 11.160156 Z M 2440.59375 11.160156 " fill-opacity="1" fill-rule="nonzero"/><g clip-path="url(#a47df535b8)"><path fill="#7d5148" d="M 1474.601562 8.019531 C 1466.796875 1.71875 1456.46875 0.113281 1447.402344 3.09375 C 1444.1875 4.125 1441.089844 5.839844 1438.335938 8.019531 C 1430.53125 1.71875 1420.203125 0.113281 1411.136719 3.09375 C 1407.921875 4.125 1404.824219 5.839844 1402.070312 8.019531 C 1394.265625 1.71875 1383.933594 0.113281 1374.867188 3.09375 C 1371.65625 4.125 1368.554688 5.839844 1365.800781 8.019531 C 1357.996094 1.71875 1347.667969 0.113281 1338.601562 3.09375 C 1335.386719 4.125 1332.289062 5.839844 1329.535156 8.019531 C 1321.730469 1.71875 1311.402344 0.113281 1302.335938 3.09375 C 1299.121094 4.125 1296.023438 5.839844 1293.269531 8.019531 C 1285.464844 1.71875 1275.136719 0.113281 1266.066406 3.09375 C 1262.855469 4.125 1259.757812 5.839844 1257 8.019531 C 1249.195312 1.71875 1238.867188 0.113281 1229.800781 3.09375 C 1226.585938 4.125 1223.488281 5.839844 1220.734375 8.019531 C 1212.929688 1.71875 1202.601562 0.113281 1193.535156 3.09375 C 1190.320312 4.125 1187.222656 5.839844 1184.46875 8.019531 C 1176.664062 1.71875 1166.335938 0.113281 1157.265625 3.09375 C 1154.054688 4.125 1150.953125 5.839844 1148.199219 8.019531 C 1140.394531 1.71875 1130.066406 0.113281 1121 3.09375 C 1117.785156 4.125 1114.6875 5.839844 1111.933594 8.019531 C 1104.128906 1.71875 1093.800781 0.113281 1084.734375 3.09375 C 1081.519531 4.125 1078.421875 5.839844 1075.667969 8.019531 C 1067.863281 1.71875 1057.53125 0.113281 1048.464844 3.09375 C 1045.253906 4.125 1042.152344 5.839844 1039.398438 8.019531 C 1031.59375 1.71875 1021.265625 0.113281 1012.199219 3.09375 C 1008.984375 4.125 1005.886719 5.839844 1003.132812 8.019531 C 995.328125 1.71875 985 0.113281 975.933594 3.09375 C 972.71875 4.125 969.621094 5.839844 966.867188 8.019531 C 959.0625 1.71875 948.730469 0.113281 939.664062 3.09375 C 936.453125 4.125 933.351562 5.839844 930.597656 8.019531 C 922.792969 1.71875 912.464844 0.113281 903.398438 3.09375 C 900.183594 4.125 897.085938 5.839844 894.332031 8.019531 C 886.527344 1.71875 876.199219 0.113281 867.132812 3.09375 C 863.917969 4.125 860.820312 5.839844 858.066406 8.019531 C 850.261719 1.71875 839.929688 0.113281 830.863281 3.09375 C 827.652344 4.125 824.550781 5.839844 821.796875 8.019531 C 813.992188 1.71875 803.664062 0.113281 794.597656 3.09375 C 791.382812 4.125 788.285156 5.839844 785.53125 8.019531 C 777.726562 1.71875 767.398438 0.113281 758.332031 3.09375 C 755.117188 4.125 752.019531 5.839844 749.265625 8.019531 C 741.460938 1.71875 731.128906 0.113281 722.0625 3.09375 C 718.851562 4.125 715.75 5.839844 712.996094 8.019531 C 705.191406 1.71875 694.863281 0.113281 685.796875 3.09375 C 682.582031 4.125 679.484375 5.839844 676.730469 8.019531 C 667.777344 1.71875 657.449219 0 648.265625 3.09375 C 645.054688 4.125 641.957031 5.839844 639.199219 8.019531 C 631.398438 1.71875 621.066406 0.113281 612 3.09375 C 608.785156 4.125 605.6875 5.839844 602.933594 8.019531 C 595.128906 1.71875 584.800781 0.113281 575.734375 3.09375 C 572.519531 4.125 569.421875 5.839844 566.667969 8.019531 C 558.746094 1.71875 548.417969 0 539.351562 3.09375 C 536.136719 4.125 533.039062 5.839844 530.285156 8.019531 C 522.480469 1.71875 512.152344 0.113281 503.085938 3.09375 C 499.871094 4.125 496.773438 5.839844 494.019531 8.019531 C 486.214844 1.71875 475.886719 0.113281 466.816406 3.09375 C 463.605469 4.125 460.503906 5.839844 457.75 8.019531 C 449.945312 1.71875 439.617188 0.113281 430.550781 3.09375 C 427.335938 4.125 424.238281 5.839844 421.484375 8.019531 C 413.679688 1.71875 403.351562 0.113281 394.285156 3.09375 C 391.070312 4.125 387.972656 5.839844 385.21875 8.019531 C 377.414062 1.71875 367.085938 0.113281 358.015625 3.09375 C 354.804688 4.125 351.703125 5.839844 348.949219 8.019531 C 341.144531 1.71875 330.816406 0.113281 321.75 3.09375 C 318.535156 4.125 315.4375 5.839844 312.683594 8.019531 C 304.878906 1.71875 294.550781 0.113281 285.484375 3.09375 C 282.269531 4.125 279.171875 5.839844 276.417969 8.019531 C 268.613281 1.71875 258.28125 0.113281 249.214844 3.09375 C 246.003906 4.125 242.902344 5.839844 240.148438 8.019531 C 232.34375 1.71875 222.015625 0.113281 212.949219 3.09375 C 209.734375 4.125 206.636719 5.839844 203.882812 8.019531 C 196.078125 1.71875 185.75 0.113281 176.683594 3.09375 C 173.46875 4.125 170.371094 5.839844 167.617188 8.019531 C 159.8125 1.71875 149.480469 0.113281 140.414062 3.09375 C 137.203125 4.125 134.101562 5.839844 131.347656 8.019531 C 123.542969 1.71875 113.214844 0.113281 104.148438 3.09375 C 100.933594 4.125 97.835938 5.839844 95.082031 8.019531 C 87.277344 1.71875 76.949219 0.113281 67.882812 3.09375 C 64.667969 4.125 61.570312 5.839844 58.816406 8.019531 C 50.207031 1.71875 39.878906 0 30.8125 3.09375 L 30.8125 40.546875 C 34.140625 39.515625 37.125 37.800781 39.878906 35.625 C 45.042969 39.746094 51.355469 42.039062 58.011719 42.039062 C 61.109375 42.039062 64.210938 41.578125 67.078125 40.546875 C 70.40625 39.515625 73.390625 37.800781 76.144531 35.625 C 81.308594 39.746094 87.621094 42.039062 94.277344 42.039062 C 97.378906 42.039062 100.476562 41.578125 103.34375 40.546875 C 106.671875 39.515625 109.65625 37.800781 112.410156 35.625 C 117.578125 39.746094 123.890625 42.039062 130.546875 42.039062 C 133.644531 42.039062 136.742188 41.578125 139.613281 40.546875 C 142.941406 39.515625 145.925781 37.800781 148.679688 35.625 C 153.84375 39.746094 160.15625 42.039062 166.8125 42.039062 C 169.910156 42.039062 173.011719 41.578125 175.878906 40.546875 C 179.207031 39.515625 182.191406 37.800781 184.945312 35.625 C 190.109375 39.746094 196.421875 42.039062 203.078125 42.039062 C 206.179688 42.039062 209.277344 41.578125 212.144531 40.546875 C 215.472656 39.515625 218.457031 37.800781 221.210938 35.625 C 226.378906 39.746094 232.691406 42.039062 239.347656 42.039062 C 242.445312 42.039062 245.542969 41.578125 248.414062 40.546875 C 251.742188 39.515625 254.726562 37.800781 257.480469 35.625 C 262.644531 39.746094 268.957031 42.039062 275.613281 42.039062 C 278.710938 42.039062 281.8125 41.578125 284.679688 40.546875 C 288.007812 39.515625 290.992188 37.800781 293.746094 35.625 C 298.910156 39.746094 305.222656 42.039062 311.878906 42.039062 C 314.980469 42.039062 318.078125 41.578125 320.945312 40.546875 C 324.273438 39.515625 327.257812 37.800781 330.011719 35.625 C 335.179688 39.746094 341.492188 42.039062 348.148438 42.039062 C 351.246094 42.039062 354.34375 41.578125 357.214844 40.546875 C 360.542969 39.515625 363.527344 37.800781 366.28125 35.625 C 371.445312 39.746094 377.757812 42.039062 384.414062 42.039062 C 387.511719 42.039062 390.613281 41.578125 393.480469 40.546875 C 396.808594 39.515625 399.792969 37.800781 402.546875 35.625 C 407.710938 39.746094 414.023438 42.039062 420.679688 42.039062 C 423.78125 42.039062 426.878906 41.578125 429.746094 40.546875 C 433.074219 39.515625 436.058594 37.800781 438.8125 35.625 C 443.980469 39.746094 450.292969 42.039062 456.949219 42.039062 C 460.046875 42.039062 463.144531 41.578125 466.015625 40.546875 C 469.34375 39.515625 472.328125 37.800781 475.082031 35.625 C 480.246094 39.746094 486.558594 42.039062 493.214844 42.039062 C 496.3125 42.039062 499.414062 41.578125 502.28125 40.546875 C 505.609375 39.515625 508.59375 37.800781 511.347656 35.625 C 516.511719 39.746094 522.824219 42.039062 529.480469 42.039062 C 532.582031 42.039062 535.679688 41.578125 538.546875 40.546875 C 541.875 39.515625 544.859375 37.800781 547.613281 35.625 C 552.78125 39.746094 559.09375 42.039062 565.75 42.039062 C 568.847656 42.039062 571.945312 41.578125 574.816406 40.546875 C 578.144531 39.515625 581.128906 37.800781 583.882812 35.625 C 589.046875 39.746094 595.359375 42.039062 602.015625 42.039062 C 605.113281 42.039062 608.214844 41.578125 611.082031 40.546875 C 614.410156 39.515625 617.394531 37.800781 620.148438 35.625 C 625.3125 39.746094 631.625 42.039062 638.28125 42.039062 C 641.382812 42.039062 644.480469 41.578125 647.347656 40.546875 C 650.675781 39.515625 653.660156 37.800781 656.414062 35.625 C 661.582031 39.746094 667.894531 42.039062 674.550781 42.039062 C 677.648438 42.039062 680.746094 41.578125 683.617188 40.546875 C 686.945312 39.515625 689.929688 37.800781 692.683594 35.625 C 697.847656 39.746094 704.160156 42.039062 710.816406 42.039062 C 713.914062 42.039062 717.015625 41.578125 719.882812 40.546875 C 723.210938 39.515625 726.195312 37.800781 728.949219 35.625 C 734.113281 39.746094 740.425781 42.039062 747.082031 42.039062 C 750.183594 42.039062 753.28125 41.578125 756.148438 40.546875 C 759.476562 39.515625 762.460938 37.800781 765.21875 35.625 C 770.382812 39.746094 776.695312 42.039062 783.351562 42.039062 C 786.449219 42.039062 789.546875 41.578125 792.417969 40.546875 C 795.746094 39.515625 798.730469 37.800781 801.484375 35.625 C 806.648438 39.746094 812.960938 42.039062 819.617188 42.039062 C 822.714844 42.039062 825.816406 41.578125 828.683594 40.546875 C 832.011719 39.515625 834.996094 37.800781 837.75 35.625 C 842.914062 39.746094 849.226562 42.039062 855.882812 42.039062 C 858.984375 42.039062 862.082031 41.578125 864.949219 40.546875 C 868.28125 39.515625 871.261719 37.800781 874.019531 35.625 C 879.183594 39.746094 885.496094 42.039062 892.152344 42.039062 C 895.25 42.039062 898.347656 41.578125 901.21875 40.546875 C 904.546875 39.515625 907.53125 37.800781 910.285156 35.625 C 915.449219 39.746094 921.761719 42.039062 928.417969 42.039062 C 931.515625 42.039062 934.617188 41.578125 937.484375 40.546875 C 940.8125 39.515625 943.796875 37.800781 946.550781 35.625 C 951.714844 39.746094 958.027344 42.039062 964.683594 42.039062 C 967.785156 42.039062 970.882812 41.578125 973.753906 40.546875 C 977.082031 39.515625 980.0625 37.800781 982.820312 35.625 C 987.984375 39.746094 994.296875 42.039062 1000.953125 42.039062 C 1004.050781 42.039062 1007.148438 41.578125 1010.019531 40.546875 C 1013.347656 39.515625 1016.332031 37.800781 1019.085938 35.625 C 1024.25 39.746094 1030.5625 42.039062 1037.21875 42.039062 C 1040.316406 42.039062 1043.417969 41.578125 1046.285156 40.546875 C 1049.613281 39.515625 1052.597656 37.800781 1055.351562 35.625 C 1060.515625 39.746094 1066.828125 42.039062 1073.484375 42.039062 C 1076.585938 42.039062 1079.683594 41.578125 1082.554688 40.546875 C 1085.882812 39.515625 1088.867188 37.800781 1091.621094 35.625 C 1096.785156 39.746094 1103.097656 42.039062 1109.753906 42.039062 C 1112.851562 42.039062 1115.949219 41.578125 1118.820312 40.546875 C 1122.148438 39.515625 1125.132812 37.800781 1127.886719 35.625 C 1133.050781 39.746094 1139.363281 42.039062 1146.019531 42.039062 C 1149.117188 42.039062 1152.21875 41.578125 1155.085938 40.546875 C 1158.414062 39.515625 1161.398438 37.800781 1164.152344 35.625 C 1169.316406 39.746094 1175.628906 42.039062 1182.289062 42.039062 C 1185.386719 42.039062 1188.484375 41.578125 1191.355469 40.546875 C 1194.683594 39.515625 1197.667969 37.800781 1200.421875 35.625 C 1205.585938 39.746094 1211.898438 42.039062 1218.554688 42.039062 C 1221.652344 42.039062 1224.75 41.578125 1227.621094 40.546875 C 1230.949219 39.515625 1233.933594 37.800781 1236.6875 35.625 C 1241.851562 39.746094 1248.164062 42.039062 1254.820312 42.039062 C 1257.917969 42.039062 1261.019531 41.578125 1263.886719 40.546875 C 1267.214844 39.515625 1270.199219 37.800781 1272.953125 35.625 C 1278.121094 39.746094 1284.429688 42.039062 1291.089844 42.039062 C 1294.1875 42.039062 1297.285156 41.578125 1300.15625 40.546875 C 1303.484375 39.515625 1306.46875 37.800781 1309.222656 35.625 C 1314.386719 39.746094 1320.699219 42.039062 1327.355469 42.039062 C 1330.453125 42.039062 1333.554688 41.578125 1336.421875 40.546875 C 1339.75 39.515625 1342.734375 37.800781 1345.488281 35.625 C 1350.652344 39.746094 1356.964844 42.039062 1363.621094 42.039062 C 1366.722656 42.039062 1369.820312 41.578125 1372.6875 40.546875 C 1376.015625 39.515625 1379 37.800781 1381.753906 35.625 C 1386.921875 39.746094 1393.234375 42.039062 1399.890625 42.039062 C 1402.988281 42.039062 1406.085938 41.578125 1408.957031 40.546875 C 1412.285156 39.515625 1415.269531 37.800781 1418.023438 35.625 C 1423.1875 39.746094 1429.5 42.039062 1436.15625 42.039062 C 1439.253906 42.039062 1442.355469 41.578125 1445.222656 40.546875 C 1448.550781 39.515625 1451.535156 37.800781 1454.289062 35.625 C 1459.453125 39.746094 1465.765625 42.039062 1472.421875 42.039062 C 1475.523438 42.039062 1478.621094 41.578125 1481.492188 40.546875 L 1481.492188 3.09375 C 1480.457031 4.125 1477.472656 5.726562 1474.601562 8.019531 Z M 1474.601562 8.019531 " fill-opacity="1" fill-rule="nonzero"/></g><path fill="#e9ac64" d="M 502.96875 10.421875 C 500.558594 11.453125 498.265625 13.058594 496.3125 15.003906 L 488.507812 22.910156 L 480.820312 30.699219 C 484.605469 33.5625 489.199219 35.050781 494.019531 35.050781 C 497.230469 35.050781 500.332031 34.363281 503.085938 33.101562 C 505.496094 31.957031 507.789062 30.46875 509.742188 28.519531 L 525.351562 12.828125 C 518.695312 8.019531 510.199219 7.214844 502.96875 10.421875 Z M 502.96875 10.421875 " fill-opacity="1" fill-rule="nonzero"/><path fill="#e9ac64" d="M 539.351562 10.421875 C 536.941406 11.453125 534.644531 13.058594 532.695312 15.003906 L 524.890625 22.910156 L 517.203125 30.699219 C 520.988281 33.5625 525.578125 35.050781 530.398438 35.050781 C 533.613281 35.050781 536.710938 34.363281 539.464844 33.101562 C 541.875 31.957031 544.171875 30.46875 546.125 28.519531 L 561.730469 12.828125 C 555.074219 8.019531 546.46875 7.214844 539.351562 10.421875 Z M 539.351562 10.421875 " fill-opacity="1" fill-rule="nonzero"/><path fill="#e9ac64" d="M 466.703125 10.421875 C 464.292969 11.453125 461.996094 13.058594 460.046875 15.003906 L 452.242188 22.910156 L 444.554688 30.699219 C 448.339844 33.5625 452.929688 35.050781 457.75 35.050781 C 460.964844 35.050781 464.0625 34.363281 466.816406 33.101562 C 469.226562 31.957031 471.523438 30.46875 473.476562 28.519531 L 489.082031 12.828125 C 482.425781 8.019531 473.820312 7.214844 466.703125 10.421875 Z M 466.703125 10.421875 " fill-opacity="1" fill-rule="nonzero"/><path fill="#e9ac64" d="M 430.320312 10.421875 C 427.910156 11.453125 425.617188 13.058594 423.664062 15.003906 L 415.859375 22.910156 L 408.171875 30.699219 C 411.957031 33.5625 416.550781 35.050781 421.371094 35.050781 C 424.582031 35.050781 427.683594 34.363281 430.4375 33.101562 C 432.847656 31.957031 435.140625 30.46875 437.09375 28.519531 L 452.703125 12.828125 C 446.046875 8.019531 437.550781 7.214844 430.320312 10.421875 Z M 430.320312 10.421875 " fill-opacity="1" fill-rule="nonzero"/><path fill="#e9ac64" d="M 575.617188 10.421875 C 573.207031 11.453125 570.914062 13.058594 568.960938 15.003906 L 561.15625 22.910156 L 553.46875 30.699219 C 557.257812 33.5625 561.847656 35.050781 566.667969 35.050781 C 569.878906 35.050781 572.980469 34.363281 575.734375 33.101562 C 578.144531 31.957031 580.4375 30.46875 582.390625 28.519531 L 598 12.828125 C 591.34375 8.019531 582.847656 7.214844 575.617188 10.421875 Z M 575.617188 10.421875 " fill-opacity="1" fill-rule="nonzero"/><path fill="#e9ac64" d="M 684.648438 10.421875 C 682.238281 11.453125 679.945312 13.058594 677.992188 15.003906 L 670.1875 22.910156 L 662.5 30.699219 C 666.285156 33.5625 670.878906 35.050781 675.699219 35.050781 C 678.910156 35.050781 682.007812 34.363281 684.765625 33.101562 C 687.175781 31.957031 689.46875 30.46875 691.421875 28.519531 L 707.027344 12.828125 C 700.371094 8.019531 691.765625 7.214844 684.648438 10.421875 Z M 684.648438 10.421875 " fill-opacity="1" fill-rule="nonzero"/><path fill="#e9ac64" d="M 357.671875 10.421875 C 355.261719 11.453125 352.96875 13.058594 351.015625 15.003906 L 343.210938 22.910156 L 335.523438 30.699219 C 339.308594 33.5625 343.902344 35.050781 348.722656 35.050781 C 351.933594 35.050781 355.035156 34.363281 357.789062 33.101562 C 360.199219 31.957031 362.492188 30.46875 364.445312 28.519531 L 380.054688 12.828125 C 373.394531 8.019531 364.902344 7.214844 357.671875 10.421875 Z M 357.671875 10.421875 " fill-opacity="1" fill-rule="nonzero"/><path fill="#e9ac64" d="M 648.265625 10.421875 C 645.859375 11.453125 643.5625 13.058594 641.609375 15.003906 L 633.808594 22.910156 L 626.117188 30.699219 C 629.90625 33.5625 634.496094 35.050781 639.316406 35.050781 C 642.527344 35.050781 645.628906 34.363281 648.382812 33.101562 C 650.792969 31.957031 653.085938 30.46875 655.039062 28.519531 L 670.648438 12.828125 C 663.992188 8.019531 655.496094 7.214844 648.265625 10.421875 Z M 648.265625 10.421875 " fill-opacity="1" fill-rule="nonzero"/><path fill="#e9ac64" d="M 612 10.421875 C 609.589844 11.453125 607.296875 13.058594 605.34375 15.003906 L 597.539062 22.910156 L 589.851562 30.699219 C 593.636719 33.5625 598.226562 35.050781 603.046875 35.050781 C 606.261719 35.050781 609.359375 34.363281 612.117188 33.101562 C 614.527344 31.957031 616.820312 30.46875 618.773438 28.519531 L 634.378906 12.828125 C 627.722656 8.019531 619.117188 7.214844 612 10.421875 Z M 612 10.421875 " fill-opacity="1" fill-rule="nonzero"/><path fill="#e9ac64" d="M 139.726562 10.421875 C 137.316406 11.453125 135.023438 13.058594 133.070312 15.003906 L 125.265625 22.910156 L 117.578125 30.699219 C 121.363281 33.5625 125.953125 35.050781 130.773438 35.050781 C 133.988281 35.050781 137.085938 34.363281 139.84375 33.101562 C 142.25 31.957031 144.546875 30.46875 146.5 28.519531 L 162.105469 12.828125 C 155.566406 8.019531 146.957031 7.214844 139.726562 10.421875 Z M 139.726562 10.421875 " fill-opacity="1" fill-rule="nonzero"/><path fill="#e9ac64" d="M 103.460938 10.421875 C 101.050781 11.453125 98.753906 13.058594 96.804688 15.003906 L 89 22.910156 L 81.308594 30.699219 C 85.097656 33.5625 89.6875 35.050781 94.507812 35.050781 C 97.722656 35.050781 100.820312 34.363281 103.574219 33.101562 C 105.984375 31.957031 108.28125 30.46875 110.230469 28.519531 L 125.726562 12.828125 C 119.183594 8.019531 110.691406 7.214844 103.460938 10.421875 Z M 103.460938 10.421875 " fill-opacity="1" fill-rule="nonzero"/><path fill="#e9ac64" d="M 720.917969 10.421875 C 718.507812 11.453125 716.210938 13.058594 714.257812 15.003906 L 706.457031 22.910156 L 698.765625 30.699219 C 702.554688 33.5625 707.144531 35.050781 711.964844 35.050781 C 715.179688 35.050781 718.277344 34.363281 721.03125 33.101562 C 723.441406 31.957031 725.738281 30.46875 727.6875 28.519531 L 743.296875 12.828125 C 736.640625 8.019531 728.148438 7.214844 720.917969 10.421875 Z M 720.917969 10.421875 " fill-opacity="1" fill-rule="nonzero"/><path fill="#e9ac64" d="M 67.078125 10.421875 C 64.667969 11.453125 62.371094 13.058594 60.421875 15.003906 L 52.617188 22.910156 L 44.929688 30.699219 C 48.714844 33.5625 53.304688 35.050781 58.125 35.050781 C 61.339844 35.050781 64.4375 34.363281 67.191406 33.101562 C 69.601562 31.957031 71.898438 30.46875 73.851562 28.519531 L 89.34375 12.828125 C 82.917969 8.019531 74.308594 7.214844 67.078125 10.421875 Z M 67.078125 10.421875 " fill-opacity="1" fill-rule="nonzero"/><path fill="#e9ac64" d="M 53.078125 12.828125 C 46.535156 8.019531 38.042969 7.214844 30.8125 10.421875 L 30.8125 33.101562 C 33.222656 31.957031 35.515625 30.46875 37.46875 28.519531 Z M 53.078125 12.828125 " fill-opacity="1" fill-rule="nonzero"/><path fill="#e9ac64" d="M 1469.207031 22.910156 L 1461.519531 30.699219 C 1465.308594 33.5625 1469.898438 35.050781 1474.71875 35.050781 C 1477.929688 35.050781 1481.03125 34.363281 1483.785156 33.101562 L 1483.785156 10.421875 C 1481.375 11.453125 1479.078125 13.058594 1477.128906 15.003906 Z M 1469.207031 22.910156 " fill-opacity="1" fill-rule="nonzero"/><path fill="#e9ac64" d="M 248.757812 10.421875 C 246.347656 11.453125 244.050781 13.058594 242.101562 15.003906 L 234.296875 22.910156 L 226.605469 30.699219 C 230.394531 33.5625 234.984375 35.050781 239.804688 35.050781 C 243.019531 35.050781 246.117188 34.363281 248.871094 33.101562 C 251.28125 31.957031 253.578125 30.46875 255.527344 28.519531 L 271.136719 12.828125 C 264.480469 8.019531 255.988281 7.214844 248.757812 10.421875 Z M 248.757812 10.421875 " fill-opacity="1" fill-rule="nonzero"/><path fill="#e9ac64" d="M 285.023438 10.421875 C 282.613281 11.453125 280.320312 13.058594 278.367188 15.003906 L 270.5625 22.910156 L 262.875 30.699219 C 266.660156 33.5625 271.253906 35.050781 276.074219 35.050781 C 279.285156 35.050781 282.382812 34.363281 285.140625 33.101562 C 287.550781 31.957031 289.84375 30.46875 291.796875 28.519531 L 307.402344 12.828125 C 300.746094 8.019531 292.253906 7.214844 285.023438 10.421875 Z M 285.023438 10.421875 " fill-opacity="1" fill-rule="nonzero"/><path fill="#e9ac64" d="M 176.109375 10.421875 C 173.699219 11.453125 171.402344 13.058594 169.453125 15.003906 L 161.648438 22.910156 L 153.957031 30.699219 C 157.746094 33.5625 162.335938 35.050781 167.15625 35.050781 C 170.371094 35.050781 173.46875 34.363281 176.222656 33.101562 C 178.632812 31.957031 180.929688 30.46875 182.878906 28.519531 L 198.375 12.828125 C 191.832031 8.019531 183.339844 7.214844 176.109375 10.421875 Z M 176.109375 10.421875 " fill-opacity="1" fill-rule="nonzero"/><path fill="#e9ac64" d="M 321.40625 10.421875 C 318.996094 11.453125 316.699219 13.058594 314.75 15.003906 L 306.945312 22.910156 L 299.253906 30.699219 C 303.042969 33.5625 307.632812 35.050781 312.453125 35.050781 C 315.667969 35.050781 318.765625 34.363281 321.519531 33.101562 C 323.929688 31.957031 326.226562 30.46875 328.175781 28.519531 L 343.785156 12.828125 C 337.128906 8.019531 328.636719 7.214844 321.40625 10.421875 Z M 321.40625 10.421875 " fill-opacity="1" fill-rule="nonzero"/><path fill="#e9ac64" d="M 212.375 10.421875 C 209.964844 11.453125 207.671875 13.058594 205.71875 15.003906 L 197.914062 22.910156 L 190.226562 30.699219 C 194.011719 33.5625 198.601562 35.050781 203.421875 35.050781 C 206.636719 35.050781 209.734375 34.363281 212.492188 33.101562 C 214.902344 31.957031 217.195312 30.46875 219.148438 28.519531 L 234.753906 12.828125 C 228.097656 8.019531 219.605469 7.214844 212.375 10.421875 Z M 212.375 10.421875 " fill-opacity="1" fill-rule="nonzero"/><path fill="#e9ac64" d="M 394.054688 10.421875 C 391.644531 11.453125 389.347656 13.058594 387.398438 15.003906 L 379.59375 22.910156 L 371.90625 30.699219 C 375.691406 33.5625 380.28125 35.050781 385.101562 35.050781 C 388.316406 35.050781 391.414062 34.363281 394.167969 33.101562 C 396.578125 31.957031 398.875 30.46875 400.824219 28.519531 L 416.433594 12.828125 C 409.777344 8.019531 401.285156 7.214844 394.054688 10.421875 Z M 394.054688 10.421875 " fill-opacity="1" fill-rule="nonzero"/><path fill="#e9ac64" d="M 1302.105469 10.421875 C 1299.695312 11.453125 1297.398438 13.058594 1295.449219 15.003906 L 1287.644531 22.910156 L 1279.953125 30.699219 C 1283.742188 33.5625 1288.332031 35.050781 1293.152344 35.050781 C 1296.367188 35.050781 1299.464844 34.363281 1302.21875 33.101562 C 1304.628906 31.957031 1306.925781 30.46875 1308.875 28.519531 L 1324.484375 12.828125 C 1317.828125 8.019531 1309.335938 7.214844 1302.105469 10.421875 Z M 1302.105469 10.421875 " fill-opacity="1" fill-rule="nonzero"/><path fill="#e9ac64" d="M 1229.457031 10.421875 C 1227.046875 11.453125 1224.75 13.058594 1222.800781 15.003906 L 1214.996094 22.910156 L 1207.304688 30.699219 C 1211.09375 33.5625 1215.683594 35.050781 1220.503906 35.050781 C 1223.71875 35.050781 1226.816406 34.363281 1229.570312 33.101562 C 1231.980469 31.957031 1234.277344 30.46875 1236.226562 28.519531 L 1251.835938 12.828125 C 1245.179688 8.019531 1236.6875 7.214844 1229.457031 10.421875 Z M 1229.457031 10.421875 " fill-opacity="1" fill-rule="nonzero"/><path fill="#e9ac64" d="M 1265.839844 10.421875 C 1263.429688 11.453125 1261.132812 13.058594 1259.183594 15.003906 L 1251.378906 22.910156 L 1243.6875 30.699219 C 1247.476562 33.5625 1252.066406 35.050781 1256.886719 35.050781 C 1260.101562 35.050781 1263.199219 34.363281 1265.953125 33.101562 C 1268.363281 31.957031 1270.660156 30.46875 1272.609375 28.519531 L 1288.21875 12.828125 C 1281.5625 8.019531 1272.953125 7.214844 1265.839844 10.421875 Z M 1265.839844 10.421875 " fill-opacity="1" fill-rule="nonzero"/><path fill="#e9ac64" d="M 1193.191406 10.421875 C 1190.78125 11.453125 1188.484375 13.058594 1186.53125 15.003906 L 1178.730469 22.910156 L 1171.039062 30.699219 C 1174.828125 33.5625 1179.417969 35.050781 1184.238281 35.050781 C 1187.453125 35.050781 1190.550781 34.363281 1193.304688 33.101562 C 1195.714844 31.957031 1198.011719 30.46875 1199.960938 28.519531 L 1215.570312 12.828125 C 1208.914062 8.019531 1200.304688 7.214844 1193.191406 10.421875 Z M 1193.191406 10.421875 " fill-opacity="1" fill-rule="nonzero"/><path fill="#e9ac64" d="M 1156.808594 10.421875 C 1154.398438 11.453125 1152.101562 13.058594 1150.152344 15.003906 L 1142.347656 22.910156 L 1134.65625 30.699219 C 1138.445312 33.5625 1143.035156 35.050781 1147.855469 35.050781 C 1151.070312 35.050781 1154.167969 34.363281 1156.921875 33.101562 C 1159.332031 31.957031 1161.628906 30.46875 1163.578125 28.519531 L 1179.1875 12.828125 C 1172.53125 8.019531 1164.039062 7.214844 1156.808594 10.421875 Z M 1156.808594 10.421875 " fill-opacity="1" fill-rule="nonzero"/><path fill="#e9ac64" d="M 1338.488281 10.421875 C 1336.078125 11.453125 1333.78125 13.058594 1331.832031 15.003906 L 1324.027344 22.910156 L 1316.335938 30.699219 C 1320.125 33.5625 1324.714844 35.050781 1329.535156 35.050781 C 1332.75 35.050781 1335.847656 34.363281 1338.601562 33.101562 C 1341.011719 31.957031 1343.308594 30.46875 1345.257812 28.519531 L 1360.867188 12.828125 C 1354.210938 8.019531 1345.601562 7.214844 1338.488281 10.421875 Z M 1338.488281 10.421875 " fill-opacity="1" fill-rule="nonzero"/><path fill="#e9ac64" d="M 1120.542969 10.421875 C 1118.132812 11.453125 1115.835938 13.058594 1113.882812 15.003906 L 1106.082031 22.910156 L 1098.390625 30.699219 C 1102.179688 33.5625 1106.769531 35.050781 1111.589844 35.050781 C 1114.800781 35.050781 1117.902344 34.363281 1120.65625 33.101562 C 1123.066406 31.957031 1125.363281 30.46875 1127.3125 28.519531 L 1142.921875 12.828125 C 1136.265625 8.019531 1127.65625 7.214844 1120.542969 10.421875 Z M 1120.542969 10.421875 " fill-opacity="1" fill-rule="nonzero"/><path fill="#e9ac64" d="M 1411.136719 10.421875 C 1408.726562 11.453125 1406.429688 13.058594 1404.480469 15.003906 L 1396.675781 22.910156 L 1388.984375 30.699219 C 1392.773438 33.5625 1397.363281 35.050781 1402.183594 35.050781 C 1405.398438 35.050781 1408.496094 34.363281 1411.25 33.101562 C 1413.660156 31.957031 1415.957031 30.46875 1417.90625 28.519531 L 1433.285156 12.828125 C 1426.859375 8.019531 1418.25 7.214844 1411.136719 10.421875 Z M 1411.136719 10.421875 " fill-opacity="1" fill-rule="nonzero"/><path fill="#e9ac64" d="M 1447.402344 10.421875 C 1444.992188 11.453125 1442.695312 13.058594 1440.746094 15.003906 L 1432.941406 22.910156 L 1425.253906 30.699219 C 1429.039062 33.5625 1433.628906 35.050781 1438.449219 35.050781 C 1441.664062 35.050781 1444.761719 34.363281 1447.515625 33.101562 C 1449.925781 31.957031 1452.222656 30.46875 1454.175781 28.519531 L 1469.78125 12.828125 C 1463.125 8.019531 1454.632812 7.214844 1447.402344 10.421875 Z M 1447.402344 10.421875 " fill-opacity="1" fill-rule="nonzero"/><path fill="#e9ac64" d="M 1374.753906 10.421875 C 1372.34375 11.453125 1370.046875 13.058594 1368.097656 15.003906 L 1360.292969 22.910156 L 1352.605469 30.699219 C 1356.390625 33.5625 1360.980469 35.050781 1365.800781 35.050781 C 1369.015625 35.050781 1372.113281 34.363281 1374.867188 33.101562 C 1377.277344 31.957031 1379.574219 30.46875 1381.523438 28.519531 L 1397.132812 12.828125 C 1390.476562 8.019531 1381.984375 7.214844 1374.753906 10.421875 Z M 1374.753906 10.421875 " fill-opacity="1" fill-rule="nonzero"/><path fill="#e9ac64" d="M 938.863281 10.421875 C 936.453125 11.453125 934.15625 13.058594 932.207031 15.003906 L 924.402344 22.910156 L 916.710938 30.699219 C 920.5 33.5625 925.089844 35.050781 929.910156 35.050781 C 933.125 35.050781 936.222656 34.363281 938.976562 33.101562 C 941.386719 31.957031 943.683594 30.46875 945.632812 28.519531 L 961.242188 12.828125 C 954.585938 8.019531 946.09375 7.214844 938.863281 10.421875 Z M 938.863281 10.421875 " fill-opacity="1" fill-rule="nonzero"/><path fill="#e9ac64" d="M 902.59375 10.421875 C 900.183594 11.453125 897.890625 13.058594 895.9375 15.003906 L 888.132812 22.910156 L 880.445312 30.699219 C 884.230469 33.5625 888.824219 35.050781 893.644531 35.050781 C 896.855469 35.050781 899.957031 34.363281 902.710938 33.101562 C 905.121094 31.957031 907.414062 30.46875 909.367188 28.519531 L 924.859375 12.828125 C 918.320312 8.019531 909.710938 7.214844 902.59375 10.421875 Z M 902.59375 10.421875 " fill-opacity="1" fill-rule="nonzero"/><path fill="#e9ac64" d="M 866.214844 10.421875 C 863.804688 11.453125 861.507812 13.058594 859.558594 15.003906 L 851.753906 22.910156 L 844.0625 30.699219 C 847.851562 33.5625 852.441406 35.050781 857.261719 35.050781 C 860.476562 35.050781 863.574219 34.363281 866.328125 33.101562 C 868.738281 31.957031 871.035156 30.46875 872.984375 28.519531 L 888.59375 12.828125 C 881.9375 8.019531 873.445312 7.214844 866.214844 10.421875 Z M 866.214844 10.421875 " fill-opacity="1" fill-rule="nonzero"/><path fill="#e9ac64" d="M 829.945312 10.421875 C 827.535156 11.453125 825.242188 13.058594 823.289062 15.003906 L 815.484375 22.910156 L 807.796875 30.699219 C 811.582031 33.5625 816.175781 35.050781 820.996094 35.050781 C 824.207031 35.050781 827.308594 34.363281 830.0625 33.101562 C 832.472656 31.957031 834.765625 30.46875 836.71875 28.519531 L 852.328125 12.828125 C 845.667969 8.019531 837.0625 7.214844 829.945312 10.421875 Z M 829.945312 10.421875 " fill-opacity="1" fill-rule="nonzero"/><path fill="#e9ac64" d="M 793.566406 10.421875 C 791.15625 11.453125 788.859375 13.058594 786.910156 15.003906 L 779.105469 22.910156 L 771.414062 30.699219 C 775.203125 33.5625 779.792969 35.050781 784.613281 35.050781 C 787.828125 35.050781 790.925781 34.363281 793.679688 33.101562 C 796.089844 31.957031 798.386719 30.46875 800.335938 28.519531 L 815.828125 12.828125 C 809.289062 8.019531 800.796875 7.214844 793.566406 10.421875 Z M 793.566406 10.421875 " fill-opacity="1" fill-rule="nonzero"/><path fill="#e9ac64" d="M 1011.511719 10.421875 C 1009.101562 11.453125 1006.804688 13.058594 1004.855469 15.003906 L 997.050781 22.910156 L 989.359375 30.699219 C 993.148438 33.5625 997.738281 35.050781 1002.558594 35.050781 C 1005.773438 35.050781 1008.871094 34.363281 1011.625 33.101562 C 1014.035156 31.957031 1016.332031 30.46875 1018.28125 28.519531 L 1033.890625 12.828125 C 1027.234375 8.019531 1018.742188 7.214844 1011.511719 10.421875 Z M 1011.511719 10.421875 " fill-opacity="1" fill-rule="nonzero"/><path fill="#e9ac64" d="M 757.296875 10.421875 C 754.886719 11.453125 752.59375 13.058594 750.640625 15.003906 L 742.835938 22.910156 L 735.148438 30.699219 C 738.933594 33.5625 743.527344 35.050781 748.347656 35.050781 C 751.558594 35.050781 754.660156 34.363281 757.414062 33.101562 C 759.824219 31.957031 762.117188 30.46875 764.070312 28.519531 L 779.679688 12.828125 C 773.019531 8.019531 764.414062 7.214844 757.296875 10.421875 Z M 757.296875 10.421875 " fill-opacity="1" fill-rule="nonzero"/><path fill="#e9ac64" d="M 1047.890625 10.421875 C 1045.480469 11.453125 1043.1875 13.058594 1041.234375 15.003906 L 1033.433594 22.910156 L 1025.742188 30.699219 C 1029.53125 33.5625 1034.121094 35.050781 1038.941406 35.050781 C 1042.152344 35.050781 1045.253906 34.363281 1048.007812 33.101562 C 1050.417969 31.957031 1052.710938 30.46875 1054.664062 28.519531 L 1070.273438 12.828125 C 1063.617188 8.019531 1055.007812 7.214844 1047.890625 10.421875 Z M 1047.890625 10.421875 " fill-opacity="1" fill-rule="nonzero"/><path fill="#e9ac64" d="M 1084.160156 10.421875 C 1081.75 11.453125 1079.453125 13.058594 1077.503906 15.003906 L 1069.699219 22.910156 L 1062.007812 30.699219 C 1065.796875 33.5625 1070.386719 35.050781 1075.207031 35.050781 C 1078.421875 35.050781 1081.519531 34.363281 1084.273438 33.101562 C 1086.683594 31.957031 1088.980469 30.46875 1090.929688 28.519531 L 1106.539062 12.828125 C 1099.882812 8.019531 1091.390625 7.214844 1084.160156 10.421875 Z M 1084.160156 10.421875 " fill-opacity="1" fill-rule="nonzero"/><path fill="#e9ac64" d="M 975.242188 10.421875 C 972.832031 11.453125 970.539062 13.058594 968.585938 15.003906 L 960.78125 22.910156 L 953.09375 30.699219 C 956.878906 33.5625 961.472656 35.050781 966.292969 35.050781 C 969.503906 35.050781 972.605469 34.363281 975.359375 33.101562 C 977.769531 31.957031 980.0625 30.46875 982.015625 28.519531 L 997.625 12.828125 C 990.96875 8.019531 982.359375 7.214844 975.242188 10.421875 Z M 975.242188 10.421875 " fill-opacity="1" fill-rule="nonzero"/></svg>