<svg xmlns="http://www.w3.org/2000/svg" xmlns:xlink="http://www.w3.org/1999/xlink" width="1987" zoomAndPan="magnify" viewBox="0 0 1490.25 85.499998" height="114" preserveAspectRatio="xMidYMid meet" version="1.0"><defs><clipPath id="f7b6c662aa"><path d="M 10 22 L 1477 22 L 1477 63.382812 L 10 63.382812 Z M 10 22 " clip-rule="nonzero"/></clipPath></defs><g clip-path="url(#f7b6c662aa)"><path fill="#7d5148" d="M 1469.972656 28.988281 C 1462.082031 22.621094 1451.640625 21 1442.472656 24.011719 C 1439.222656 25.050781 1436.089844 26.789062 1433.304688 28.988281 C 1425.417969 22.621094 1414.972656 21 1405.804688 24.011719 C 1402.558594 25.050781 1399.425781 26.789062 1396.640625 28.988281 C 1388.75 22.621094 1378.304688 21 1369.140625 24.011719 C 1365.890625 25.050781 1362.757812 26.789062 1359.972656 28.988281 C 1352.082031 22.621094 1341.636719 21 1332.472656 24.011719 C 1329.222656 25.050781 1326.089844 26.789062 1323.304688 28.988281 C 1315.414062 22.621094 1304.972656 21 1295.804688 24.011719 C 1292.554688 25.050781 1289.421875 26.789062 1286.636719 28.988281 C 1278.746094 22.621094 1268.304688 21 1259.136719 24.011719 C 1255.886719 25.050781 1252.753906 26.789062 1249.96875 28.988281 C 1242.082031 22.621094 1231.636719 21 1222.46875 24.011719 C 1219.222656 25.050781 1216.089844 26.789062 1213.304688 28.988281 C 1205.414062 22.621094 1194.96875 21 1185.804688 24.011719 C 1182.554688 25.050781 1179.421875 26.789062 1176.636719 28.988281 C 1168.746094 22.621094 1158.300781 21 1149.136719 24.011719 C 1145.886719 25.050781 1142.753906 26.789062 1139.96875 28.988281 C 1132.078125 22.621094 1121.636719 21 1112.46875 24.011719 C 1109.21875 25.050781 1106.085938 26.789062 1103.300781 28.988281 C 1095.410156 22.621094 1084.96875 21 1075.800781 24.011719 C 1072.550781 25.050781 1069.417969 26.789062 1066.632812 28.988281 C 1058.742188 22.621094 1048.300781 21 1039.132812 24.011719 C 1035.886719 25.050781 1032.753906 26.789062 1029.96875 28.988281 C 1022.078125 22.621094 1011.632812 21 1002.46875 24.011719 C 999.21875 25.050781 996.085938 26.789062 993.300781 28.988281 C 985.410156 22.621094 974.964844 21 965.800781 24.011719 C 962.550781 25.050781 959.417969 26.789062 956.632812 28.988281 C 948.742188 22.621094 938.300781 21 929.132812 24.011719 C 925.882812 25.050781 922.75 26.789062 919.964844 28.988281 C 912.074219 22.621094 901.632812 21 892.464844 24.011719 C 889.214844 25.050781 886.082031 26.789062 883.296875 28.988281 C 875.40625 22.621094 864.964844 21 855.796875 24.011719 C 852.550781 25.050781 849.414062 26.789062 846.632812 28.988281 C 838.742188 22.621094 828.296875 21 819.128906 24.011719 C 815.882812 25.050781 812.75 26.789062 809.964844 28.988281 C 802.074219 22.621094 791.628906 21 782.464844 24.011719 C 779.214844 25.050781 776.082031 26.789062 773.296875 28.988281 C 765.40625 22.621094 754.964844 21 745.796875 24.011719 C 742.546875 25.050781 739.414062 26.789062 736.628906 28.988281 C 728.738281 22.621094 718.296875 21 709.128906 24.011719 C 705.878906 25.050781 702.746094 26.789062 699.960938 28.988281 C 692.070312 22.621094 681.628906 21 672.460938 24.011719 C 669.210938 25.050781 666.078125 26.789062 663.292969 28.988281 C 654.246094 22.621094 643.800781 20.882812 634.519531 24.011719 C 631.269531 25.050781 628.136719 26.789062 625.351562 28.988281 C 617.460938 22.621094 607.019531 21 597.851562 24.011719 C 594.601562 25.050781 591.46875 26.789062 588.683594 28.988281 C 580.792969 22.621094 570.351562 21 561.183594 24.011719 C 557.933594 25.050781 554.800781 26.789062 552.015625 28.988281 C 544.011719 22.621094 533.566406 20.882812 524.402344 24.011719 C 521.152344 25.050781 518.019531 26.789062 515.234375 28.988281 C 507.34375 22.621094 496.902344 21 487.734375 24.011719 C 484.484375 25.050781 481.351562 26.789062 478.566406 28.988281 C 470.675781 22.621094 460.234375 21 451.066406 24.011719 C 447.816406 25.050781 444.683594 26.789062 441.898438 28.988281 C 434.007812 22.621094 423.566406 21 414.398438 24.011719 C 411.148438 25.050781 408.015625 26.789062 405.230469 28.988281 C 397.34375 22.621094 386.898438 21 377.730469 24.011719 C 374.484375 25.050781 371.351562 26.789062 368.566406 28.988281 C 360.675781 22.621094 350.230469 21 341.066406 24.011719 C 337.816406 25.050781 334.683594 26.789062 331.898438 28.988281 C 324.007812 22.621094 313.5625 21 304.398438 24.011719 C 301.148438 25.050781 298.015625 26.789062 295.230469 28.988281 C 287.339844 22.621094 276.898438 21 267.730469 24.011719 C 264.480469 25.050781 261.347656 26.789062 258.5625 28.988281 C 250.671875 22.621094 240.230469 21 231.0625 24.011719 C 227.8125 25.050781 224.679688 26.789062 221.894531 28.988281 C 214.007812 22.621094 203.5625 21 194.394531 24.011719 C 191.148438 25.050781 188.015625 26.789062 185.230469 28.988281 C 177.339844 22.621094 166.894531 21 157.730469 24.011719 C 154.480469 25.050781 151.347656 26.789062 148.5625 28.988281 C 140.671875 22.621094 130.226562 21 121.0625 24.011719 C 117.8125 25.050781 114.679688 26.789062 111.894531 28.988281 C 104.003906 22.621094 93.5625 21 84.394531 24.011719 C 81.144531 25.050781 78.011719 26.789062 75.226562 28.988281 C 67.335938 22.621094 56.894531 21 47.726562 24.011719 C 44.476562 25.050781 41.34375 26.789062 38.558594 28.988281 C 29.859375 22.621094 19.414062 20.882812 10.246094 24.011719 L 10.246094 61.878906 C 13.613281 60.835938 16.628906 59.101562 19.414062 56.898438 C 24.636719 61.070312 31.019531 63.382812 37.75 63.382812 C 40.882812 63.382812 44.015625 62.921875 46.914062 61.878906 C 50.28125 60.835938 53.296875 59.101562 56.082031 56.898438 C 61.304688 61.070312 67.683594 63.382812 74.414062 63.382812 C 77.546875 63.382812 80.679688 62.921875 83.582031 61.878906 C 86.945312 60.835938 89.964844 59.101562 92.75 56.898438 C 97.96875 61.070312 104.351562 63.382812 111.082031 63.382812 C 114.214844 63.382812 117.347656 62.921875 120.25 61.878906 C 123.613281 60.835938 126.632812 59.101562 129.417969 56.898438 C 134.636719 61.070312 141.019531 63.382812 147.75 63.382812 C 150.882812 63.382812 154.015625 62.921875 156.917969 61.878906 C 160.28125 60.835938 163.296875 59.101562 166.082031 56.898438 C 171.304688 61.070312 177.6875 63.382812 184.417969 63.382812 C 187.550781 63.382812 190.683594 62.921875 193.582031 61.878906 C 196.949219 60.835938 199.964844 59.101562 202.75 56.898438 C 207.972656 61.070312 214.355469 63.382812 221.085938 63.382812 C 224.21875 63.382812 227.351562 62.921875 230.25 61.878906 C 233.617188 60.835938 236.632812 59.101562 239.417969 56.898438 C 244.640625 61.070312 251.019531 63.382812 257.75 63.382812 C 260.882812 63.382812 264.015625 62.921875 266.917969 61.878906 C 270.28125 60.835938 273.300781 59.101562 276.085938 56.898438 C 281.304688 61.070312 287.6875 63.382812 294.417969 63.382812 C 297.550781 63.382812 300.683594 62.921875 303.585938 61.878906 C 306.949219 60.835938 309.96875 59.101562 312.753906 56.898438 C 317.972656 61.070312 324.355469 63.382812 331.085938 63.382812 C 334.21875 63.382812 337.351562 62.921875 340.253906 61.878906 C 343.617188 60.835938 346.632812 59.101562 349.417969 56.898438 C 354.640625 61.070312 361.023438 63.382812 367.753906 63.382812 C 370.886719 63.382812 374.019531 62.921875 376.917969 61.878906 C 380.285156 60.835938 383.300781 59.101562 386.085938 56.898438 C 391.308594 61.070312 397.691406 63.382812 404.421875 63.382812 C 407.554688 63.382812 410.6875 62.921875 413.585938 61.878906 C 416.953125 60.835938 419.96875 59.101562 422.753906 56.898438 C 427.976562 61.070312 434.355469 63.382812 441.085938 63.382812 C 444.21875 63.382812 447.351562 62.921875 450.253906 61.878906 C 453.617188 60.835938 456.636719 59.101562 459.421875 56.898438 C 464.640625 61.070312 471.023438 63.382812 477.753906 63.382812 C 480.886719 63.382812 484.019531 62.921875 486.921875 61.878906 C 490.285156 60.835938 493.304688 59.101562 496.089844 56.898438 C 501.308594 61.070312 507.691406 63.382812 514.421875 63.382812 C 517.554688 63.382812 520.6875 62.921875 523.589844 61.878906 C 526.953125 60.835938 529.96875 59.101562 532.753906 56.898438 C 537.976562 61.070312 544.359375 63.382812 551.089844 63.382812 C 554.222656 63.382812 557.355469 62.921875 560.253906 61.878906 C 563.621094 60.835938 566.636719 59.101562 569.421875 56.898438 C 574.644531 61.070312 581.027344 63.382812 587.757812 63.382812 C 590.890625 63.382812 594.023438 62.921875 596.921875 61.878906 C 600.289062 60.835938 603.304688 59.101562 606.089844 56.898438 C 611.3125 61.070312 617.691406 63.382812 624.421875 63.382812 C 627.554688 63.382812 630.6875 62.921875 633.589844 61.878906 C 636.953125 60.835938 639.972656 59.101562 642.757812 56.898438 C 647.976562 61.070312 654.359375 63.382812 661.089844 63.382812 C 664.222656 63.382812 667.355469 62.921875 670.257812 61.878906 C 673.621094 60.835938 676.640625 59.101562 679.425781 56.898438 C 684.644531 61.070312 691.027344 63.382812 697.757812 63.382812 C 700.890625 63.382812 704.023438 62.921875 706.925781 61.878906 C 710.289062 60.835938 713.304688 59.101562 716.089844 56.898438 C 721.3125 61.070312 727.695312 63.382812 734.425781 63.382812 C 737.558594 63.382812 740.691406 62.921875 743.589844 61.878906 C 746.957031 60.835938 749.972656 59.101562 752.757812 56.898438 C 757.980469 61.070312 764.363281 63.382812 771.09375 63.382812 C 774.226562 63.382812 777.359375 62.921875 780.257812 61.878906 C 783.625 60.835938 786.640625 59.101562 789.425781 56.898438 C 794.648438 61.070312 801.03125 63.382812 807.757812 63.382812 C 810.890625 63.382812 814.023438 62.921875 816.925781 61.878906 C 820.292969 60.835938 823.308594 59.101562 826.09375 56.898438 C 831.316406 61.070312 837.695312 63.382812 844.425781 63.382812 C 847.558594 63.382812 850.691406 62.921875 853.59375 61.878906 C 856.957031 60.835938 859.976562 59.101562 862.761719 56.898438 C 867.980469 61.070312 874.363281 63.382812 881.09375 63.382812 C 884.226562 63.382812 887.359375 62.921875 890.261719 61.878906 C 893.625 60.835938 896.644531 59.101562 899.425781 56.898438 C 904.648438 61.070312 911.03125 63.382812 917.761719 63.382812 C 920.894531 63.382812 924.027344 62.921875 926.929688 61.878906 C 930.292969 60.835938 933.308594 59.101562 936.09375 56.898438 C 941.316406 61.070312 947.699219 63.382812 954.429688 63.382812 C 957.5625 63.382812 960.695312 62.921875 963.59375 61.878906 C 966.960938 60.835938 969.976562 59.101562 972.761719 56.898438 C 977.984375 61.070312 984.367188 63.382812 991.09375 63.382812 C 994.230469 63.382812 997.363281 62.921875 1000.261719 61.878906 C 1003.628906 60.835938 1006.644531 59.101562 1009.429688 56.898438 C 1014.652344 61.070312 1021.03125 63.382812 1027.761719 63.382812 C 1030.894531 63.382812 1034.027344 62.921875 1036.929688 61.878906 C 1040.292969 60.835938 1043.3125 59.101562 1046.097656 56.898438 C 1051.316406 61.070312 1057.699219 63.382812 1064.429688 63.382812 C 1067.5625 63.382812 1070.695312 62.921875 1073.597656 61.878906 C 1076.960938 60.835938 1079.980469 59.101562 1082.765625 56.898438 C 1087.984375 61.070312 1094.367188 63.382812 1101.097656 63.382812 C 1104.230469 63.382812 1107.363281 62.921875 1110.265625 61.878906 C 1113.628906 60.835938 1116.644531 59.101562 1119.429688 56.898438 C 1124.652344 61.070312 1131.035156 63.382812 1137.765625 63.382812 C 1140.898438 63.382812 1144.03125 62.921875 1146.929688 61.878906 C 1150.296875 60.835938 1153.3125 59.101562 1156.097656 56.898438 C 1161.320312 61.070312 1167.703125 63.382812 1174.433594 63.382812 C 1177.566406 63.382812 1180.699219 62.921875 1183.597656 61.878906 C 1186.964844 60.835938 1189.980469 59.101562 1192.765625 56.898438 C 1197.988281 61.070312 1204.367188 63.382812 1211.097656 63.382812 C 1214.230469 63.382812 1217.363281 62.921875 1220.265625 61.878906 C 1223.632812 60.835938 1226.648438 59.101562 1229.433594 56.898438 C 1234.65625 61.070312 1241.035156 63.382812 1247.765625 63.382812 C 1250.898438 63.382812 1254.03125 62.921875 1256.933594 61.878906 C 1260.296875 60.835938 1263.316406 59.101562 1266.101562 56.898438 C 1271.320312 61.070312 1277.703125 63.382812 1284.433594 63.382812 C 1287.566406 63.382812 1290.699219 62.921875 1293.601562 61.878906 C 1296.964844 60.835938 1299.984375 59.101562 1302.765625 56.898438 C 1307.988281 61.070312 1314.371094 63.382812 1321.101562 63.382812 C 1324.234375 63.382812 1327.367188 62.921875 1330.269531 61.878906 C 1333.632812 60.835938 1336.648438 59.101562 1339.433594 56.898438 C 1344.65625 61.070312 1351.039062 63.382812 1357.769531 63.382812 C 1360.902344 63.382812 1364.035156 62.921875 1366.933594 61.878906 C 1370.300781 60.835938 1373.316406 59.101562 1376.101562 56.898438 C 1381.324219 61.070312 1387.707031 63.382812 1394.4375 63.382812 C 1397.570312 63.382812 1400.703125 62.921875 1403.601562 61.878906 C 1406.96875 60.835938 1409.984375 59.101562 1412.769531 56.898438 C 1417.992188 61.070312 1424.371094 63.382812 1431.101562 63.382812 C 1434.234375 63.382812 1437.367188 62.921875 1440.269531 61.878906 C 1443.636719 60.835938 1446.652344 59.101562 1449.4375 56.898438 C 1454.660156 61.070312 1461.039062 63.382812 1467.769531 63.382812 C 1470.902344 63.382812 1474.035156 62.921875 1476.9375 61.878906 L 1476.9375 24.011719 C 1475.890625 25.050781 1472.875 26.671875 1469.972656 28.988281 Z M 1469.972656 28.988281 " fill-opacity="1" fill-rule="nonzero"/></g><path fill="#e9ac64" d="M 487.617188 31.421875 C 485.179688 32.464844 482.859375 34.085938 480.886719 36.054688 L 472.996094 44.042969 L 465.222656 51.917969 C 469.050781 54.816406 473.691406 56.320312 478.566406 56.320312 C 481.816406 56.320312 484.949219 55.625 487.734375 54.351562 C 490.171875 53.195312 492.492188 51.6875 494.464844 49.71875 L 510.246094 33.855469 C 503.515625 28.988281 494.929688 28.179688 487.617188 31.421875 Z M 487.617188 31.421875 " fill-opacity="1" fill-rule="nonzero"/><path fill="#e9ac64" d="M 524.402344 31.421875 C 521.964844 32.464844 519.644531 34.085938 517.671875 36.054688 L 509.78125 44.042969 L 502.007812 51.917969 C 505.835938 54.816406 510.476562 56.320312 515.351562 56.320312 C 518.597656 56.320312 521.730469 55.625 524.515625 54.351562 C 526.953125 53.195312 529.273438 51.6875 531.246094 49.71875 L 547.027344 33.855469 C 540.296875 28.988281 531.59375 28.179688 524.402344 31.421875 Z M 524.402344 31.421875 " fill-opacity="1" fill-rule="nonzero"/><path fill="#e9ac64" d="M 450.949219 31.421875 C 448.511719 32.464844 446.191406 34.085938 444.21875 36.054688 L 436.328125 44.042969 L 428.554688 51.917969 C 432.382812 54.816406 437.027344 56.320312 441.898438 56.320312 C 445.148438 56.320312 448.28125 55.625 451.066406 54.351562 C 453.503906 53.195312 455.824219 51.6875 457.796875 49.71875 L 473.578125 33.855469 C 466.847656 28.988281 458.144531 28.179688 450.949219 31.421875 Z M 450.949219 31.421875 " fill-opacity="1" fill-rule="nonzero"/><path fill="#e9ac64" d="M 414.167969 31.421875 C 411.730469 32.464844 409.410156 34.085938 407.4375 36.054688 L 399.546875 44.042969 L 391.773438 51.917969 C 395.601562 54.816406 400.242188 56.320312 405.117188 56.320312 C 408.367188 56.320312 411.5 55.625 414.28125 54.351562 C 416.71875 53.195312 419.039062 51.6875 421.011719 49.71875 L 436.792969 33.855469 C 430.0625 28.988281 421.476562 28.179688 414.167969 31.421875 Z M 414.167969 31.421875 " fill-opacity="1" fill-rule="nonzero"/><path fill="#e9ac64" d="M 561.066406 31.421875 C 558.632812 32.464844 556.3125 34.085938 554.339844 36.054688 L 546.449219 44.042969 L 538.671875 51.917969 C 542.503906 54.816406 547.144531 56.320312 552.015625 56.320312 C 555.265625 56.320312 558.398438 55.625 561.183594 54.351562 C 563.621094 53.195312 565.941406 51.6875 567.914062 49.71875 L 583.695312 33.855469 C 576.964844 28.988281 568.378906 28.179688 561.066406 31.421875 Z M 561.066406 31.421875 " fill-opacity="1" fill-rule="nonzero"/><path fill="#e9ac64" d="M 671.300781 31.421875 C 668.863281 32.464844 666.542969 34.085938 664.570312 36.054688 L 656.679688 44.042969 L 648.90625 51.917969 C 652.734375 54.816406 657.378906 56.320312 662.25 56.320312 C 665.5 56.320312 668.632812 55.625 671.417969 54.351562 C 673.855469 53.195312 676.175781 51.6875 678.148438 49.71875 L 693.929688 33.855469 C 687.199219 28.988281 678.496094 28.179688 671.300781 31.421875 Z M 671.300781 31.421875 " fill-opacity="1" fill-rule="nonzero"/><path fill="#e9ac64" d="M 340.714844 31.421875 C 338.28125 32.464844 335.960938 34.085938 333.988281 36.054688 L 326.097656 44.042969 L 318.320312 51.917969 C 322.152344 54.816406 326.792969 56.320312 331.664062 56.320312 C 334.914062 56.320312 338.046875 55.625 340.832031 54.351562 C 343.269531 53.195312 345.589844 51.6875 347.5625 49.71875 L 363.34375 33.855469 C 356.613281 28.988281 348.027344 28.179688 340.714844 31.421875 Z M 340.714844 31.421875 " fill-opacity="1" fill-rule="nonzero"/><path fill="#e9ac64" d="M 634.519531 31.421875 C 632.082031 32.464844 629.761719 34.085938 627.789062 36.054688 L 619.898438 44.042969 L 612.125 51.917969 C 615.953125 54.816406 620.59375 56.320312 625.46875 56.320312 C 628.714844 56.320312 631.851562 55.625 634.632812 54.351562 C 637.070312 53.195312 639.390625 51.6875 641.363281 49.71875 L 657.144531 33.855469 C 650.414062 28.988281 641.828125 28.179688 634.519531 31.421875 Z M 634.519531 31.421875 " fill-opacity="1" fill-rule="nonzero"/><path fill="#e9ac64" d="M 597.851562 31.421875 C 595.414062 32.464844 593.09375 34.085938 591.121094 36.054688 L 583.230469 44.042969 L 575.457031 51.917969 C 579.285156 54.816406 583.925781 56.320312 588.800781 56.320312 C 592.050781 56.320312 595.183594 55.625 597.96875 54.351562 C 600.402344 53.195312 602.726562 51.6875 604.699219 49.71875 L 620.476562 33.855469 C 613.75 28.988281 605.046875 28.179688 597.851562 31.421875 Z M 597.851562 31.421875 " fill-opacity="1" fill-rule="nonzero"/><path fill="#e9ac64" d="M 120.367188 31.421875 C 117.929688 32.464844 115.609375 34.085938 113.636719 36.054688 L 105.746094 44.042969 L 97.96875 51.917969 C 101.800781 54.816406 106.441406 56.320312 111.316406 56.320312 C 114.5625 56.320312 117.695312 55.625 120.480469 54.351562 C 122.917969 53.195312 125.238281 51.6875 127.210938 49.71875 L 142.992188 33.855469 C 136.378906 28.988281 127.675781 28.179688 120.367188 31.421875 Z M 120.367188 31.421875 " fill-opacity="1" fill-rule="nonzero"/><path fill="#e9ac64" d="M 83.699219 31.421875 C 81.261719 32.464844 78.941406 34.085938 76.96875 36.054688 L 69.078125 44.042969 L 61.304688 51.917969 C 65.132812 54.816406 69.773438 56.320312 74.648438 56.320312 C 77.894531 56.320312 81.03125 55.625 83.8125 54.351562 C 86.25 53.195312 88.570312 51.6875 90.542969 49.71875 L 106.210938 33.855469 C 99.59375 28.988281 91.007812 28.179688 83.699219 31.421875 Z M 83.699219 31.421875 " fill-opacity="1" fill-rule="nonzero"/><path fill="#e9ac64" d="M 707.96875 31.421875 C 705.53125 32.464844 703.210938 34.085938 701.238281 36.054688 L 693.347656 44.042969 L 685.574219 51.917969 C 689.402344 54.816406 694.042969 56.320312 698.917969 56.320312 C 702.167969 56.320312 705.300781 55.625 708.085938 54.351562 C 710.523438 53.195312 712.84375 51.6875 714.816406 49.71875 L 730.597656 33.855469 C 723.867188 28.988281 715.277344 28.179688 707.96875 31.421875 Z M 707.96875 31.421875 " fill-opacity="1" fill-rule="nonzero"/><path fill="#e9ac64" d="M 46.914062 31.421875 C 44.476562 32.464844 42.15625 34.085938 40.183594 36.054688 L 32.292969 44.042969 L 24.519531 51.917969 C 28.347656 54.816406 32.992188 56.320312 37.863281 56.320312 C 41.113281 56.320312 44.246094 55.625 47.03125 54.351562 C 49.46875 53.195312 51.789062 51.6875 53.761719 49.71875 L 69.425781 33.855469 C 62.929688 28.988281 54.226562 28.179688 46.914062 31.421875 Z M 46.914062 31.421875 " fill-opacity="1" fill-rule="nonzero"/><path fill="#e9ac64" d="M 32.757812 33.855469 C 26.144531 28.988281 17.558594 28.179688 10.246094 31.421875 L 10.246094 54.351562 C 12.683594 53.195312 15.003906 51.6875 16.976562 49.71875 Z M 32.757812 33.855469 " fill-opacity="1" fill-rule="nonzero"/><path fill="#e9ac64" d="M 1464.519531 44.042969 L 1456.746094 51.917969 C 1460.574219 54.816406 1465.214844 56.320312 1470.089844 56.320312 C 1473.339844 56.320312 1476.472656 55.625 1479.257812 54.351562 L 1479.257812 31.421875 C 1476.820312 32.464844 1474.5 34.085938 1472.527344 36.054688 Z M 1464.519531 44.042969 " fill-opacity="1" fill-rule="nonzero"/><path fill="#e9ac64" d="M 230.597656 31.421875 C 228.164062 32.464844 225.839844 34.085938 223.867188 36.054688 L 215.980469 44.042969 L 208.203125 51.917969 C 212.035156 54.816406 216.675781 56.320312 221.546875 56.320312 C 224.796875 56.320312 227.929688 55.625 230.714844 54.351562 C 233.152344 53.195312 235.472656 51.6875 237.445312 49.71875 L 253.226562 33.855469 C 246.496094 28.988281 237.910156 28.179688 230.597656 31.421875 Z M 230.597656 31.421875 " fill-opacity="1" fill-rule="nonzero"/><path fill="#e9ac64" d="M 267.265625 31.421875 C 264.828125 32.464844 262.507812 34.085938 260.535156 36.054688 L 252.644531 44.042969 L 244.871094 51.917969 C 248.699219 54.816406 253.34375 56.320312 258.214844 56.320312 C 261.464844 56.320312 264.597656 55.625 267.382812 54.351562 C 269.820312 53.195312 272.140625 51.6875 274.113281 49.71875 L 289.894531 33.855469 C 283.164062 28.988281 274.578125 28.179688 267.265625 31.421875 Z M 267.265625 31.421875 " fill-opacity="1" fill-rule="nonzero"/><path fill="#e9ac64" d="M 157.148438 31.421875 C 154.710938 32.464844 152.390625 34.085938 150.417969 36.054688 L 142.527344 44.042969 L 134.753906 51.917969 C 138.582031 54.816406 143.222656 56.320312 148.097656 56.320312 C 151.347656 56.320312 154.480469 55.625 157.265625 54.351562 C 159.703125 53.195312 162.023438 51.6875 163.996094 49.71875 L 179.660156 33.855469 C 173.046875 28.988281 164.457031 28.179688 157.148438 31.421875 Z M 157.148438 31.421875 " fill-opacity="1" fill-rule="nonzero"/><path fill="#e9ac64" d="M 304.050781 31.421875 C 301.613281 32.464844 299.292969 34.085938 297.320312 36.054688 L 289.429688 44.042969 L 281.65625 51.917969 C 285.484375 54.816406 290.125 56.320312 295 56.320312 C 298.246094 56.320312 301.378906 55.625 304.164062 54.351562 C 306.601562 53.195312 308.921875 51.6875 310.894531 49.71875 L 326.675781 33.855469 C 319.945312 28.988281 311.359375 28.179688 304.050781 31.421875 Z M 304.050781 31.421875 " fill-opacity="1" fill-rule="nonzero"/><path fill="#e9ac64" d="M 193.816406 31.421875 C 191.378906 32.464844 189.058594 34.085938 187.085938 36.054688 L 179.195312 44.042969 L 171.421875 51.917969 C 175.25 54.816406 179.890625 56.320312 184.765625 56.320312 C 188.015625 56.320312 191.148438 55.625 193.933594 54.351562 C 196.367188 53.195312 198.6875 51.6875 200.660156 49.71875 L 216.441406 33.855469 C 209.710938 28.988281 201.125 28.179688 193.816406 31.421875 Z M 193.816406 31.421875 " fill-opacity="1" fill-rule="nonzero"/><path fill="#e9ac64" d="M 377.5 31.421875 C 375.0625 32.464844 372.742188 34.085938 370.769531 36.054688 L 362.878906 44.042969 L 355.105469 51.917969 C 358.933594 54.816406 363.574219 56.320312 368.449219 56.320312 C 371.699219 56.320312 374.832031 55.625 377.617188 54.351562 C 380.050781 53.195312 382.375 51.6875 384.347656 49.71875 L 400.125 33.855469 C 393.398438 28.988281 384.808594 28.179688 377.5 31.421875 Z M 377.5 31.421875 " fill-opacity="1" fill-rule="nonzero"/><path fill="#e9ac64" d="M 1295.574219 31.421875 C 1293.136719 32.464844 1290.816406 34.085938 1288.84375 36.054688 L 1280.953125 44.042969 L 1273.175781 51.917969 C 1277.007812 54.816406 1281.648438 56.320312 1286.523438 56.320312 C 1289.769531 56.320312 1292.902344 55.625 1295.6875 54.351562 C 1298.125 53.195312 1300.445312 51.6875 1302.417969 49.71875 L 1318.199219 33.855469 C 1311.46875 28.988281 1302.882812 28.179688 1295.574219 31.421875 Z M 1295.574219 31.421875 " fill-opacity="1" fill-rule="nonzero"/><path fill="#e9ac64" d="M 1222.121094 31.421875 C 1219.683594 32.464844 1217.363281 34.085938 1215.390625 36.054688 L 1207.5 44.042969 L 1199.726562 51.917969 C 1203.554688 54.816406 1208.199219 56.320312 1213.070312 56.320312 C 1216.320312 56.320312 1219.453125 55.625 1222.238281 54.351562 C 1224.675781 53.195312 1226.996094 51.6875 1228.96875 49.71875 L 1244.75 33.855469 C 1238.019531 28.988281 1229.433594 28.179688 1222.121094 31.421875 Z M 1222.121094 31.421875 " fill-opacity="1" fill-rule="nonzero"/><path fill="#e9ac64" d="M 1258.90625 31.421875 C 1256.46875 32.464844 1254.148438 34.085938 1252.175781 36.054688 L 1244.285156 44.042969 L 1236.511719 51.917969 C 1240.339844 54.816406 1244.980469 56.320312 1249.855469 56.320312 C 1253.101562 56.320312 1256.238281 55.625 1259.019531 54.351562 C 1261.457031 53.195312 1263.777344 51.6875 1265.75 49.71875 L 1281.53125 33.855469 C 1274.800781 28.988281 1266.097656 28.179688 1258.90625 31.421875 Z M 1258.90625 31.421875 " fill-opacity="1" fill-rule="nonzero"/><path fill="#e9ac64" d="M 1185.453125 31.421875 C 1183.019531 32.464844 1180.699219 34.085938 1178.726562 36.054688 L 1170.835938 44.042969 L 1163.058594 51.917969 C 1166.890625 54.816406 1171.53125 56.320312 1176.402344 56.320312 C 1179.652344 56.320312 1182.785156 55.625 1185.570312 54.351562 C 1188.007812 53.195312 1190.328125 51.6875 1192.300781 49.71875 L 1208.082031 33.855469 C 1201.351562 28.988281 1192.648438 28.179688 1185.453125 31.421875 Z M 1185.453125 31.421875 " fill-opacity="1" fill-rule="nonzero"/><path fill="#e9ac64" d="M 1148.671875 31.421875 C 1146.234375 32.464844 1143.914062 34.085938 1141.941406 36.054688 L 1134.050781 44.042969 L 1126.277344 51.917969 C 1130.105469 54.816406 1134.746094 56.320312 1139.621094 56.320312 C 1142.871094 56.320312 1146.003906 55.625 1148.789062 54.351562 C 1151.222656 53.195312 1153.546875 51.6875 1155.519531 49.71875 L 1171.296875 33.855469 C 1164.570312 28.988281 1155.980469 28.179688 1148.671875 31.421875 Z M 1148.671875 31.421875 " fill-opacity="1" fill-rule="nonzero"/><path fill="#e9ac64" d="M 1332.355469 31.421875 C 1329.917969 32.464844 1327.597656 34.085938 1325.625 36.054688 L 1317.734375 44.042969 L 1309.960938 51.917969 C 1313.789062 54.816406 1318.429688 56.320312 1323.304688 56.320312 C 1326.554688 56.320312 1329.6875 55.625 1332.472656 54.351562 C 1334.910156 53.195312 1337.230469 51.6875 1339.203125 49.71875 L 1354.984375 33.855469 C 1348.253906 28.988281 1339.550781 28.179688 1332.355469 31.421875 Z M 1332.355469 31.421875 " fill-opacity="1" fill-rule="nonzero"/><path fill="#e9ac64" d="M 1112.003906 31.421875 C 1109.566406 32.464844 1107.246094 34.085938 1105.273438 36.054688 L 1097.382812 44.042969 L 1089.609375 51.917969 C 1093.4375 54.816406 1098.082031 56.320312 1102.953125 56.320312 C 1106.203125 56.320312 1109.335938 55.625 1112.121094 54.351562 C 1114.558594 53.195312 1116.878906 51.6875 1118.851562 49.71875 L 1134.632812 33.855469 C 1127.902344 28.988281 1119.199219 28.179688 1112.003906 31.421875 Z M 1112.003906 31.421875 " fill-opacity="1" fill-rule="nonzero"/><path fill="#e9ac64" d="M 1405.804688 31.421875 C 1403.371094 32.464844 1401.046875 34.085938 1399.074219 36.054688 L 1391.183594 44.042969 L 1383.410156 51.917969 C 1387.242188 54.816406 1391.882812 56.320312 1396.753906 56.320312 C 1400.003906 56.320312 1403.136719 55.625 1405.921875 54.351562 C 1408.359375 53.195312 1410.679688 51.6875 1412.652344 49.71875 L 1428.199219 33.855469 C 1421.703125 28.988281 1413 28.179688 1405.804688 31.421875 Z M 1405.804688 31.421875 " fill-opacity="1" fill-rule="nonzero"/><path fill="#e9ac64" d="M 1442.472656 31.421875 C 1440.035156 32.464844 1437.714844 34.085938 1435.742188 36.054688 L 1427.851562 44.042969 L 1420.078125 51.917969 C 1423.90625 54.816406 1428.550781 56.320312 1433.421875 56.320312 C 1436.671875 56.320312 1439.804688 55.625 1442.589844 54.351562 C 1445.027344 53.195312 1447.347656 51.6875 1449.320312 49.71875 L 1465.101562 33.855469 C 1458.371094 28.988281 1449.785156 28.179688 1442.472656 31.421875 Z M 1442.472656 31.421875 " fill-opacity="1" fill-rule="nonzero"/><path fill="#e9ac64" d="M 1369.023438 31.421875 C 1366.585938 32.464844 1364.265625 34.085938 1362.292969 36.054688 L 1354.402344 44.042969 L 1346.628906 51.917969 C 1350.457031 54.816406 1355.097656 56.320312 1359.972656 56.320312 C 1363.222656 56.320312 1366.355469 55.625 1369.140625 54.351562 C 1371.574219 53.195312 1373.894531 51.6875 1375.867188 49.71875 L 1391.648438 33.855469 C 1384.917969 28.988281 1376.332031 28.179688 1369.023438 31.421875 Z M 1369.023438 31.421875 " fill-opacity="1" fill-rule="nonzero"/><path fill="#e9ac64" d="M 928.320312 31.421875 C 925.882812 32.464844 923.5625 34.085938 921.589844 36.054688 L 913.699219 44.042969 L 905.925781 51.917969 C 909.753906 54.816406 914.394531 56.320312 919.269531 56.320312 C 922.519531 56.320312 925.652344 55.625 928.4375 54.351562 C 930.871094 53.195312 933.195312 51.6875 935.167969 49.71875 L 950.945312 33.855469 C 944.21875 28.988281 935.628906 28.179688 928.320312 31.421875 Z M 928.320312 31.421875 " fill-opacity="1" fill-rule="nonzero"/><path fill="#e9ac64" d="M 891.652344 31.421875 C 889.214844 32.464844 886.894531 34.085938 884.921875 36.054688 L 877.03125 44.042969 L 869.257812 51.917969 C 873.085938 54.816406 877.730469 56.320312 882.601562 56.320312 C 885.851562 56.320312 888.984375 55.625 891.769531 54.351562 C 894.207031 53.195312 896.527344 51.6875 898.5 49.71875 L 914.164062 33.855469 C 907.550781 28.988281 898.847656 28.179688 891.652344 31.421875 Z M 891.652344 31.421875 " fill-opacity="1" fill-rule="nonzero"/><path fill="#e9ac64" d="M 854.871094 31.421875 C 852.433594 32.464844 850.113281 34.085938 848.140625 36.054688 L 840.25 44.042969 L 832.476562 51.917969 C 836.304688 54.816406 840.945312 56.320312 845.820312 56.320312 C 849.066406 56.320312 852.199219 55.625 854.984375 54.351562 C 857.421875 53.195312 859.742188 51.6875 861.714844 49.71875 L 877.496094 33.855469 C 870.765625 28.988281 862.179688 28.179688 854.871094 31.421875 Z M 854.871094 31.421875 " fill-opacity="1" fill-rule="nonzero"/><path fill="#e9ac64" d="M 818.203125 31.421875 C 815.765625 32.464844 813.445312 34.085938 811.472656 36.054688 L 803.582031 44.042969 L 795.808594 51.917969 C 799.636719 54.816406 804.277344 56.320312 809.152344 56.320312 C 812.402344 56.320312 815.535156 55.625 818.320312 54.351562 C 820.753906 53.195312 823.074219 51.6875 825.046875 49.71875 L 840.828125 33.855469 C 834.097656 28.988281 825.398438 28.179688 818.203125 31.421875 Z M 818.203125 31.421875 " fill-opacity="1" fill-rule="nonzero"/><path fill="#e9ac64" d="M 781.417969 31.421875 C 778.984375 32.464844 776.660156 34.085938 774.6875 36.054688 L 766.800781 44.042969 L 759.023438 51.917969 C 762.855469 54.816406 767.496094 56.320312 772.367188 56.320312 C 775.617188 56.320312 778.75 55.625 781.535156 54.351562 C 783.972656 53.195312 786.292969 51.6875 788.265625 49.71875 L 803.929688 33.855469 C 797.316406 28.988281 788.730469 28.179688 781.417969 31.421875 Z M 781.417969 31.421875 " fill-opacity="1" fill-rule="nonzero"/><path fill="#e9ac64" d="M 1001.769531 31.421875 C 999.332031 32.464844 997.011719 34.085938 995.039062 36.054688 L 987.148438 44.042969 L 979.375 51.917969 C 983.203125 54.816406 987.847656 56.320312 992.71875 56.320312 C 995.96875 56.320312 999.101562 55.625 1001.886719 54.351562 C 1004.324219 53.195312 1006.644531 51.6875 1008.617188 49.71875 L 1024.398438 33.855469 C 1017.667969 28.988281 1009.082031 28.179688 1001.769531 31.421875 Z M 1001.769531 31.421875 " fill-opacity="1" fill-rule="nonzero"/><path fill="#e9ac64" d="M 744.753906 31.421875 C 742.316406 32.464844 739.996094 34.085938 738.023438 36.054688 L 730.132812 44.042969 L 722.355469 51.917969 C 726.1875 54.816406 730.828125 56.320312 735.703125 56.320312 C 738.949219 56.320312 742.082031 55.625 744.867188 54.351562 C 747.304688 53.195312 749.625 51.6875 751.597656 49.71875 L 767.378906 33.855469 C 760.648438 28.988281 751.945312 28.179688 744.753906 31.421875 Z M 744.753906 31.421875 " fill-opacity="1" fill-rule="nonzero"/><path fill="#e9ac64" d="M 1038.554688 31.421875 C 1036.117188 32.464844 1033.796875 34.085938 1031.824219 36.054688 L 1023.933594 44.042969 L 1016.160156 51.917969 C 1019.988281 54.816406 1024.628906 56.320312 1029.503906 56.320312 C 1032.753906 56.320312 1035.886719 55.625 1038.671875 54.351562 C 1041.105469 53.195312 1043.425781 51.6875 1045.398438 49.71875 L 1061.179688 33.855469 C 1054.449219 28.988281 1045.75 28.179688 1038.554688 31.421875 Z M 1038.554688 31.421875 " fill-opacity="1" fill-rule="nonzero"/><path fill="#e9ac64" d="M 1075.222656 31.421875 C 1072.785156 32.464844 1070.464844 34.085938 1068.492188 36.054688 L 1060.601562 44.042969 L 1052.828125 51.917969 C 1056.65625 54.816406 1061.296875 56.320312 1066.171875 56.320312 C 1069.417969 56.320312 1072.550781 55.625 1075.335938 54.351562 C 1077.773438 53.195312 1080.09375 51.6875 1082.066406 49.71875 L 1097.847656 33.855469 C 1091.117188 28.988281 1082.53125 28.179688 1075.222656 31.421875 Z M 1075.222656 31.421875 " fill-opacity="1" fill-rule="nonzero"/><path fill="#e9ac64" d="M 965.101562 31.421875 C 962.667969 32.464844 960.347656 34.085938 958.375 36.054688 L 950.484375 44.042969 L 942.707031 51.917969 C 946.539062 54.816406 951.179688 56.320312 956.054688 56.320312 C 959.300781 56.320312 962.433594 55.625 965.21875 54.351562 C 967.65625 53.195312 969.976562 51.6875 971.949219 49.71875 L 987.730469 33.855469 C 981 28.988281 972.296875 28.179688 965.101562 31.421875 Z M 965.101562 31.421875 " fill-opacity="1" fill-rule="nonzero"/></svg>