<svg xmlns="http://www.w3.org/2000/svg" version="1.0" viewBox="22 1 2850.75 41.27"><defs><clipPath id="a"><path d="M22 1h1460v41.266H22Zm0 0"/></clipPath><clipPath id="b"><path d="M1411 1h1460v41.266H1411Zm0 0"/></clipPath></defs><g clip-path="url(#a)"><path fill="#7d5148" d="M1474.16 8.063c-7.848-6.336-18.23-7.95-27.348-4.954-3.23 1.036-6.343 2.766-9.113 4.954-7.847-6.336-18.234-7.95-27.347-4.954-3.23 1.036-6.348 2.766-9.118 4.954-7.843-6.336-18.23-7.95-27.343-4.954-3.235 1.036-6.348 2.766-9.118 4.954-7.847-6.336-18.23-7.95-27.347-4.954-3.23 1.036-6.348 2.766-9.117 4.954-7.844-6.336-18.23-7.95-27.344-4.954-3.23 1.036-6.348 2.766-9.117 4.954-7.848-6.336-18.23-7.95-27.348-4.954-3.23 1.036-6.344 2.766-9.113 4.954-7.848-6.336-18.235-7.95-27.348-4.954-3.23 1.036-6.348 2.766-9.117 4.954-7.844-6.336-18.23-7.95-27.348-4.954-3.23 1.036-6.344 2.766-9.113 4.954-7.848-6.336-18.23-7.95-27.348-4.954-3.23 1.036-6.347 2.766-9.117 4.954-7.844-6.336-18.23-7.95-27.344-4.954-3.23 1.036-6.347 2.766-9.117 4.954-7.848-6.336-18.23-7.95-27.348-4.954-3.23 1.036-6.343 2.766-9.113 4.954-7.847-6.336-18.234-7.95-27.347-4.954-3.23 1.036-6.348 2.766-9.118 4.954-7.843-6.336-18.23-7.95-27.347-4.954-3.23 1.036-6.344 2.766-9.114 4.954-7.847-6.336-18.23-7.95-27.347-4.954-3.23 1.036-6.348 2.766-9.117 4.954-7.844-6.336-18.23-7.95-27.344-4.954-3.235 1.036-6.348 2.766-9.117 4.954-7.848-6.336-18.23-7.95-27.348-4.954-3.23 1.036-6.344 2.766-9.113 4.954-7.848-6.336-18.235-7.95-27.348-4.954-3.23 1.036-6.348 2.766-9.117 4.954-7.848-6.336-18.23-7.95-27.348-4.954-3.23 1.036-6.344 2.766-9.113 4.954-7.848-6.336-18.23-7.95-27.348-4.954-3.23 1.036-6.347 2.766-9.117 4.954-7.844-6.336-18.23-7.95-27.348-4.954-3.23 1.036-6.343 2.766-9.113 4.954-7.847-6.336-18.23-7.95-27.347-4.954-3.231 1.036-6.348 2.766-9.118 4.954-7.843-6.336-18.23-7.95-27.343-4.954-3.23 1.036-6.348 2.766-9.118 4.954-9-6.336-19.382-8.063-28.617-4.954-3.23 1.036-6.344 2.766-9.113 4.954-7.848-6.336-18.23-7.95-27.348-4.954-3.23 1.036-6.347 2.766-9.117 4.954-7.844-6.336-18.23-7.95-27.344-4.954-3.23 1.036-6.347 2.766-9.117 4.954-7.96-6.336-18.348-8.063-27.46-4.954-3.231 1.036-6.348 2.766-9.118 4.954-7.848-6.336-18.23-7.95-27.348-4.954-3.23 1.036-6.343 2.766-9.113 4.954-7.848-6.336-18.234-7.95-27.348-4.954-3.23 1.036-6.347 2.766-9.117 4.954-7.844-6.336-18.23-7.95-27.347-4.954-3.23 1.036-6.344 2.766-9.114 4.954-7.847-6.336-18.23-7.95-27.347-4.954-3.23 1.036-6.348 2.766-9.118 4.954-7.843-6.336-18.23-7.95-27.343-4.954-3.23 1.036-6.348 2.766-9.118 4.954-7.847-6.336-18.23-7.95-27.347-4.954-3.23 1.036-6.344 2.766-9.113 4.954-7.848-6.336-18.235-7.95-27.348-4.954-3.23 1.036-6.348 2.766-9.117 4.954-7.844-6.336-18.23-7.95-27.348-4.954-3.23 1.036-6.344 2.766-9.113 4.954-7.848-6.336-18.23-7.95-27.348-4.954-3.23 1.036-6.348 2.766-9.117 4.954-7.844-6.336-18.23-7.95-27.344-4.954-3.23 1.036-6.347 2.766-9.117 4.954-7.848-6.336-18.23-7.95-27.348-4.954-3.23 1.036-6.343 2.766-9.113 4.954-7.848-6.336-18.234-7.95-27.348-4.954-3.23 1.036-6.347 2.766-9.117 4.954-7.844-6.336-18.23-7.95-27.347-4.954-3.23 1.036-6.344 2.766-9.114 4.954C42.082 1.726 31.7 0 22.582 3.109v37.657c3.348-1.036 6.348-2.762 9.117-4.95 5.192 4.145 11.54 6.45 18.23 6.45 3.118 0 6.231-.461 9.118-1.5 3.344-1.036 6.344-2.762 9.113-4.95 5.192 4.145 11.54 6.45 18.23 6.45 3.118 0 6.235-.461 9.118-1.5 3.347-1.036 6.347-2.762 9.117-4.95 5.191 4.145 11.54 6.45 18.23 6.45 3.114 0 6.23-.461 9.114-1.5 3.347-1.036 6.347-2.762 9.117-4.95 5.191 4.145 11.539 6.45 18.23 6.45 3.118 0 6.23-.461 9.118-1.5 3.343-1.036 6.347-2.762 9.113-4.95 5.195 4.145 11.539 6.45 18.234 6.45 3.114 0 6.23-.461 9.114-1.5 3.347-1.036 6.347-2.762 9.117-4.95 5.191 4.145 11.539 6.45 18.23 6.45 3.117 0 6.23-.461 9.117-1.5 3.344-1.036 6.344-2.762 9.114-4.95 5.195 4.145 11.539 6.45 18.23 6.45 3.117 0 6.235-.461 9.117-1.5 3.348-1.036 6.348-2.762 9.118-4.95 5.19 4.145 11.539 6.45 18.23 6.45 3.113 0 6.23-.461 9.113-1.5 3.348-1.036 6.348-2.762 9.117-4.95 5.192 4.145 11.54 6.45 18.23 6.45 3.118 0 6.231-.461 9.118-1.5 3.344-1.036 6.348-2.762 9.113-4.95 5.196 4.145 11.54 6.45 18.235 6.45 3.113 0 6.23-.461 9.113-1.5 3.348-1.036 6.348-2.762 9.117-4.95 5.192 4.145 11.54 6.45 18.23 6.45 3.118 0 6.231-.461 9.118-1.5 3.344-1.036 6.344-2.762 9.113-4.95 5.195 4.145 11.54 6.45 18.23 6.45 3.118 0 6.235-.461 9.118-1.5 3.347-1.036 6.347-2.762 9.117-4.95 5.191 4.145 11.54 6.45 18.23 6.45 3.114 0 6.23-.461 9.114-1.5 3.347-1.036 6.347-2.762 9.117-4.95 5.191 4.145 11.539 6.45 18.23 6.45 3.118 0 6.23-.461 9.118-1.5 3.343-1.036 6.347-2.762 9.113-4.95 5.195 4.145 11.539 6.45 18.234 6.45 3.114 0 6.23-.461 9.114-1.5 3.347-1.036 6.347-2.762 9.117-4.95 5.191 4.145 11.539 6.45 18.23 6.45 3.117 0 6.23-.461 9.117-1.5 3.344-1.036 6.344-2.762 9.114-4.95 5.195 4.145 11.539 6.45 18.23 6.45 3.117 0 6.235-.461 9.117-1.5 3.348-1.036 6.348-2.762 9.117-4.95 5.192 4.145 11.54 6.45 18.231 6.45 3.113 0 6.23-.461 9.113-1.5 3.348-1.036 6.348-2.762 9.117-4.95 5.192 4.145 11.54 6.45 18.23 6.45 3.118 0 6.231-.461 9.118-1.5 3.348-1.036 6.348-2.762 9.117-4.95 5.192 4.145 11.535 6.45 18.23 6.45 3.114 0 6.231-.461 9.114-1.5 3.348-1.036 6.348-2.762 9.117-4.95 5.192 4.145 11.54 6.45 18.23 6.45 3.118 0 6.231-.461 9.118-1.5 3.344-1.036 6.344-2.762 9.113-4.95 5.195 4.145 11.54 6.45 18.235 6.45 3.113 0 6.23-.461 9.113-1.5 3.347-1.036 6.347-2.762 9.117-4.95 5.191 4.145 11.54 6.45 18.23 6.45 3.118 0 6.23-.461 9.118-1.5 3.343-1.036 6.343-2.762 9.113-4.95 5.191 4.145 11.539 6.45 18.23 6.45 3.118 0 6.235-.461 9.118-1.5 3.347-1.036 6.347-2.762 9.117-4.95 5.191 4.145 11.539 6.45 18.23 6.45 3.114 0 6.23-.461 9.114-1.5 3.347-1.036 6.347-2.762 9.117-4.95 5.191 4.145 11.539 6.45 18.23 6.45 3.117 0 6.23-.461 9.117-1.5 3.344-1.036 6.344-2.762 9.114-4.95 5.195 4.145 11.539 6.45 18.234 6.45 3.113 0 6.23-.461 9.113-1.5 3.348-1.036 6.348-2.762 9.117-4.95 5.192 4.145 11.54 6.45 18.231 6.45 3.117 0 6.23-.461 9.117-1.5 3.344-1.036 6.344-2.762 9.113-4.95 5.196 4.145 11.54 6.45 18.23 6.45 3.118 0 6.235-.461 9.118-1.5 3.348-1.036 6.348-2.762 9.117-4.95 5.192 4.145 11.54 6.45 18.23 6.45 3.114 0 6.231-.461 9.114-1.5 3.348-1.036 6.348-2.762 9.117-4.95 5.192 4.145 11.54 6.45 18.23 6.45 3.118 0 6.231-.461 9.118-1.5 3.348-1.036 6.348-2.762 9.117-4.95 5.191 4.145 11.535 6.45 18.23 6.45 3.114 0 6.231-.461 9.114-1.5 3.347-1.036 6.347-2.762 9.117-4.95 5.191 4.145 11.54 6.45 18.23 6.45 3.118 0 6.23-.461 9.118-1.5 3.343-1.036 6.343-2.762 9.113-4.95 5.195 4.145 11.539 6.45 18.234 6.45 3.114 0 6.23-.461 9.114-1.5 3.347-1.036 6.347-2.762 9.117-4.95 5.191 4.145 11.539 6.45 18.23 6.45 3.117 0 6.23-.461 9.117-1.5 3.344-1.036 6.344-2.762 9.114-4.95 5.191 4.145 11.539 6.45 18.23 6.45 3.117 0 6.235-.461 9.117-1.5 3.348-1.036 6.348-2.762 9.118-4.95 5.191 4.145 11.539 6.45 18.23 6.45 3.113 0 6.23-.461 9.113-1.5 3.348-1.036 6.348-2.762 9.118-4.95 5.19 4.145 11.539 6.45 18.23 6.45 3.117 0 6.23-.461 9.117-1.5 3.348-1.036 6.348-2.762 9.117-4.95 5.192 4.145 11.535 6.45 18.23 6.45 3.114 0 6.231-.461 9.114-1.5 3.348-1.036 6.348-2.762 9.117-4.95 5.192 4.145 11.54 6.45 18.23 6.45 3.118 0 6.231-.461 9.118-1.5V3.109c-1.04 1.036-4.04 2.649-6.926 4.954Zm0 0"/></g><path fill="#e9ac64" d="M497.29 10.48c-2.427 1.036-4.731 2.649-6.696 4.606l-7.844 7.945-7.73 7.832c3.804 2.88 8.421 4.375 13.27 4.375 3.23 0 6.343-.691 9.112-1.957 2.426-1.152 4.73-2.648 6.696-4.605l15.691-15.778c-6.691-4.835-15.23-5.644-22.5-2.418Zm36.577 0c-2.426 1.036-4.73 2.649-6.695 4.606l-7.844 7.945-7.73 7.832c3.804 2.88 8.422 4.375 13.27 4.375 3.23 0 6.343-.691 9.112-1.957 2.426-1.152 4.73-2.648 6.692-4.605l15.695-15.778c-6.691-4.835-15.347-5.644-22.5-2.418Zm-73.043 0c-2.422 1.036-4.73 2.649-6.691 4.606l-7.848 7.945-7.73 7.832c3.808 2.88 8.425 4.375 13.27 4.375 3.23 0 6.347-.691 9.116-1.957 2.422-1.152 4.73-2.648 6.692-4.605l15.691-15.778c-6.691-4.835-15.344-5.644-22.5-2.418Zm-36.578 0c-2.422 1.036-4.73 2.649-6.691 4.606l-7.848 7.945-7.73 7.832c3.808 2.88 8.425 4.375 13.27 4.375 3.23 0 6.347-.691 9.116-1.957 2.422-1.152 4.73-2.648 6.692-4.605l15.695-15.778c-6.695-4.835-15.234-5.644-22.504-2.418Zm146.082 0c-2.422 1.036-4.73 2.649-6.691 4.606l-7.848 7.945-7.73 7.832c3.808 2.88 8.421 4.375 13.27 4.375 3.23 0 6.347-.691 9.116-1.957 2.422-1.152 4.73-2.648 6.692-4.605l15.691-15.778c-6.691-4.835-15.23-5.644-22.5-2.418Zm109.617 0c-2.422 1.036-4.73 2.649-6.691 4.606l-7.848 7.945-7.73 7.832c3.808 2.88 8.426 4.375 13.27 4.375 3.23 0 6.347-.691 9.116-1.957 2.422-1.152 4.731-2.648 6.692-4.605l15.695-15.778c-6.695-4.835-15.347-5.644-22.504-2.418Zm-328.738 0c-2.422 1.036-4.73 2.649-6.691 4.606l-7.848 7.945-7.73 7.832c3.808 2.88 8.421 4.375 13.269 4.375 3.23 0 6.348-.691 9.117-1.957 2.422-1.152 4.73-2.648 6.692-4.605l15.691-15.778c-6.691-4.835-15.23-5.644-22.5-2.418Zm292.16 0c-2.422 1.036-4.73 2.649-6.691 4.606l-7.848 7.945-7.73 7.832c3.808 2.88 8.425 4.375 13.27 4.375 3.23 0 6.347-.691 9.116-1.957 2.422-1.152 4.73-2.648 6.692-4.605l15.695-15.778c-6.695-4.835-15.234-5.644-22.504-2.418Zm-36.461 0c-2.422 1.036-4.73 2.649-6.691 4.606l-7.848 7.945-7.73 7.832c3.808 2.88 8.422 4.375 13.27 4.375 3.23 0 6.347-.691 9.116-1.957 2.422-1.152 4.73-2.648 6.692-4.605l15.691-15.778c-6.691-4.835-15.347-5.644-22.5-2.418Zm-474.82 0c-2.422 1.036-4.73 2.649-6.691 4.606l-7.848 7.945-7.73 7.832c3.808 2.88 8.421 4.375 13.269 4.375 3.23 0 6.348-.691 9.117-1.957 2.422-1.152 4.73-2.648 6.692-4.605l15.69-15.778c-6.577-4.835-15.23-5.644-22.5-2.418Zm-36.461 0c-2.426 1.036-4.734 2.649-6.695 4.606l-7.844 7.945-7.734 7.832c3.808 2.88 8.425 4.375 13.273 4.375 3.23 0 6.344-.691 9.113-1.957 2.422-1.152 4.73-2.648 6.692-4.605l15.578-15.778c-6.578-4.835-15.113-5.644-22.383-2.418Zm620.785 0c-2.426 1.036-4.73 2.649-6.691 4.606l-7.848 7.945-7.73 7.832c3.804 2.88 8.422 4.375 13.27 4.375 3.23 0 6.343-.691 9.112-1.957 2.426-1.152 4.73-2.648 6.696-4.605l15.691-15.778c-6.691-4.835-15.23-5.644-22.5-2.418Zm-657.363 0c-2.426 1.036-4.73 2.649-6.695 4.606l-7.844 7.945-7.73 7.832c3.804 2.88 8.421 4.375 13.269 4.375 3.23 0 6.344-.691 9.113-1.957 2.422-1.152 4.73-2.648 6.692-4.605L81.43 12.898c-6.461-4.835-15.114-5.644-22.383-2.418Zm-14.078 2.418C38.39 8.063 29.852 7.254 22.582 10.48v22.801c2.426-1.152 4.73-2.648 6.691-4.605Zm1423.769 10.133-7.73 7.832c3.804 2.88 8.422 4.375 13.27 4.375 3.23 0 6.343-.691 9.113-1.957v-22.8c-2.422 1.035-4.73 2.648-6.692 4.605ZM241.703 10.48c-2.422 1.036-4.73 2.649-6.691 4.606l-7.848 7.945-7.73 7.832c3.808 2.88 8.425 4.375 13.27 4.375 3.23 0 6.347-.691 9.116-1.957 2.422-1.152 4.73-2.648 6.692-4.605l15.691-15.778c-6.691-4.835-15.23-5.644-22.5-2.418Zm36.465 0c-2.426 1.036-4.73 2.649-6.695 4.606l-7.844 7.945-7.73 7.832c3.804 2.88 8.421 4.375 13.269 4.375 3.23 0 6.344-.691 9.113-1.957 2.426-1.152 4.73-2.648 6.692-4.605l15.695-15.778c-6.691-4.835-15.23-5.644-22.5-2.418Zm-109.504 0c-2.422 1.036-4.73 2.649-6.691 4.606l-7.848 7.945-7.73 7.832c3.808 2.88 8.421 4.375 13.27 4.375 3.23 0 6.347-.691 9.112-1.957 2.426-1.152 4.735-2.648 6.696-4.605l15.578-15.778c-6.578-4.835-15.117-5.644-22.387-2.418Zm146.082 0c-2.426 1.036-4.73 2.649-6.695 4.606l-7.844 7.945-7.73 7.832c3.804 2.88 8.421 4.375 13.27 4.375 3.23 0 6.343-.691 9.112-1.957 2.422-1.152 4.73-2.648 6.692-4.605l15.695-15.778c-6.695-4.835-15.23-5.644-22.5-2.418Zm-109.621 0c-2.422 1.036-4.73 2.649-6.691 4.606l-7.848 7.945-7.73 7.832c3.808 2.88 8.425 4.375 13.269 4.375 3.23 0 6.348-.691 9.117-1.957 2.422-1.152 4.73-2.648 6.692-4.605l15.691-15.778c-6.691-4.835-15.23-5.644-22.5-2.418Zm182.66 0c-2.422 1.036-4.73 2.649-6.691 4.606l-7.848 7.945-7.73 7.832c3.808 2.88 8.421 4.375 13.27 4.375 3.23 0 6.347-.691 9.116-1.957 2.422-1.152 4.73-2.648 6.692-4.605l15.691-15.778c-6.691-4.835-15.23-5.644-22.5-2.418Zm912.949 0c-2.425 1.036-4.734 2.649-6.695 4.606l-7.844 7.945-7.734 7.832c3.809 2.88 8.426 4.375 13.27 4.375 3.234 0 6.347-.691 9.117-1.957 2.422-1.152 4.73-2.648 6.691-4.605l15.695-15.778c-6.695-4.835-15.23-5.644-22.5-2.418Zm-73.043 0c-2.421 1.036-4.73 2.649-6.691 4.606l-7.848 7.945-7.73 7.832c3.808 2.88 8.426 4.375 13.27 4.375 3.23 0 6.347-.691 9.117-1.957 2.421-1.152 4.73-2.648 6.691-4.605l15.691-15.778c-6.691-4.835-15.23-5.644-22.5-2.418Zm36.579 0c-2.422 1.036-4.73 2.649-6.692 4.606l-7.848 7.945-7.73 7.832c3.809 2.88 8.422 4.375 13.27 4.375 3.23 0 6.347-.691 9.117-1.957 2.422-1.152 4.73-2.648 6.691-4.605l15.692-15.778c-6.692-4.835-15.344-5.644-22.5-2.418Zm-73.04 0c-2.421 1.036-4.73 2.649-6.69 4.606l-7.849 7.945-7.73 7.832c3.809 2.88 8.422 4.375 13.27 4.375 3.23 0 6.343-.691 9.113-1.957 2.426-1.152 4.73-2.648 6.695-4.605l15.691-15.778c-6.69-4.835-15.347-5.644-22.5-2.418Zm-36.578 0c-2.422 1.036-4.73 2.649-6.691 4.606l-7.848 7.945-7.73 7.832c3.808 2.88 8.422 4.375 13.27 4.375 3.23 0 6.343-.691 9.113-1.957 2.425-1.152 4.734-2.648 6.695-4.605l15.691-15.778c-6.691-4.835-15.23-5.644-22.5-2.418Zm182.661 0c-2.426 1.036-4.735 2.649-6.696 4.606l-7.844 7.945-7.734 7.832c3.809 2.88 8.426 4.375 13.27 4.375 3.234 0 6.347-.691 9.117-1.957 2.422-1.152 4.73-2.648 6.691-4.605l15.696-15.778c-6.696-4.835-15.348-5.644-22.5-2.418Zm-219.125 0c-2.422 1.036-4.731 2.649-6.692 4.606l-7.844 7.945-7.734 7.832c3.809 2.88 8.426 4.375 13.27 4.375 3.234 0 6.347-.691 9.117-1.957 2.422-1.152 4.73-2.648 6.691-4.605l15.695-15.778c-6.695-4.835-15.347-5.644-22.504-2.418Zm292.164 0c-2.422 1.036-4.73 2.649-6.692 4.606l-7.848 7.945-7.73 7.832c3.809 2.88 8.422 4.375 13.27 4.375 3.23 0 6.343-.691 9.113-1.957 2.426-1.152 4.734-2.648 6.695-4.605l15.461-15.778c-6.46-4.835-15.117-5.644-22.27-2.418Zm36.461 0c-2.422 1.036-4.731 2.649-6.692 4.606l-7.848 7.945-7.73 7.832c3.809 2.88 8.426 4.375 13.27 4.375 3.23 0 6.347-.691 9.117-1.957 2.422-1.152 4.73-2.648 6.691-4.605l15.691-15.778c-6.69-4.835-15.23-5.644-22.5-2.418Zm-73.04 0c-2.421 1.036-4.73 2.649-6.691 4.606l-7.848 7.945-7.73 7.832c3.809 2.88 8.422 4.375 13.27 4.375 3.23 0 6.347-.691 9.113-1.957 2.426-1.152 4.734-2.648 6.695-4.605l15.691-15.778c-6.691-4.835-15.23-5.644-22.5-2.418Zm-438.242 0c-2.422 1.036-4.73 2.649-6.691 4.606l-7.848 7.945-7.73 7.832c3.808 2.88 8.422 4.375 13.27 4.375 3.23 0 6.343-.691 9.113-1.957 2.425-1.152 4.73-2.648 6.695-4.605l15.691-15.778c-6.691-4.835-15.23-5.644-22.5-2.418Zm-36.465 0c-2.421 1.036-4.73 2.649-6.691 4.606l-7.848 7.945-7.73 7.832c3.808 2.88 8.426 4.375 13.27 4.375 3.23 0 6.347-.691 9.117-1.957 2.421-1.152 4.73-2.648 6.691-4.605l15.578-15.778c-6.578-4.835-15.23-5.644-22.387-2.418Zm-36.578 0c-2.422 1.036-4.73 2.649-6.691 4.606l-7.844 7.945-7.734 7.832c3.808 2.88 8.426 4.375 13.27 4.375 3.234 0 6.347-.691 9.116-1.957 2.422-1.152 4.73-2.648 6.692-4.605l15.695-15.778c-6.695-4.835-15.234-5.644-22.504-2.418Zm-36.461 0c-2.422 1.036-4.73 2.649-6.691 4.606l-7.848 7.945-7.73 7.832c3.808 2.88 8.422 4.375 13.27 4.375 3.23 0 6.347-.691 9.117-1.957 2.421-1.152 4.73-2.648 6.69-4.605l15.692-15.778c-6.691-4.835-15.343-5.644-22.5-2.418Zm-36.577 0c-2.423 1.036-4.731 2.649-6.692 4.606l-7.848 7.945-7.73 7.832c3.808 2.88 8.422 4.375 13.27 4.375 3.23 0 6.347-.691 9.116-1.957 2.422-1.152 4.73-2.648 6.692-4.605l15.578-15.778c-6.578-4.835-15.117-5.644-22.387-2.418Zm219.12 0c-2.422 1.036-4.73 2.649-6.691 4.606l-7.848 7.945-7.73 7.832c3.808 2.88 8.422 4.375 13.27 4.375 3.23 0 6.347-.691 9.116-1.957 2.422-1.152 4.731-2.648 6.692-4.605l15.691-15.778c-6.691-4.835-15.23-5.644-22.5-2.418Zm-255.582 0c-2.426 1.036-4.73 2.649-6.695 4.606l-7.844 7.945-7.73 7.832c3.804 2.88 8.422 4.375 13.27 4.375 3.23 0 6.343-.691 9.113-1.957 2.425-1.152 4.73-2.648 6.695-4.605l15.691-15.778c-6.691-4.835-15.347-5.644-22.5-2.418Zm292.16 0c-2.421 1.036-4.73 2.649-6.691 4.606l-7.848 7.945-7.73 7.832c3.808 2.88 8.422 4.375 13.27 4.375 3.23 0 6.347-.691 9.117-1.957 2.421-1.152 4.73-2.648 6.691-4.605l15.691-15.778c-6.691-4.835-15.343-5.644-22.5-2.418Zm36.465 0c-2.426 1.036-4.734 2.649-6.695 4.606l-7.844 7.945-7.734 7.832c3.808 2.88 8.426 4.375 13.27 4.375 3.234 0 6.347-.691 9.117-1.957 2.421-1.152 4.73-2.648 6.691-4.605l15.695-15.778c-6.695-4.835-15.23-5.644-22.5-2.418Zm-109.503 0c-2.426 1.036-4.731 2.649-6.692 4.606l-7.848 7.945-7.73 7.832c3.808 2.88 8.422 4.375 13.27 4.375 3.23 0 6.343-.691 9.113-1.957 2.425-1.152 4.73-2.648 6.695-4.605l15.691-15.778c-6.691-4.835-15.347-5.644-22.5-2.418Zm0 0"/><g clip-path="url(#b)"><path fill="#7d5148" d="M2863.52 8.063c-7.848-6.336-18.23-7.95-27.348-4.954-3.23 1.036-6.344 2.766-9.113 4.954-7.848-6.336-18.235-7.95-27.348-4.954-3.23 1.036-6.348 2.766-9.117 4.954-7.844-6.336-18.23-7.95-27.348-4.954-3.23 1.036-6.344 2.766-9.113 4.954-7.848-6.336-18.23-7.95-27.348-4.954-3.23 1.036-6.347 2.766-9.117 4.954-7.844-6.336-18.23-7.95-27.344-4.954-3.23 1.036-6.347 2.766-9.117 4.954-7.848-6.336-18.23-7.95-27.348-4.954-3.23 1.036-6.343 2.766-9.113 4.954-7.848-6.336-18.234-7.95-27.348-4.954-3.23 1.036-6.347 2.766-9.117 4.954-7.843-6.336-18.23-7.95-27.347-4.954-3.23 1.036-6.344 2.766-9.114 4.954-7.847-6.336-18.23-7.95-27.347-4.954-3.23 1.036-6.348 2.766-9.118 4.954-7.843-6.336-18.23-7.95-27.343-4.954-3.23 1.036-6.348 2.766-9.117 4.954-7.848-6.336-18.23-7.95-27.348-4.954-3.23 1.036-6.344 2.766-9.113 4.954-7.848-6.336-18.235-7.95-27.348-4.954-3.23 1.036-6.348 2.766-9.117 4.954-7.844-6.336-18.23-7.95-27.348-4.954-3.23 1.036-6.344 2.766-9.113 4.954-7.848-6.336-18.23-7.95-27.348-4.954-3.23 1.036-6.347 2.766-9.117 4.954-7.844-6.336-18.23-7.95-27.344-4.954-3.234 1.036-6.347 2.766-9.117 4.954-7.848-6.336-18.23-7.95-27.348-4.954-3.23 1.036-6.347 2.766-9.113 4.954-7.848-6.336-18.234-7.95-27.348-4.954-3.23 1.036-6.347 2.766-9.117 4.954-7.847-6.336-18.23-7.95-27.347-4.954-3.23 1.036-6.344 2.766-9.114 4.954-7.847-6.336-18.23-7.95-27.347-4.954-3.23 1.036-6.348 2.766-9.118 4.954-7.843-6.336-18.23-7.95-27.347-4.954-3.23 1.036-6.344 2.766-9.113 4.954-7.848-6.336-18.23-7.95-27.348-4.954-3.23 1.036-6.348 2.766-9.117 4.954-7.844-6.336-18.23-7.95-27.344-4.954-3.23 1.036-6.348 2.766-9.117 4.954-9-6.336-19.383-8.063-28.617-4.954-3.23 1.036-6.344 2.766-9.114 4.954-7.847-6.336-18.23-7.95-27.347-4.954-3.23 1.036-6.348 2.766-9.118 4.954-7.843-6.336-18.23-7.95-27.343-4.954-3.235 1.036-6.348 2.766-9.118 4.954-7.96-6.336-18.347-8.063-27.46-4.954-3.23 1.036-6.348 2.766-9.118 4.954-7.847-6.336-18.23-7.95-27.347-4.954-3.23 1.036-6.344 2.766-9.114 4.954-7.847-6.336-18.234-7.95-27.347-4.954-3.23 1.036-6.348 2.766-9.117 4.954-7.844-6.336-18.23-7.95-27.348-4.954-3.23 1.036-6.344 2.766-9.113 4.954-7.848-6.336-18.23-7.95-27.348-4.954-3.23 1.036-6.348 2.766-9.117 4.954-7.844-6.336-18.23-7.95-27.344-4.954-3.23 1.036-6.348 2.766-9.117 4.954-7.848-6.336-18.23-7.95-27.348-4.954-3.23 1.036-6.344 2.766-9.113 4.954-7.848-6.336-18.234-7.95-27.348-4.954-3.23 1.036-6.347 2.766-9.117 4.954-7.844-6.336-18.23-7.95-27.348-4.954-3.23 1.036-6.343 2.766-9.113 4.954-7.848-6.336-18.23-7.95-27.348-4.954-3.23 1.036-6.347 2.766-9.117 4.954-7.843-6.336-18.23-7.95-27.343-4.954-3.23 1.036-6.348 2.766-9.118 4.954-7.847-6.336-18.23-7.95-27.347-4.954-3.23 1.036-6.344 2.766-9.114 4.954-7.847-6.336-18.234-7.95-27.347-4.954-3.23 1.036-6.348 2.766-9.117 4.954-7.844-6.336-18.23-7.95-27.348-4.954-3.23 1.036-6.344 2.766-9.113 4.954-8.657-6.336-19.04-8.063-28.157-4.954v37.657c3.348-1.036 6.348-2.762 9.118-4.95 5.191 4.145 11.539 6.45 18.23 6.45 3.117 0 6.23-.461 9.117-1.5 3.344-1.036 6.344-2.762 9.114-4.95 5.19 4.145 11.539 6.45 18.23 6.45 3.117 0 6.234-.461 9.117-1.5 3.348-1.036 6.348-2.762 9.117-4.95 5.192 4.145 11.54 6.45 18.23 6.45 3.114 0 6.231-.461 9.114-1.5 3.348-1.036 6.348-2.762 9.117-4.95 5.192 4.145 11.54 6.45 18.23 6.45 3.118 0 6.231-.461 9.118-1.5 3.344-1.036 6.344-2.762 9.113-4.95 5.196 4.145 11.54 6.45 18.235 6.45 3.113 0 6.23-.461 9.113-1.5 3.348-1.036 6.348-2.762 9.117-4.95 5.191 4.145 11.54 6.45 18.23 6.45 3.118 0 6.231-.461 9.118-1.5 3.343-1.036 6.343-2.762 9.113-4.95 5.191 4.145 11.54 6.45 18.23 6.45 3.118 0 6.235-.461 9.118-1.5 3.347-1.036 6.347-2.762 9.117-4.95 5.191 4.145 11.539 6.45 18.23 6.45 3.114 0 6.23-.461 9.114-1.5 3.347-1.036 6.347-2.762 9.117-4.95 5.191 4.145 11.539 6.45 18.23 6.45 3.117 0 6.23-.461 9.117-1.5 3.344-1.036 6.344-2.762 9.114-4.95 5.195 4.145 11.539 6.45 18.234 6.45 3.113 0 6.23-.461 9.113-1.5 3.348-1.036 6.348-2.762 9.118-4.95 5.191 4.145 11.539 6.45 18.23 6.45 3.117 0 6.23-.461 9.117-1.5 3.344-1.036 6.344-2.762 9.114-4.95 5.195 4.145 11.539 6.45 18.23 6.45 3.117 0 6.234-.461 9.117-1.5 3.348-1.036 6.348-2.762 9.117-4.95 5.192 4.145 11.54 6.45 18.23 6.45 3.114 0 6.231-.461 9.114-1.5 3.348-1.036 6.348-2.762 9.117-4.95 5.192 4.145 11.54 6.45 18.23 6.45 3.118 0 6.231-.461 9.118-1.5 3.344-1.036 6.344-2.762 9.113-4.95 5.196 4.145 11.54 6.45 18.235 6.45 3.113 0 6.23-.461 9.113-1.5 3.348-1.036 6.348-2.762 9.117-4.95 5.191 4.145 11.54 6.45 18.23 6.45 3.118 0 6.231-.461 9.118-1.5 3.343-1.036 6.343-2.762 9.113-4.95 5.195 4.145 11.54 6.45 18.23 6.45 3.118 0 6.235-.461 9.118-1.5 3.347-1.036 6.347-2.762 9.117-4.95 5.191 4.145 11.539 6.45 18.23 6.45 3.114 0 6.23-.461 9.114-1.5 3.347-1.036 6.347-2.762 9.117-4.95 5.191 4.145 11.539 6.45 18.23 6.45 3.117 0 6.23-.461 9.117-1.5 3.348-1.036 6.348-2.762 9.114-4.95 5.195 4.145 11.539 6.45 18.234 6.45 3.113 0 6.23-.461 9.113-1.5 3.348-1.036 6.348-2.762 9.118-4.95 5.191 4.145 11.539 6.45 18.23 6.45 3.117 0 6.23-.461 9.117-1.5 3.344-1.036 6.344-2.762 9.114-4.95 5.195 4.145 11.539 6.45 18.234 6.45 3.113 0 6.23-.461 9.113-1.5 3.348-1.036 6.348-2.762 9.117-4.95 5.192 4.145 11.54 6.45 18.23 6.45 3.118 0 6.231-.461 9.118-1.5 3.344-1.036 6.344-2.762 9.113-4.95 5.192 4.145 11.54 6.45 18.23 6.45 3.118 0 6.231-.461 9.118-1.5 3.348-1.036 6.348-2.762 9.117-4.95 5.192 4.145 11.535 6.45 18.23 6.45 3.114 0 6.231-.461 9.114-1.5 3.348-1.036 6.348-2.762 9.117-4.95 5.191 4.145 11.54 6.45 18.23 6.45 3.118 0 6.231-.461 9.118-1.5 3.343-1.036 6.343-2.762 9.113-4.95 5.195 4.145 11.54 6.45 18.234 6.45 3.114 0 6.23-.461 9.114-1.5 3.347-1.036 6.347-2.762 9.117-4.95 5.191 4.145 11.539 6.45 18.23 6.45 3.118 0 6.23-.461 9.118-1.5 3.343-1.036 6.343-2.762 9.113-4.95 5.195 4.145 11.539 6.45 18.23 6.45 3.117 0 6.235-.461 9.117-1.5 3.348-1.036 6.348-2.762 9.118-4.95 5.191 4.145 11.539 6.45 18.23 6.45 3.113 0 6.23-.461 9.113-1.5 3.348-1.036 6.348-2.762 9.118-4.95 5.191 4.145 11.539 6.45 18.23 6.45 3.117 0 6.23-.461 9.117-1.5 3.348-1.036 6.348-2.762 9.114-4.95 5.195 4.145 11.539 6.45 18.234 6.45 3.113 0 6.23-.461 9.113-1.5 3.348-1.036 6.348-2.762 9.117-4.95 5.192 4.145 11.54 6.45 18.23 6.45 3.118 0 6.231-.461 9.118-1.5 3.344-1.036 6.344-2.762 9.113-4.95 5.196 4.145 11.54 6.45 18.235 6.45 3.113 0 6.23-.461 9.113-1.5 3.348-1.036 6.348-2.762 9.117-4.95 5.192 4.145 11.54 6.45 18.23 6.45 3.118 0 6.231-.461 9.118-1.5 3.344-1.036 6.344-2.762 9.113-4.95 5.191 4.145 11.54 6.45 18.23 6.45 3.118 0 6.235-.461 9.118-1.5 3.347-1.036 6.347-2.762 9.117-4.95 5.191 4.145 11.539 6.45 18.23 6.45 3.114 0 6.23-.461 9.114-1.5 3.347-1.036 6.347-2.762 9.117-4.95 5.191 4.145 11.539 6.45 18.23 6.45 3.118 0 6.23-.461 9.118-1.5 3.347-1.036 6.347-2.762 9.113-4.95 5.195 4.145 11.539 6.45 18.234 6.45 3.113 0 6.23-.461 9.113-1.5 3.348-1.036 6.348-2.762 9.118-4.95 5.191 4.145 11.539 6.45 18.23 6.45 3.117 0 6.23-.461 9.117-1.5V3.109c-1.039 1.036-4.039 2.649-6.925 4.954Zm0 0"/></g><path fill="#e9ac64" d="M1886.648 10.48c-2.425 1.036-4.73 2.649-6.695 4.606l-7.844 7.945-7.73 7.832c3.805 2.88 8.422 4.375 13.27 4.375 3.23 0 6.343-.691 9.113-1.957 2.426-1.152 4.73-2.648 6.695-4.605l15.691-15.778c-6.691-4.835-15.23-5.644-22.5-2.418Zm36.579 0c-2.426 1.036-4.73 2.649-6.696 4.606l-7.843 7.945-7.731 7.832c3.805 2.88 8.422 4.375 13.27 4.375 3.23 0 6.343-.691 9.113-1.957 2.426-1.152 4.73-2.648 6.691-4.605l15.696-15.778c-6.692-4.835-15.348-5.644-22.5-2.418Zm-73.043 0c-2.422 1.036-4.73 2.649-6.692 4.606l-7.847 7.945-7.73 7.832c3.808 2.88 8.425 4.375 13.269 4.375 3.23 0 6.347-.691 9.117-1.957 2.422-1.152 4.73-2.648 6.691-4.605l15.692-15.778c-6.692-4.835-15.344-5.644-22.5-2.418Zm-36.579 0c-2.421 1.036-4.73 2.649-6.69 4.606l-7.849 7.945-7.73 7.832c3.809 2.88 8.426 4.375 13.27 4.375 3.23 0 6.347-.691 9.117-1.957 2.422-1.152 4.73-2.648 6.691-4.605l15.695-15.778c-6.695-4.835-15.234-5.644-22.504-2.418Zm146.083 0c-2.422 1.036-4.731 2.649-6.692 4.606l-7.848 7.945-7.73 7.832c3.809 2.88 8.422 4.375 13.27 4.375 3.23 0 6.347-.691 9.117-1.957 2.422-1.152 4.73-2.648 6.691-4.605l15.691-15.778c-6.69-4.835-15.23-5.644-22.5-2.418Zm109.617 0c-2.422 1.036-4.73 2.649-6.692 4.606l-7.847 7.945-7.73 7.832c3.808 2.88 8.425 4.375 13.269 4.375 3.23 0 6.347-.691 9.117-1.957 2.422-1.152 4.73-2.648 6.691-4.605l15.696-15.778c-6.696-4.835-15.348-5.644-22.504-2.418Zm-328.739 0c-2.421 1.036-4.73 2.649-6.691 4.606l-7.848 7.945-7.73 7.832c3.808 2.88 8.422 4.375 13.27 4.375 3.23 0 6.347-.691 9.117-1.957 2.421-1.152 4.73-2.648 6.691-4.605l15.691-15.778c-6.691-4.835-15.23-5.644-22.5-2.418Zm292.161 0c-2.422 1.036-4.73 2.649-6.692 4.606l-7.848 7.945-7.73 7.832c3.809 2.88 8.426 4.375 13.27 4.375 3.23 0 6.347-.691 9.117-1.957 2.422-1.152 4.73-2.648 6.691-4.605l15.695-15.778c-6.695-4.835-15.234-5.644-22.503-2.418Zm-36.461 0c-2.422 1.036-4.73 2.649-6.692 4.606l-7.847 7.945-7.73 7.832c3.808 2.88 8.421 4.375 13.269 4.375 3.23 0 6.347-.691 9.117-1.957 2.422-1.152 4.73-2.648 6.691-4.605l15.692-15.778c-6.692-4.835-15.348-5.644-22.5-2.418Zm-474.821 0c-2.422 1.036-4.73 2.649-6.691 4.606l-7.848 7.945-7.73 7.832c3.808 2.88 8.422 4.375 13.27 4.375 3.23 0 6.347-.691 9.113-1.957 2.425-1.152 4.734-2.648 6.695-4.605l15.691-15.778c-6.578-4.835-15.23-5.644-22.5-2.418Zm-36.461 0c-2.425 1.036-4.734 2.649-6.695 4.606l-7.844 7.945-7.734 7.832c3.809 2.88 8.426 4.375 13.27 4.375 3.234 0 6.347-.691 9.117-1.957 2.422-1.152 4.73-2.648 6.691-4.605l15.578-15.778c-6.578-4.835-15.113-5.644-22.383-2.418Zm620.786 0c-2.426 1.036-4.73 2.649-6.696 4.606l-7.844 7.945-7.73 7.832c3.805 2.88 8.422 4.375 13.27 4.375 3.23 0 6.343-.691 9.113-1.957 2.426-1.152 4.73-2.648 6.695-4.605l15.692-15.778c-6.692-4.835-15.23-5.644-22.5-2.418Zm-657.364 0c-2.426 1.036-4.734 2.649-6.695 4.606l-7.844 7.945-7.73 7.832c3.804 2.88 8.422 4.375 13.27 4.375 3.23 0 6.343-.691 9.113-1.957 2.421-1.152 4.73-2.648 6.69-4.605l15.58-15.778c-6.462-4.835-15.114-5.644-22.384-2.418Zm-14.078 2.418c-6.578-4.835-15.117-5.644-22.387-2.418v22.801c2.426-1.152 4.73-2.648 6.692-4.605Zm1423.77 10.133-7.73 7.832c3.804 2.88 8.421 4.375 13.269 4.375 3.23 0 6.343-.691 9.113-1.957v-22.8c-2.422 1.035-4.73 2.648-6.691 4.605ZM1631.063 10.48c-2.422 1.036-4.731 2.649-6.692 4.606l-7.848 7.945-7.73 7.832c3.809 2.88 8.426 4.375 13.27 4.375 3.23 0 6.347-.691 9.117-1.957 2.422-1.152 4.73-2.648 6.691-4.605l15.691-15.778c-6.69-4.835-15.23-5.644-22.5-2.418Zm36.464 0c-2.425 1.036-4.73 2.649-6.695 4.606l-7.844 7.945-7.73 7.832c3.804 2.88 8.422 4.375 13.27 4.375 3.23 0 6.343-.691 9.113-1.957 2.425-1.152 4.73-2.648 6.691-4.605l15.695-15.778c-6.691-4.835-15.23-5.644-22.5-2.418Zm-109.504 0c-2.421 1.036-4.73 2.649-6.691 4.606l-7.848 7.945-7.73 7.832c3.809 2.88 8.422 4.375 13.27 4.375 3.23 0 6.343-.691 9.113-1.957 2.426-1.152 4.734-2.648 6.695-4.605l15.578-15.778c-6.578-4.835-15.117-5.644-22.387-2.418Zm146.082 0c-2.425 1.036-4.734 2.649-6.695 4.606l-7.844 7.945-7.73 7.832c3.805 2.88 8.422 4.375 13.27 4.375 3.23 0 6.343-.691 9.113-1.957 2.422-1.152 4.73-2.648 6.691-4.605l15.695-15.778c-6.695-4.835-15.23-5.644-22.5-2.418Zm-109.621 0c-2.421 1.036-4.73 2.649-6.691 4.606l-7.848 7.945-7.73 7.832c3.808 2.88 8.426 4.375 13.27 4.375 3.23 0 6.347-.691 9.117-1.957 2.421-1.152 4.73-2.648 6.691-4.605l15.691-15.778c-6.691-4.835-15.23-5.644-22.5-2.418Zm182.661 0c-2.422 1.036-4.73 2.649-6.692 4.606l-7.848 7.945-7.73 7.832c3.809 2.88 8.422 4.375 13.27 4.375 3.23 0 6.347-.691 9.113-1.957 2.426-1.152 4.734-2.648 6.695-4.605l15.692-15.778c-6.692-4.835-15.23-5.644-22.5-2.418Zm912.949 0c-2.426 1.036-4.735 2.649-6.696 4.606l-7.843 7.945-7.735 7.832c3.809 2.88 8.426 4.375 13.27 4.375 3.234 0 6.347-.691 9.117-1.957 2.422-1.152 4.73-2.648 6.691-4.605l15.696-15.778c-6.696-4.835-15.23-5.644-22.5-2.418Zm-73.044 0c-2.421 1.036-4.73 2.649-6.69 4.606l-7.848 7.945-7.73 7.832c3.808 2.88 8.425 4.375 13.269 4.375 3.23 0 6.347-.691 9.117-1.957 2.422-1.152 4.73-2.648 6.691-4.605l15.692-15.778c-6.692-4.835-15.23-5.644-22.5-2.418Zm36.579 0c-2.422 1.036-4.73 2.649-6.691 4.606l-7.848 7.945-7.73 7.832c3.808 2.88 8.421 4.375 13.269 4.375 3.23 0 6.348-.691 9.117-1.957 2.422-1.152 4.73-2.648 6.691-4.605l15.692-15.778c-6.691-4.835-15.344-5.644-22.5-2.418Zm-73.039 0c-2.426 1.036-4.73 2.649-6.692 4.606l-7.847 7.945-7.73 7.832c3.808 2.88 8.421 4.375 13.269 4.375 3.23 0 6.344-.691 9.113-1.957 2.426-1.152 4.73-2.648 6.695-4.605l15.692-15.778c-6.692-4.835-15.348-5.644-22.5-2.418Zm-36.578 0c-2.422 1.036-4.73 2.649-6.692 4.606l-7.847 7.945-7.73 7.832c3.808 2.88 8.421 4.375 13.269 4.375 3.23 0 6.343-.691 9.113-1.957 2.426-1.152 4.734-2.648 6.695-4.605l15.692-15.778c-6.692-4.835-15.23-5.644-22.5-2.418Zm182.66 0c-2.426 1.036-4.735 2.649-6.695 4.606l-7.844 7.945-7.735 7.832c3.809 2.88 8.426 4.375 13.27 4.375 3.234 0 6.348-.691 9.117-1.957 2.422-1.152 4.73-2.648 6.692-4.605l15.695-15.778c-6.695-4.835-15.348-5.644-22.5-2.418Zm-219.125 0c-2.422 1.036-4.73 2.649-6.692 4.606l-7.843 7.945-7.735 7.832c3.809 2.88 8.426 4.375 13.27 4.375 3.234 0 6.348-.691 9.117-1.957 2.422-1.152 4.73-2.648 6.691-4.605l15.696-15.778c-6.696-4.835-15.348-5.644-22.504-2.418Zm292.163 0c-2.42 1.036-4.73 2.649-6.69 4.606l-7.848 7.945-7.73 7.832c3.808 2.88 8.421 4.375 13.269 4.375 3.23 0 6.344-.691 9.113-1.957 2.426-1.152 4.73-2.648 6.696-4.605l15.46-15.778c-6.46-4.835-15.117-5.644-22.27-2.418Zm36.462 0c-2.422 1.036-4.73 2.649-6.692 4.606l-7.847 7.945-7.73 7.832c3.808 2.88 8.425 4.375 13.269 4.375 3.23 0 6.348-.691 9.117-1.957 2.422-1.152 4.73-2.648 6.691-4.605l15.692-15.778c-6.692-4.835-15.23-5.644-22.5-2.418Zm-73.039 0c-2.422 1.036-4.73 2.649-6.692 4.606l-7.847 7.945-7.73 7.832c3.808 2.88 8.421 4.375 13.269 4.375 3.23 0 6.347-.691 9.113-1.957 2.426-1.152 4.734-2.648 6.695-4.605l15.692-15.778c-6.692-4.835-15.23-5.644-22.5-2.418Zm-438.243 0c-2.421 1.036-4.73 2.649-6.69 4.606l-7.848 7.945-7.73 7.832c3.808 2.88 8.421 4.375 13.269 4.375 3.23 0 6.343-.691 9.113-1.957 2.426-1.152 4.73-2.648 6.695-4.605l15.692-15.778c-6.692-4.835-15.23-5.644-22.5-2.418Zm-36.464 0c-2.422 1.036-4.73 2.649-6.692 4.606l-7.847 7.945-7.73 7.832c3.808 2.88 8.425 4.375 13.269 4.375 3.23 0 6.347-.691 9.117-1.957 2.422-1.152 4.73-2.648 6.691-4.605l15.579-15.778c-6.579-4.835-15.231-5.644-22.387-2.418Zm-36.578 0c-2.422 1.036-4.73 2.649-6.692 4.606l-7.843 7.945-7.735 7.832c3.809 2.88 8.426 4.375 13.27 4.375 3.234 0 6.347-.691 9.117-1.957 2.422-1.152 4.73-2.648 6.691-4.605l15.696-15.778c-6.696-4.835-15.235-5.644-22.504-2.418Zm-36.461 0c-2.422 1.036-4.73 2.649-6.692 4.606l-7.847 7.945-7.73 7.832c3.808 2.88 8.421 4.375 13.269 4.375 3.23 0 6.347-.691 9.117-1.957 2.422-1.152 4.73-2.648 6.691-4.605l15.692-15.778c-6.692-4.835-15.348-5.644-22.5-2.418Zm-36.578 0c-2.422 1.036-4.73 2.649-6.692 4.606l-7.847 7.945-7.73 7.832c3.808 2.88 8.42 4.375 13.269 4.375 3.23 0 6.347-.691 9.117-1.957 2.422-1.152 4.73-2.648 6.691-4.605l15.578-15.778c-6.578-4.835-15.117-5.644-22.386-2.418Zm219.121 0c-2.422 1.036-4.73 2.649-6.692 4.606l-7.847 7.945-7.73 7.832c3.808 2.88 8.421 4.375 13.269 4.375 3.23 0 6.347-.691 9.117-1.957 2.422-1.152 4.73-2.648 6.691-4.605l15.692-15.778c-6.692-4.835-15.23-5.644-22.5-2.418Zm-255.582 0c-2.426 1.036-4.73 2.649-6.696 4.606l-7.843 7.945-7.73 7.832c3.804 2.88 8.421 4.375 13.269 4.375 3.23 0 6.343-.691 9.113-1.957 2.426-1.152 4.73-2.648 6.695-4.605l15.692-15.778c-6.692-4.835-15.348-5.644-22.5-2.418Zm292.16 0c-2.422 1.036-4.73 2.649-6.692 4.606l-7.847 7.945-7.73 7.832c3.808 2.88 8.421 4.375 13.269 4.375 3.23 0 6.347-.691 9.117-1.957 2.422-1.152 4.73-2.648 6.691-4.605l15.692-15.778c-6.692-4.835-15.344-5.644-22.5-2.418Zm36.465 0c-2.426 1.036-4.735 2.649-6.696 4.606l-7.843 7.945-7.735 7.832c3.809 2.88 8.426 4.375 13.27 4.375 3.234 0 6.347-.691 9.117-1.957 2.422-1.152 4.73-2.648 6.691-4.605l15.696-15.778c-6.696-4.835-15.235-5.644-22.5-2.418Zm-109.504 0c-2.426 1.036-4.73 2.649-6.696 4.606l-7.843 7.945-7.73 7.832c3.804 2.88 8.421 4.375 13.269 4.375 3.23 0 6.343-.691 9.113-1.957 2.426-1.152 4.73-2.648 6.695-4.605l15.692-15.778c-6.692-4.835-15.348-5.644-22.5-2.418Zm0 0"/></svg>