<svg xmlns="http://www.w3.org/2000/svg" xmlns:xlink="http://www.w3.org/1999/xlink" width="1015" zoomAndPan="magnify" viewBox="0 0 761.25 162.749997" height="217" preserveAspectRatio="xMidYMid meet" version="1.0"><defs><g/><clipPath id="11a0675af1"><path d="M 0.210938 0 L 760.292969 0 L 760.292969 151 L 0.210938 151 Z M 0.210938 0 " clip-rule="nonzero"/></clipPath></defs><g clip-path="url(#11a0675af1)"><path stroke-linecap="butt" transform="matrix(0.74885, 0, 0, 0.74885, 27.540775, 42.749131)" fill="none" stroke-linejoin="miter" d="M 52.651386 -6.461877 C 59.636057 -6.461877 65.749601 -5.079548 70.9868 -2.320108 C 76.145754 0.507145 80.470095 4.20031 83.965038 8.769818 C 87.454766 13.339327 90.078582 18.540011 91.820837 24.366656 C 93.568309 30.193301 94.444653 36.145138 94.444653 42.216951 C 94.444653 48.372225 93.568309 54.360576 91.820837 60.187221 C 90.078582 65.998217 87.454766 71.193685 83.965038 75.784059 C 80.470095 80.353567 76.145754 84.010217 70.9868 86.748793 C 65.749601 89.576045 59.636057 90.984456 52.651386 90.984456 C 45.661499 90.984456 39.589687 89.576045 34.430732 86.748793 C 29.193533 84.010217 24.827462 80.353567 21.332518 75.784059 C 17.842791 71.193685 15.224191 65.998217 13.476719 60.187221 C 11.729248 54.360576 10.85812 48.372225 10.85812 42.216951 C 10.85812 36.145138 11.729248 30.193301 13.476719 24.366656 C 15.224191 18.540011 17.842791 13.339327 21.332518 8.769818 C 24.827462 4.20031 29.193533 0.507145 34.430732 -2.320108 C 39.589687 -5.079548 45.661499 -6.461877 52.651386 -6.461877 Z M 52.651386 77.035979 C 54.393642 77.035979 56.099383 76.363072 57.76861 75.022474 C 59.43262 73.681876 60.924492 71.600559 62.244224 68.778523 C 63.584822 65.956486 64.66982 62.341567 65.504433 57.933764 C 66.255585 53.609424 66.631161 48.372225 66.631161 42.216951 C 66.631161 36.145138 66.255585 30.902723 65.504433 26.500137 C 64.66982 22.092335 63.584822 18.466983 62.244224 15.624081 C 60.924492 12.802044 59.43262 10.73116 57.76861 9.411427 C 56.099383 8.070829 54.393642 7.397922 52.651386 7.397922 C 50.903915 7.397922 49.198174 8.070829 47.534163 9.411427 C 45.864936 10.73116 44.373065 12.802044 43.053332 15.624081 C 41.712734 18.466983 40.669468 22.092335 39.918316 26.500137 C 39.083702 30.902723 38.666396 36.145138 38.666396 42.216951 C 38.666396 48.372225 39.083702 53.609424 39.918316 57.933764 C 40.669468 62.341567 41.712734 65.956486 43.053332 68.778523 C 44.373065 71.600559 45.864936 73.681876 47.534163 75.022474 C 49.198174 76.363072 50.903915 77.035979 52.651386 77.035979 Z M 186.523378 -3.446836 L 186.523378 42.336926 C 186.523378 48.064461 185.860903 53.640722 184.541171 59.060493 C 183.200573 64.542859 181.035795 69.409699 178.052052 73.650578 C 174.963982 77.980135 170.92654 81.428132 165.929292 84.010217 C 160.853799 86.670548 154.656794 88.000713 147.348711 88.000713 C 140.035411 88.000713 133.885353 86.670548 128.888105 84.010217 C 123.890858 81.428132 119.858631 77.980135 116.796644 73.650578 C 113.708574 69.409699 111.496848 64.542859 110.156251 59.060493 C 108.836518 53.640722 108.174044 48.064461 108.174044 42.336926 L 108.174044 -3.446836 L 134.250497 -3.446836 L 134.250497 42.336926 C 134.250497 48.064461 134.500881 52.967815 135.012081 57.052204 C 135.418955 61.131377 136.159675 64.506345 137.234239 67.166675 C 138.230559 69.827006 139.560724 71.772698 141.224735 73.014186 C 142.888745 74.271322 144.928332 74.902498 147.348711 74.902498 C 152.262497 74.902498 155.67398 72.320413 157.583158 67.166675 C 159.492336 62.007721 160.446925 53.729399 160.446925 42.336926 L 160.446925 -3.446836 Z M 274.606391 88.000713 L 248.409962 88.000713 L 235.43694 48.826046 L 228.822629 48.826046 L 228.822629 88.000713 L 202.751392 88.000713 L 202.751392 -3.446836 L 235.43694 -3.446836 C 240.350727 -3.446836 245.008913 -3.029529 249.416715 -2.194916 C 253.741055 -1.282057 257.517681 0.168084 260.746592 2.160723 C 263.996368 4.231608 266.578453 6.933669 268.487631 10.26169 C 270.412458 13.594927 271.37748 17.715831 271.37748 22.629617 C 271.37748 28.033739 270.250752 32.436325 267.997296 35.847807 C 265.74384 39.342751 262.707933 42.086542 258.889577 44.073966 Z M 228.822629 35.727831 C 231.56642 35.727831 234.023314 35.352255 236.198525 34.601103 C 238.269409 33.849951 240.011665 32.853631 241.435724 31.61736 C 242.755456 30.438469 243.793507 29.05614 244.544659 27.475591 C 245.21235 25.988936 245.546195 24.41882 245.546195 22.749593 C 245.546195 21.085582 245.21235 19.463303 244.544659 17.877537 C 243.793507 16.291772 242.755456 14.883361 241.435724 13.641874 C 240.011665 12.468199 238.269409 11.51361 236.198525 10.778107 C 234.023314 10.026955 231.56642 9.651379 228.822629 9.651379 Z M 379.798979 16.140498 L 379.798979 88.000713 L 353.571252 88.000713 L 353.571252 16.140498 L 330.755008 16.140498 L 333.983919 -3.446836 L 399.386312 -3.446836 L 402.615223 16.140498 Z M 417.596534 -3.446836 L 443.672986 -3.446836 L 443.672986 88.000713 L 417.596534 88.000713 Z M 560.320643 -3.446836 L 560.320643 88.000713 L 534.249407 88.000713 L 534.249407 42.336926 L 521.151193 88.000713 L 495.07474 88.000713 L 481.976526 42.336926 L 481.976526 88.000713 L 462.389192 88.000713 L 462.389192 -3.446836 L 495.07474 -3.446836 L 511.433163 53.698101 L 527.760288 -3.446836 Z M 637.804066 68.413379 L 634.575155 88.000713 L 579.047282 88.000713 L 579.047282 -3.446836 L 631.320163 -3.446836 L 634.575155 16.140498 L 605.118518 16.140498 L 605.118518 32.467623 L 631.320163 32.467623 L 631.320163 52.054956 L 605.118518 52.054956 L 605.118518 68.413379 Z M 712.058578 88.000713 L 656.525488 88.000713 L 656.525488 -3.446836 L 682.601941 -3.446836 L 682.601941 68.413379 L 708.798369 68.413379 Z M 727.019023 -3.446836 L 753.095476 -3.446836 L 753.095476 88.000713 L 727.019023 88.000713 Z M 771.811682 -3.446836 L 801.237021 -3.446836 L 830.573682 51.444645 L 830.573682 -3.446836 L 850.1558 -3.446836 L 850.1558 88.000713 L 820.855653 88.000713 L 791.399015 33.109232 L 791.399015 88.000713 L 771.811682 88.000713 Z M 927.639222 68.413379 L 924.410312 88.000713 L 868.877222 88.000713 L 868.877222 -3.446836 L 921.150103 -3.446836 L 924.410312 16.140498 L 894.953675 16.140498 L 894.953675 32.467623 L 921.150103 32.467623 L 921.150103 52.054956 L 894.953675 52.054956 L 894.953675 68.413379 Z M 927.639222 68.413379 " stroke="#440a00" stroke-width="9.358425" stroke-opacity="1" stroke-miterlimit="4"/></g><g fill="#ffe37f" fill-opacity="1"><g transform="translate(32.864629, 108.647904)"><g><path d="M 34.109375 -70.734375 C 39.335938 -70.734375 43.914062 -69.707031 47.84375 -67.65625 C 51.707031 -65.53125 54.945312 -62.753906 57.5625 -59.328125 C 60.175781 -55.898438 62.132812 -52.007812 63.4375 -47.65625 C 64.75 -43.289062 65.40625 -38.835938 65.40625 -34.296875 C 65.40625 -29.679688 64.75 -25.195312 63.4375 -20.84375 C 62.132812 -16.476562 60.175781 -12.582031 57.5625 -9.15625 C 54.945312 -5.726562 51.707031 -2.988281 47.84375 -0.9375 C 43.914062 1.1875 39.335938 2.25 34.109375 2.25 C 28.867188 2.25 24.320312 1.1875 20.46875 -0.9375 C 16.539062 -2.988281 13.269531 -5.726562 10.65625 -9.15625 C 8.039062 -12.582031 6.078125 -16.476562 4.765625 -20.84375 C 3.453125 -25.195312 2.796875 -29.679688 2.796875 -34.296875 C 2.796875 -38.835938 3.453125 -43.289062 4.765625 -47.65625 C 6.078125 -52.007812 8.039062 -55.898438 10.65625 -59.328125 C 13.269531 -62.753906 16.539062 -65.53125 20.46875 -67.65625 C 24.320312 -69.707031 28.867188 -70.734375 34.109375 -70.734375 Z M 34.109375 -8.21875 C 35.410156 -8.21875 36.6875 -8.71875 37.9375 -9.71875 C 39.175781 -10.71875 40.296875 -12.273438 41.296875 -14.390625 C 42.296875 -16.503906 43.109375 -19.210938 43.734375 -22.515625 C 44.285156 -25.753906 44.5625 -29.679688 44.5625 -34.296875 C 44.5625 -38.835938 44.285156 -42.757812 43.734375 -46.0625 C 43.109375 -49.363281 42.296875 -52.070312 41.296875 -54.1875 C 40.296875 -56.3125 39.175781 -57.867188 37.9375 -58.859375 C 36.6875 -59.859375 35.410156 -60.359375 34.109375 -60.359375 C 32.796875 -60.359375 31.519531 -59.859375 30.28125 -58.859375 C 29.03125 -57.867188 27.90625 -56.3125 26.90625 -54.1875 C 25.914062 -52.070312 25.140625 -49.363281 24.578125 -46.0625 C 23.953125 -42.757812 23.640625 -38.835938 23.640625 -34.296875 C 23.640625 -29.679688 23.953125 -25.753906 24.578125 -22.515625 C 25.140625 -19.210938 25.914062 -16.503906 26.90625 -14.390625 C 27.90625 -12.273438 29.03125 -10.71875 30.28125 -9.71875 C 31.519531 -8.71875 32.796875 -8.21875 34.109375 -8.21875 Z M 34.109375 -8.21875 "/></g></g></g><g fill="#ffe37f" fill-opacity="1"><g transform="translate(105.741087, 108.647904)"><g><path d="M 61.484375 -68.484375 L 61.484375 -34.203125 C 61.484375 -29.898438 60.984375 -25.722656 59.984375 -21.671875 C 58.984375 -17.566406 57.363281 -13.925781 55.125 -10.75 C 52.820312 -7.507812 49.800781 -4.921875 46.0625 -2.984375 C 42.257812 -0.992188 37.617188 0 32.140625 0 C 26.660156 0 22.050781 -0.992188 18.3125 -2.984375 C 14.570312 -4.921875 11.550781 -7.507812 9.25 -10.75 C 6.945312 -13.925781 5.296875 -17.566406 4.296875 -21.671875 C 3.296875 -25.722656 2.796875 -29.898438 2.796875 -34.203125 L 2.796875 -68.484375 L 22.328125 -68.484375 L 22.328125 -34.203125 C 22.328125 -29.898438 22.515625 -26.222656 22.890625 -23.171875 C 23.203125 -20.117188 23.765625 -17.597656 24.578125 -15.609375 C 25.316406 -13.609375 26.3125 -12.144531 27.5625 -11.21875 C 28.8125 -10.28125 30.335938 -9.8125 32.140625 -9.8125 C 35.816406 -9.8125 38.367188 -11.742188 39.796875 -15.609375 C 41.234375 -19.460938 41.953125 -25.660156 41.953125 -34.203125 L 41.953125 -68.484375 Z M 61.484375 -68.484375 "/></g></g></g><g fill="#ffe37f" fill-opacity="1"><g transform="translate(174.693454, 108.647904)"><g><path d="M 58.484375 0 L 38.875 0 L 29.15625 -29.34375 L 24.203125 -29.34375 L 24.203125 0 L 4.671875 0 L 4.671875 -68.484375 L 29.15625 -68.484375 C 32.832031 -68.484375 36.320312 -68.175781 39.625 -67.5625 C 42.851562 -66.875 45.6875 -65.78125 48.125 -64.28125 C 50.550781 -62.726562 52.476562 -60.707031 53.90625 -58.21875 C 55.34375 -55.71875 56.0625 -52.632812 56.0625 -48.96875 C 56.0625 -44.914062 55.222656 -41.613281 53.546875 -39.0625 C 51.859375 -36.4375 49.582031 -34.378906 46.71875 -32.890625 Z M 24.203125 -39.15625 C 26.253906 -39.15625 28.09375 -39.429688 29.71875 -39.984375 C 31.269531 -40.546875 32.578125 -41.296875 33.640625 -42.234375 C 34.628906 -43.109375 35.40625 -44.132812 35.96875 -45.3125 C 36.46875 -46.4375 36.71875 -47.625 36.71875 -48.875 C 36.71875 -50.113281 36.46875 -51.328125 35.96875 -52.515625 C 35.40625 -53.691406 34.628906 -54.75 33.640625 -55.6875 C 32.578125 -56.5625 31.269531 -57.28125 29.71875 -57.84375 C 28.09375 -58.394531 26.253906 -58.671875 24.203125 -58.671875 Z M 24.203125 -39.15625 "/></g></g></g><g fill="#ffe37f" fill-opacity="1"><g transform="translate(240.656022, 108.647904)"><g/></g></g><g fill="#ffe37f" fill-opacity="1"><g transform="translate(273.35727, 108.647904)"><g><path d="M 38.59375 -53.8125 L 38.59375 0 L 18.96875 0 L 18.96875 -53.8125 L 1.875 -53.8125 L 4.296875 -68.484375 L 53.265625 -68.484375 L 55.6875 -53.8125 Z M 38.59375 -53.8125 "/></g></g></g><g fill="#ffe37f" fill-opacity="1"><g transform="translate(335.582639, 108.647904)"><g><path d="M 4.671875 -68.484375 L 24.203125 -68.484375 L 24.203125 0 L 4.671875 0 Z M 4.671875 -68.484375 "/></g></g></g><g fill="#ffe37f" fill-opacity="1"><g transform="translate(369.124765, 108.647904)"><g><path d="M 78.015625 -68.484375 L 78.015625 0 L 58.484375 0 L 58.484375 -34.203125 L 48.6875 0 L 29.15625 0 L 19.34375 -34.203125 L 19.34375 0 L 4.671875 0 L 4.671875 -68.484375 L 29.15625 -68.484375 L 41.390625 -25.6875 L 53.640625 -68.484375 Z M 78.015625 -68.484375 "/></g></g></g><g fill="#ffe37f" fill-opacity="1"><g transform="translate(456.482969, 108.647904)"><g><path d="M 48.6875 -14.671875 L 46.25 0 L 4.671875 0 L 4.671875 -68.484375 L 43.828125 -68.484375 L 46.25 -53.8125 L 24.203125 -53.8125 L 24.203125 -41.578125 L 43.828125 -41.578125 L 43.828125 -26.90625 L 24.203125 -26.90625 L 24.203125 -14.671875 Z M 48.6875 -14.671875 "/></g></g></g><g fill="#ffe37f" fill-opacity="1"><g transform="translate(514.503966, 108.647904)"><g><path d="M 46.25 0 L 4.671875 0 L 4.671875 -68.484375 L 24.203125 -68.484375 L 24.203125 -14.671875 L 43.828125 -14.671875 Z M 46.25 0 "/></g></g></g><g fill="#ffe37f" fill-opacity="1"><g transform="translate(567.292842, 108.647904)"><g><path d="M 4.671875 -68.484375 L 24.203125 -68.484375 L 24.203125 0 L 4.671875 0 Z M 4.671875 -68.484375 "/></g></g></g><g fill="#ffe37f" fill-opacity="1"><g transform="translate(600.834946, 108.647904)"><g><path d="M 4.671875 -68.484375 L 26.71875 -68.484375 L 48.6875 -27.375 L 48.6875 -68.484375 L 63.34375 -68.484375 L 63.34375 0 L 41.390625 0 L 19.34375 -41.109375 L 19.34375 0 L 4.671875 0 Z M 4.671875 -68.484375 "/></g></g></g><g fill="#ffe37f" fill-opacity="1"><g transform="translate(673.524557, 108.647904)"><g><path d="M 48.6875 -14.671875 L 46.25 0 L 4.671875 0 L 4.671875 -68.484375 L 43.828125 -68.484375 L 46.25 -53.8125 L 24.203125 -53.8125 L 24.203125 -41.578125 L 43.828125 -41.578125 L 43.828125 -26.90625 L 24.203125 -26.90625 L 24.203125 -14.671875 Z M 48.6875 -14.671875 "/></g></g></g></svg>